<svg width="12" height="9" viewBox="0 0 12 9" fill="none" xmlns="http://www.w3.org/2000/svg">
<path d="M6.39906 0.660466V0H5.57371V0.667998C2.46858 0.957181 0 4.23201 0 8.23563C0 8.49356 0.0100918 8.74831 0.0302753 8.99988H1.11765C1.10746 8.81588 1.10074 8.63041 1.10074 8.44283C1.10074 4.81135 3.04521 1.8308 5.52614 1.51186L5.32036 7.77307H6.52377L6.41895 1.5132C8.89462 1.83948 10.8336 4.81675 10.8336 8.44295C10.8336 8.63054 10.8269 8.816 10.8167 9H11.9699C11.9898 8.74867 11.9998 8.49392 12 8.23575C11.9999 4.21173 9.52673 0.92056 6.39906 0.660466Z" fill="#ED008C"/>
</svg>
