<svg width="18" height="20" viewBox="0 0 18 20" fill="none" xmlns="http://www.w3.org/2000/svg">
<path d="M3.60002 0.909092L0.900024 4.54546V17.2727C0.900024 17.7549 1.08967 18.2174 1.42723 18.5584C1.7648 18.8994 2.22263 19.0909 2.70002 19.0909H15.3C15.7774 19.0909 16.2353 18.8994 16.5728 18.5584C16.9104 18.2174 17.1 17.7549 17.1 17.2727V4.54546L14.4 0.909092H3.60002Z" stroke="#1D2123" stroke-width="1.5" stroke-linecap="round" stroke-linejoin="round"/>
<path d="M0.900024 4.54546H17.1" stroke="#1D2123" stroke-width="1.5" stroke-linecap="round" stroke-linejoin="round"/>
<path d="M12.6 8.18182C12.6 9.14624 12.2207 10.0712 11.5456 10.7531C10.8705 11.4351 9.9548 11.8182 9.00002 11.8182C8.04524 11.8182 7.12957 11.4351 6.45444 10.7531C5.77931 10.0712 5.40002 9.14624 5.40002 8.18182" stroke="#1D2123" stroke-width="1.5" stroke-linecap="round" stroke-linejoin="round"/>
</svg>
