<svg width="16" height="18" viewBox="0 0 16 18" fill="none" xmlns="http://www.w3.org/2000/svg">
<path d="M0.799805 4.09091H2.3998H15.1998" stroke="#828282" stroke-width="1.5" stroke-linecap="round" stroke-linejoin="round"/>
<path d="M4.80039 4.0909V2.45454C4.80039 2.02055 4.96896 1.60433 5.26902 1.29746C5.56908 0.990578 5.97604 0.818176 6.40039 0.818176H9.60039C10.0247 0.818176 10.4317 0.990578 10.7318 1.29746C11.0318 1.60433 11.2004 2.02055 11.2004 2.45454V4.0909M13.6004 4.0909V15.5454C13.6004 15.9794 13.4318 16.3957 13.1318 16.7025C12.8317 17.0094 12.4247 17.1818 12.0004 17.1818H4.00039C3.57604 17.1818 3.16908 17.0094 2.86902 16.7025C2.56896 16.3957 2.40039 15.9794 2.40039 15.5454V4.0909H13.6004Z" stroke="#828282" stroke-width="1.5" stroke-linecap="round" stroke-linejoin="round"/>
<path d="M6.40039 8.18182V13.0909" stroke="#828282" stroke-width="1.5" stroke-linecap="round" stroke-linejoin="round"/>
<path d="M9.59961 8.18182V13.0909" stroke="#828282" stroke-width="1.5" stroke-linecap="round" stroke-linejoin="round"/>
</svg>
