<svg width="21" height="22" viewBox="0 0 21 22" fill="none" xmlns="http://www.w3.org/2000/svg">
<path d="M7.72266 20.064C8.17909 20.064 8.5491 19.6751 8.5491 19.1955C8.5491 18.7158 8.17909 18.3269 7.72266 18.3269C7.26622 18.3269 6.89621 18.7158 6.89621 19.1955C6.89621 19.6751 7.26622 20.064 7.72266 20.064Z" stroke="white" stroke-width="1.5" stroke-linecap="round" stroke-linejoin="round"/>
<path d="M16.8136 20.064C17.27 20.064 17.6401 19.6751 17.6401 19.1955C17.6401 18.7158 17.27 18.3269 16.8136 18.3269C16.3572 18.3269 15.9872 18.7158 15.9872 19.1955C15.9872 19.6751 16.3572 20.064 16.8136 20.064Z" stroke="white" stroke-width="1.5" stroke-linecap="round" stroke-linejoin="round"/>
<path d="M1.11113 1.82445H4.41691L6.63179 13.4543C6.70736 13.8542 6.91436 14.2134 7.21654 14.4691C7.51872 14.7247 7.89683 14.8605 8.28468 14.8527H16.3177C16.7056 14.8605 17.0837 14.7247 17.3859 14.4691C17.6881 14.2134 17.8951 13.8542 17.9706 13.4543L19.2929 6.1672H5.24336" stroke="white" stroke-width="1.5" stroke-linecap="round" stroke-linejoin="round"/>
</svg>
