<svg width="70" height="56" viewBox="0 0 70 56" fill="none" xmlns="http://www.w3.org/2000/svg">
<g clip-path="url(#clip0_237_3161)">
<path d="M25.3019 36.626C26.7814 36.626 27.9808 35.4267 27.9808 33.9472C27.9808 32.4677 26.7814 31.2683 25.3019 31.2683C23.8224 31.2683 22.623 32.4677 22.623 33.9472C22.623 35.4267 23.8224 36.626 25.3019 36.626Z" fill="#1D2123"/>
<path d="M54.7748 20.1279C59.8605 19.2496 64.2519 16.2702 64.2519 10.2492C64.2519 2.88355 57.6402 0.0181317 51.969 0.0181317L42.9582 -3.8147e-06C41.2068 -3.8147e-06 41.5177 0.0181317 41.4996 0.0259041C41.4815 0.0336765 41.6758 0.20726 41.7587 0.310891H50.5674C53.9561 0.310891 57.7257 2.93796 58.6325 10.2492C59.4952 17.1977 54.0157 19.1874 50.7176 19.9387L48.6994 20.0346H13.9905C10.2914 20.0145 6.73485 21.4602 4.09889 24.0555C2.75012 25.3769 1.68963 26.9633 0.984227 28.7148C0.278824 30.4662 -0.0562022 32.3448 0.000254963 34.2322C0.0480099 37.9426 1.56778 41.4821 4.22524 44.072C5.54107 45.3544 7.09662 46.3651 8.80304 47.0463C10.5095 47.7276 12.3334 48.066 14.1706 48.0424C16.0078 48.0187 17.8224 47.6334 19.5107 46.9085C21.1991 46.1836 22.7281 45.1332 24.0105 43.8174C25.2929 42.5016 26.3036 40.946 26.9848 39.2396C27.666 37.5332 28.0045 35.7093 27.9808 33.872H27.8072C27.812 37.4294 26.4445 40.8516 23.9894 43.426C21.5343 46.0004 18.1808 47.5286 14.6272 47.6926C11.0736 47.8565 7.59371 46.6434 4.91204 44.306C2.23036 41.9685 0.553593 38.6868 0.230836 35.1441C-0.517904 27.0401 5.95908 20.2082 13.9905 20.2082H50.3497C51.6788 20.2885 52.9638 20.4206 52.9638 20.4206C55.6971 20.7523 61.4383 23.2265 61.4383 30.5895C61.4383 37.5173 57.661 40.2998 54.0934 40.6081C53.9224 40.6366 50.6088 40.6288 50.6088 40.6288C50.4922 40.6962 50.6503 40.8698 50.8161 40.9268H53.8318C60.5678 40.9268 67.1096 37.9448 67.1096 30.5791C67.1096 23.2135 60.4461 20.1279 54.7748 20.1279Z" fill="#1D2123"/>
<path d="M14.8279 31.6647C14.6437 31.7137 14.4568 31.7526 14.2683 31.7813C12.004 37.481 9.27846 39.9993 5.58398 40.634V40.9345H18.0353V40.6418C14.6803 40.634 13.859 36.0897 14.8279 31.6647Z" fill="#1D2123"/>
<path d="M33.7576 40.634V40.9345H46.6183L46.3592 40.6366C42.7321 40.6366 41.3512 36.5509 39.833 32.8098C38.2604 29.0609 27.2029 -3.8147e-06 27.2029 -3.8147e-06H26.6847C26.6847 -3.8147e-06 25.7287 2.45089 24.2598 6.2179L24.4048 6.55989C24.5214 6.85264 34.8095 33.6829 35.395 35.2607C36.9728 39.5251 36.5634 40.634 33.7576 40.634Z" fill="#1D2123"/>
<path d="M41.7114 40.634V40.9345H54.5721L54.313 40.6366C50.6859 40.6366 49.305 36.5509 47.7842 32.8098C46.209 29.0609 35.1619 -3.8147e-06 35.1619 -3.8147e-06H34.6437L32.2188 6.19199C32.2706 6.30858 42.7607 33.6777 43.3592 35.2555C44.924 39.5251 44.5147 40.634 41.7114 40.634Z" fill="#1D2123"/>
<path d="M3.62709 54.3445C3.81049 54.3804 3.97576 54.4788 4.0948 54.6228C4.21383 54.7669 4.27927 54.9478 4.27997 55.1347C4.27997 55.6735 3.83436 55.9948 3.09857 55.9948H1.88867L1.95862 55.9689C2.00863 55.9502 2.05165 55.9165 2.08179 55.8725C2.11193 55.8284 2.12773 55.7761 2.12702 55.7228V53.233C2.12773 53.1796 2.11193 53.1274 2.08179 53.0833C2.05165 53.0392 2.00863 53.0056 1.95862 52.9869L1.88867 52.961H2.97681C3.55455 52.961 4.01312 53.0698 4.01312 53.7382C4.01137 53.8651 3.97433 53.9891 3.90616 54.0961C3.83798 54.2032 3.74136 54.2892 3.62709 54.3445ZM2.34983 53.0853V54.3004H3.06489C3.44574 54.3004 3.77995 54.202 3.77995 53.7279C3.77995 53.2537 3.45092 53.0853 3.07007 53.0853H2.34983ZM2.34983 55.8653H3.16852C3.5131 55.8653 4.0468 55.7124 4.0468 55.1295C4.0468 54.6113 3.70741 54.4248 3.16334 54.4248H2.34983V55.8653Z" fill="#1D2123"/>
<path d="M9.80956 55.4896L9.66966 55.9948H7.72656L7.79392 55.9689C7.84393 55.9502 7.88695 55.9165 7.91709 55.8725C7.94723 55.8284 7.96303 55.7761 7.96232 55.7228V53.233C7.96303 53.1796 7.94723 53.1274 7.91709 53.0833C7.88695 53.0392 7.84393 53.0056 7.79392 52.9869L7.72656 52.961H9.58675L9.61007 53.3418L9.54789 53.2252C9.52621 53.1834 9.49352 53.1482 9.45335 53.1236C9.41317 53.0989 9.36703 53.0857 9.3199 53.0853H8.1955V54.3807H8.92092C8.97163 54.3816 9.0215 54.3676 9.06433 54.3405C9.10716 54.3133 9.14107 54.2741 9.16186 54.2279L9.19295 54.1683V54.6865L9.16186 54.6269C9.14107 54.5806 9.10716 54.5414 9.06433 54.5143C9.0215 54.4871 8.97163 54.4731 8.92092 54.474H8.1955V55.8756H9.35358C9.41884 55.876 9.48319 55.8604 9.54101 55.8301C9.59883 55.7999 9.64834 55.7559 9.6852 55.702L9.80956 55.4896Z" fill="#1D2123"/>
<path d="M15.519 55.9948L15.6382 55.9508C15.6711 55.9391 15.6981 55.9148 15.7131 55.8832C15.7282 55.8516 15.7301 55.8154 15.7185 55.7824L15.2858 54.7797H14.1199L13.6847 55.7824C13.6682 55.8125 13.6639 55.8478 13.6725 55.881C13.6812 55.9142 13.7022 55.9429 13.7313 55.9612L13.8298 56.0052H13.2676L13.366 55.9612C13.4576 55.9189 13.5291 55.8427 13.5655 55.7487L14.7495 52.9766L15.9439 55.7617C15.9638 55.8129 15.9945 55.8593 16.0338 55.8977C16.0731 55.9361 16.1202 55.9657 16.1719 55.9845L16.2211 56.0052L15.519 55.9948ZM14.6847 53.4274L14.1666 54.6554H15.2288L14.6847 53.4274Z" fill="#1D2123"/>
<path d="M21.9804 52.961L21.9078 52.9973C21.8624 53.0177 21.8238 53.0508 21.7967 53.0926C21.7696 53.1344 21.7551 53.1832 21.755 53.233V54.9818C21.7543 55.2503 21.6473 55.5075 21.4575 55.6973C21.2677 55.8872 21.0104 55.9941 20.742 55.9948H20.5632C20.295 55.9941 20.038 55.8871 19.8486 55.6972C19.6592 55.5073 19.5528 55.25 19.5528 54.9818V53.233C19.5535 53.1796 19.5377 53.1274 19.5076 53.0833C19.4774 53.0392 19.4344 53.0056 19.3844 52.9869L19.3145 52.961H20.0166L19.9466 52.9869C19.8966 53.0056 19.8536 53.0392 19.8234 53.0833C19.7933 53.1274 19.7775 53.1796 19.7782 53.233V54.9818C19.7654 55.1964 19.8349 55.4078 19.9726 55.5729C20.1103 55.738 20.3058 55.8444 20.5192 55.8704H20.8352C21.0514 55.846 21.2507 55.742 21.3944 55.5787C21.538 55.4154 21.6158 55.2045 21.6125 54.987V53.2382C21.6124 53.1884 21.5979 53.1396 21.5708 53.0978C21.5437 53.056 21.5051 53.0229 21.4596 53.0024L21.3845 52.9662L21.9804 52.961Z" fill="#1D2123"/>
<path d="M28.0813 53.347L28.0192 53.2278C27.9971 53.1865 27.9643 53.1519 27.9241 53.1277C27.884 53.1035 27.838 53.0907 27.7912 53.0905H26.8689V55.7176C26.868 55.7707 26.8834 55.8227 26.913 55.8667C26.9427 55.9108 26.9851 55.9446 27.0347 55.9637L27.1046 55.9896H26.4025L26.4725 55.9637C26.5225 55.945 26.5655 55.9114 26.5956 55.8673C26.6258 55.8233 26.6416 55.771 26.6409 55.7176V53.0905H25.716C25.6695 53.0911 25.6241 53.1042 25.5845 53.1283C25.5448 53.1525 25.5124 53.1869 25.4906 53.2278L25.4258 53.347L25.4517 52.9662H28.058L28.0813 53.347Z" fill="#1D2123"/>
<path d="M34.4317 52.9713L34.3617 53.0024C34.2737 53.0415 34.1984 53.1043 34.1441 53.1838L33.1078 54.7383V55.715C33.1071 55.7684 33.1229 55.8207 33.153 55.8647C33.1831 55.9088 33.2262 55.9424 33.2762 55.9611L33.3435 55.987H32.644L32.7114 55.9611C32.7614 55.9424 32.8044 55.9088 32.8345 55.8647C32.8647 55.8207 32.8805 55.7684 32.8798 55.715V54.7331L31.8435 53.1786C31.7805 53.0869 31.6896 53.0178 31.5844 52.9817L31.5352 52.961H32.2347L32.087 53.0154C32.0777 53.0193 32.0695 53.0253 32.0628 53.0329C32.0562 53.0404 32.0513 53.0494 32.0485 53.0591C32.0458 53.0688 32.0453 53.079 32.047 53.0889C32.0487 53.0988 32.0527 53.1082 32.0585 53.1164L33.0352 54.5906L34.0042 53.1242C34.0123 53.1077 34.0136 53.0886 34.0078 53.0712C34.002 53.0537 33.9895 53.0393 33.9731 53.0309L33.8254 52.961L34.4317 52.9713Z" fill="#1D2123"/>
<path d="M45.4239 55.9611L45.4939 55.987H44.7918L44.8617 55.9611C44.9112 55.942 44.9537 55.9082 44.9834 55.8642C45.013 55.8201 45.0284 55.7681 45.0275 55.715V54.4714H43.0067V55.715C43.006 55.7684 43.0218 55.8207 43.052 55.8647C43.0821 55.9088 43.1251 55.9424 43.1751 55.9611L43.2451 55.987H42.543L42.6129 55.9611C42.6624 55.942 42.7049 55.9082 42.7346 55.8642C42.7642 55.8201 42.7796 55.7681 42.7787 55.715V53.2253C42.7796 53.1722 42.7642 53.1201 42.7346 53.0761C42.7049 53.0321 42.6624 52.9982 42.6129 52.9791L42.543 52.9532H43.2451L43.1751 52.9791C43.1251 52.9978 43.0821 53.0315 43.052 53.0755C43.0218 53.1196 43.006 53.1719 43.0067 53.2253V54.3471H45.0353V53.2253C45.0362 53.1722 45.0208 53.1201 44.9911 53.0761C44.9615 53.0321 44.919 52.9982 44.8695 52.9791L44.7995 52.9532H45.5017L45.4317 52.9791C45.3817 52.9978 45.3387 53.0315 45.3085 53.0755C45.2784 53.1196 45.2626 53.1719 45.2633 53.2253V55.715C45.262 55.7675 45.2767 55.8191 45.3053 55.863C45.334 55.907 45.3754 55.9412 45.4239 55.9611Z" fill="#1D2123"/>
<path d="M52.1035 54.4844C52.1035 55.4663 51.3263 55.9948 50.5283 55.9948C49.7304 55.9948 48.9531 55.4767 48.9531 54.4844C48.9531 53.4921 49.7304 52.9662 50.5283 52.9662C51.3263 52.9662 52.1035 53.4947 52.1035 54.4844ZM51.8704 54.4844C51.8622 54.2202 51.7764 53.9644 51.6237 53.7487C51.471 53.5331 51.2581 53.3672 51.0116 53.2718C50.7652 53.1765 50.4961 53.1558 50.238 53.2125C49.9799 53.2692 49.7442 53.4007 49.5604 53.5905C49.3765 53.7804 49.2527 54.0202 49.2044 54.28C49.1561 54.5398 49.1854 54.8081 49.2887 55.0513C49.392 55.2945 49.5646 55.502 49.7851 55.6477C50.0056 55.7933 50.2641 55.8708 50.5283 55.8704C50.7091 55.8731 50.8884 55.8388 51.0554 55.7695C51.2223 55.7002 51.3733 55.5975 51.4991 55.4676C51.6248 55.3377 51.7226 55.1835 51.7865 55.0144C51.8503 54.8453 51.8789 54.6649 51.8704 54.4844Z" fill="#1D2123"/>
<path d="M58.2284 52.961L58.1559 52.9973C58.1104 53.0177 58.0718 53.0508 58.0447 53.0926C58.0176 53.1344 58.0031 53.1832 58.003 53.233V54.9818C58.0023 55.2503 57.8954 55.5075 57.7056 55.6973C57.5157 55.8872 57.2585 55.9941 56.99 55.9948H56.8113C56.543 55.9941 56.286 55.8871 56.0966 55.6972C55.9072 55.5073 55.8009 55.25 55.8009 54.9818V53.233C55.8016 53.1796 55.7858 53.1274 55.7556 53.0833C55.7255 53.0392 55.6825 53.0056 55.6324 52.9869L55.5625 52.961H56.2646L56.1947 52.9869C56.1446 53.0056 56.1016 53.0392 56.0715 53.0833C56.0413 53.1274 56.0255 53.1796 56.0263 53.233V54.9818C56.0135 55.1964 56.083 55.4078 56.2207 55.5729C56.3583 55.738 56.5538 55.8444 56.7672 55.8704H57.0833C57.2994 55.846 57.4987 55.742 57.6424 55.5787C57.7861 55.4154 57.8638 55.2045 57.8605 54.987V53.2382C57.8604 53.1884 57.846 53.1396 57.8188 53.0978C57.7917 53.056 57.7531 53.0229 57.7077 53.0024L57.6325 52.9662L58.2284 52.961Z" fill="#1D2123"/>
<path d="M62.8027 54.3212C63.2043 54.5336 63.624 54.6942 63.624 55.2098C63.624 55.6736 63.1059 56 62.5411 56C62.2683 56.0076 62.0021 55.9155 61.7923 55.7409C61.781 55.7328 61.7674 55.7283 61.7535 55.728C61.7421 55.7278 61.731 55.7309 61.7214 55.7369C61.7117 55.7429 61.704 55.7514 61.6991 55.7617L61.668 55.8109V55.3679L61.7612 55.5233C61.8519 55.6411 61.9703 55.7344 62.106 55.795C62.2417 55.8556 62.3903 55.8816 62.5385 55.8705C62.9634 55.8705 63.3779 55.6425 63.3779 55.2046C63.3779 54.8963 62.9685 54.7253 62.6136 54.531C62.2587 54.3367 61.7457 54.1217 61.7457 53.7279C61.7457 53.2641 62.155 52.9506 62.7224 52.9506C62.9208 52.9537 63.1161 52.9996 63.295 53.0854C63.3043 53.0877 63.3141 53.0877 63.3235 53.0854C63.3342 53.0856 63.3447 53.0827 63.3539 53.0773C63.363 53.0718 63.3704 53.0638 63.3753 53.0543L63.4142 52.9895V53.4351L63.3598 53.3419C63.2906 53.2401 63.194 53.16 63.0812 53.111C62.9684 53.0619 62.844 53.0458 62.7224 53.0646C62.3079 53.0646 61.9763 53.2719 61.9763 53.5595C61.9763 53.9688 62.4556 54.101 62.8053 54.2901L62.8027 54.3212Z" fill="#1D2123"/>
<path d="M69.1735 55.4896L69.0336 55.9948H67.0879L67.1578 55.9689C67.2078 55.9502 67.2509 55.9165 67.281 55.8725C67.3111 55.8284 67.3269 55.7761 67.3262 55.7228V53.233C67.3269 53.1796 67.3111 53.1274 67.281 53.0833C67.2509 53.0392 67.2078 53.0056 67.1578 52.9869L67.0879 52.961H68.9559L68.9792 53.3418L68.917 53.2252C68.8953 53.1834 68.8626 53.1482 68.8224 53.1236C68.7823 53.0989 68.7361 53.0857 68.689 53.0853H67.5568V54.3807H68.2848C68.3356 54.3816 68.3854 54.3676 68.4282 54.3405C68.4711 54.3133 68.505 54.2741 68.5258 54.2279L68.5543 54.1683V54.6865L68.5258 54.6269C68.505 54.5806 68.4711 54.5414 68.4282 54.5143C68.3854 54.4871 68.3356 54.4731 68.2848 54.474H67.5568V55.8756H68.7175C68.7828 55.876 68.8471 55.8604 68.9049 55.8301C68.9627 55.7999 69.0122 55.7559 69.0491 55.702L69.1735 55.4896Z" fill="#1D2123"/>
</g>
<defs>
<clipPath id="clip0_237_3161">
<rect width="69.1638" height="56" fill="white"/>
</clipPath>
</defs>
</svg>
