<svg width="72" height="30" viewBox="0 0 72 30" fill="none" xmlns="http://www.w3.org/2000/svg">
<rect width="72" height="30" rx="4" fill="#2E3A59"/>
<path d="M24.6018 13L21.8298 10.102V13H20.5338V6.61H21.8298V9.319L24.1338 6.61H25.7448L23.1168 9.679L26.2938 13H24.6018ZM26.0808 13L28.8348 6.61H29.9958L32.7588 13H31.3908L30.7698 11.542H28.0428L27.4308 13H26.0808ZM29.4108 8.329L28.5288 10.399H30.2838L29.4108 8.329ZM33.4713 13V6.61H35.9193C36.5013 6.61 36.9723 6.79 37.3323 7.15C37.6983 7.51 37.8813 7.96 37.8813 8.5C37.8813 9.34 37.4433 9.895 36.5673 10.165L38.8623 13H37.2873L35.0913 10.309H34.7763V13H33.4713ZM34.7763 9.193H35.7663C36.0183 9.193 36.2163 9.133 36.3603 9.013C36.5103 8.887 36.5853 8.716 36.5853 8.5C36.5853 8.284 36.5103 8.116 36.3603 7.996C36.2163 7.87 36.0183 7.807 35.7663 7.807H34.7763V9.193ZM42.0916 13.108C41.1796 13.108 40.3996 12.787 39.7516 12.145C39.1096 11.497 38.7886 10.717 38.7886 9.805C38.7886 8.893 39.1096 8.116 39.7516 7.474C40.3996 6.826 41.1796 6.502 42.0916 6.502C43.0036 6.502 43.7806 6.826 44.4226 7.474C45.0706 8.116 45.3946 8.893 45.3946 9.805C45.3946 10.447 45.2206 11.044 44.8726 11.596L46.5736 13H44.7376L44.0716 12.451C43.5016 12.889 42.8416 13.108 42.0916 13.108ZM42.0916 11.848C42.4456 11.848 42.7636 11.764 43.0456 11.596L42.1096 10.813L42.8566 9.913L43.8556 10.75C44.0056 10.456 44.0806 10.141 44.0806 9.805C44.0806 9.241 43.8856 8.761 43.4956 8.365C43.1116 7.963 42.6436 7.762 42.0916 7.762C41.5396 7.762 41.0686 7.963 40.6786 8.365C40.2946 8.761 40.1026 9.241 40.1026 9.805C40.1026 10.369 40.2946 10.852 40.6786 11.254C41.0686 11.65 41.5396 11.848 42.0916 11.848ZM48.1317 11.254C48.5217 11.65 48.9927 11.848 49.5447 11.848C50.0967 11.848 50.5647 11.65 50.9487 11.254C51.3387 10.852 51.5337 10.369 51.5337 9.805C51.5337 9.241 51.3387 8.761 50.9487 8.365C50.5647 7.963 50.0967 7.762 49.5447 7.762C48.9927 7.762 48.5217 7.963 48.1317 8.365C47.7477 8.761 47.5557 9.241 47.5557 9.805C47.5557 10.369 47.7477 10.852 48.1317 11.254ZM51.8757 12.145C51.2337 12.787 50.4567 13.108 49.5447 13.108C48.6327 13.108 47.8527 12.787 47.2047 12.145C46.5627 11.497 46.2417 10.717 46.2417 9.805C46.2417 8.893 46.5627 8.116 47.2047 7.474C47.8527 6.826 48.6327 6.502 49.5447 6.502C50.4567 6.502 51.2337 6.826 51.8757 7.474C52.5237 8.116 52.8477 8.893 52.8477 9.805C52.8477 10.717 52.5237 11.497 51.8757 12.145ZM23.9302 18.231C24.3562 18.639 24.5692 19.149 24.5692 19.761C24.5692 20.373 24.3562 20.886 23.9302 21.3C23.5042 21.708 22.9702 21.912 22.3282 21.912H21.5092V24H20.2042V17.61H22.3282C22.9702 17.61 23.5042 17.817 23.9302 18.231ZM23.0302 20.427C23.2102 20.253 23.3002 20.031 23.3002 19.761C23.3002 19.491 23.2102 19.269 23.0302 19.095C22.8502 18.921 22.6102 18.834 22.3102 18.834H21.5092V20.688H22.3102C22.6102 20.688 22.8502 20.601 23.0302 20.427ZM28.0505 24.108C27.2765 24.108 26.6495 23.868 26.1695 23.388C25.6895 22.908 25.4495 22.272 25.4495 21.48V17.61H26.7545V21.498C26.7545 21.918 26.8715 22.248 27.1055 22.488C27.3395 22.728 27.6545 22.848 28.0505 22.848C28.4465 22.848 28.7615 22.728 28.9955 22.488C29.2295 22.248 29.3465 21.918 29.3465 21.498V17.61H30.6515V21.48C30.6515 22.266 30.4085 22.902 29.9225 23.388C29.4365 23.868 28.8125 24.108 28.0505 24.108ZM31.9991 24V17.61H33.3041V22.758H36.0401V24H31.9991ZM38.8939 24.108C38.1679 24.108 37.5829 23.901 37.1389 23.487C36.6949 23.067 36.4609 22.578 36.4369 22.02H37.7419C37.7899 22.302 37.9189 22.521 38.1289 22.677C38.3389 22.827 38.5939 22.902 38.8939 22.902C39.1639 22.902 39.3829 22.845 39.5509 22.731C39.7189 22.611 39.8029 22.452 39.8029 22.254C39.8029 21.9 39.5179 21.642 38.9479 21.48L38.2729 21.282C37.7509 21.132 37.3429 20.898 37.0489 20.58C36.7549 20.262 36.6049 19.866 36.5989 19.392C36.5989 18.81 36.7939 18.351 37.1839 18.015C37.5739 17.673 38.0929 17.502 38.7409 17.502C39.3949 17.502 39.9259 17.7 40.3339 18.096C40.7419 18.486 40.9579 18.936 40.9819 19.446H39.6859C39.6199 19.194 39.4999 19.008 39.3259 18.888C39.1519 18.768 38.9569 18.708 38.7409 18.708C38.5009 18.708 38.3029 18.762 38.1469 18.87C37.9969 18.972 37.9189 19.116 37.9129 19.302C37.9069 19.494 37.9699 19.65 38.1019 19.77C38.2339 19.89 38.4379 19.989 38.7139 20.067L39.4609 20.274C40.5649 20.58 41.1169 21.225 41.1169 22.209C41.1169 22.761 40.9099 23.217 40.4959 23.577C40.0879 23.931 39.5539 24.108 38.8939 24.108ZM44.7058 24.108C43.9318 24.108 43.3048 23.868 42.8248 23.388C42.3448 22.908 42.1048 22.272 42.1048 21.48V17.61H43.4098V21.498C43.4098 21.918 43.5268 22.248 43.7608 22.488C43.9948 22.728 44.3098 22.848 44.7058 22.848C45.1018 22.848 45.4168 22.728 45.6508 22.488C45.8848 22.248 46.0018 21.918 46.0018 21.498V17.61H47.3068V21.48C47.3068 22.266 47.0638 22.902 46.5778 23.388C46.0918 23.868 45.4678 24.108 44.7058 24.108ZM48.2854 24V23.109L51.3364 18.852H48.3394V17.61H53.1004V18.501L50.0314 22.758H53.1634V24H48.2854Z" fill="white"/>
</svg>
