<svg width="66" height="66" viewBox="0 0 66 66" fill="none" xmlns="http://www.w3.org/2000/svg">
<path d="M30.9222 1.30688C32.0329 0.0736944 33.9671 0.0736945 35.0778 1.30688L35.3075 1.56194C36.2278 2.58374 37.7545 2.78473 38.9079 2.03594L39.1958 1.84903C40.5878 0.945338 42.4561 1.44592 43.2098 2.92457L43.3656 3.23039C43.9901 4.45557 45.4128 5.04483 46.7207 4.62009L47.0472 4.51407C48.6257 4.00145 50.3007 4.96851 50.646 6.59184L50.7174 6.92759C51.0035 8.27265 52.2251 9.21004 53.5984 9.13829L53.9412 9.12037C55.5986 9.03377 56.9662 10.4014 56.8796 12.0588L56.8617 12.4016C56.79 13.7749 57.7273 14.9965 59.0724 15.2826L59.4082 15.354C61.0315 15.6993 61.9985 17.3743 61.4859 18.9528L61.3799 19.2793C60.9552 20.5872 61.5444 22.0099 62.7696 22.6344L63.0754 22.7902C64.5541 23.5439 65.0547 25.4122 64.151 26.8042L63.9641 27.0921C63.2153 28.2455 63.4163 29.7722 64.4381 30.6925L64.6931 30.9222C65.9263 32.0329 65.9263 33.9671 64.6931 35.0778L64.4381 35.3075C63.4163 36.2278 63.2153 37.7545 63.9641 38.9079L64.151 39.1958C65.0547 40.5878 64.5541 42.4561 63.0754 43.2098L62.7696 43.3656C61.5444 43.9901 60.9552 45.4128 61.3799 46.7207L61.4859 47.0472C61.9985 48.6257 61.0315 50.3007 59.4082 50.646L59.0724 50.7174C57.7273 51.0035 56.79 52.2251 56.8617 53.5984L56.8796 53.9412C56.9662 55.5986 55.5986 56.9662 53.9412 56.8796L53.5984 56.8617C52.2251 56.79 51.0035 57.7273 50.7174 59.0724L50.646 59.4082C50.3007 61.0315 48.6257 61.9985 47.0472 61.4859L46.7207 61.3799C45.4128 60.9552 43.9901 61.5444 43.3656 62.7696L43.2098 63.0754C42.4561 64.5541 40.5878 65.0547 39.1958 64.151L38.9079 63.9641C37.7545 63.2153 36.2278 63.4163 35.3075 64.4381L35.0778 64.6931C33.9671 65.9263 32.0329 65.9263 30.9222 64.6931L30.6925 64.4381C29.7722 63.4163 28.2455 63.2153 27.0921 63.9641L26.8042 64.151C25.4122 65.0547 23.5439 64.5541 22.7902 63.0754L22.6344 62.7696C22.0099 61.5444 20.5872 60.9552 19.2793 61.3799L18.9528 61.4859C17.3743 61.9985 15.6993 61.0315 15.354 59.4082L15.2826 59.0724C14.9965 57.7273 13.7749 56.79 12.4016 56.8617L12.0588 56.8796C10.4014 56.9662 9.03377 55.5986 9.12037 53.9412L9.13829 53.5984C9.21004 52.2251 8.27266 51.0035 6.92759 50.7174L6.59184 50.646C4.96851 50.3007 4.00145 48.6257 4.51407 47.0472L4.62009 46.7207C5.04483 45.4128 4.45557 43.9901 3.23039 43.3656L2.92457 43.2098C1.44592 42.4561 0.945337 40.5878 1.84903 39.1958L2.03594 38.9079C2.78473 37.7545 2.58374 36.2278 1.56194 35.3075L1.30688 35.0778C0.0736951 33.9671 0.0736932 32.0329 1.30688 30.9222L1.56194 30.6925C2.58374 29.7722 2.78473 28.2455 2.03594 27.0921L1.84903 26.8042C0.945339 25.4122 1.44592 23.5439 2.92457 22.7902L3.23039 22.6344C4.45557 22.0099 5.04483 20.5872 4.62009 19.2793L4.51407 18.9528C4.00145 17.3743 4.96851 15.6993 6.59184 15.354L6.92759 15.2826C8.27265 14.9965 9.21004 13.7749 9.13829 12.4016L9.12037 12.0588C9.03377 10.4014 10.4014 9.03377 12.0588 9.12037L12.4016 9.13829C13.7749 9.21004 14.9965 8.27266 15.2826 6.92759L15.354 6.59184C15.6993 4.96851 17.3743 4.00145 18.9528 4.51407L19.2793 4.62009C20.5872 5.04483 22.0099 4.45557 22.6344 3.23039L22.7902 2.92457C23.5439 1.44593 25.4122 0.945338 26.8042 1.84903L27.0921 2.03594C28.2455 2.78473 29.7722 2.58374 30.6925 1.56194L30.9222 1.30688Z" fill="url(#paint0_radial_2022_41414)"/>
<defs>
<radialGradient id="paint0_radial_2022_41414" cx="0" cy="0" r="1" gradientUnits="userSpaceOnUse" gradientTransform="translate(33 33) rotate(90) scale(34)">
<stop stop-color="#FFBF42"/>
<stop offset="1" stop-color="#F18E28"/>
</radialGradient>
</defs>
</svg>
