<svg width="20" height="10" viewBox="0 0 20 10" fill="none" xmlns="http://www.w3.org/2000/svg">
<path d="M15 10H12.5C12.1 10 11.7 9.70297 11.7 9.20792C11.7 8.81188 12 8.41584 12.5 8.41584H15C15.5 8.41584 15.9 8.31683 16.3 8.11881C16.7 7.92079 17.1 7.72277 17.4 7.32673C17.7 7.0297 18 6.63366 18.1 6.23762C18.3 5.84158 18.4 5.34653 18.4 4.95049C18.4 4.55446 18.3 4.05941 18.1 3.66337C17.9 3.26733 17.7 2.87129 17.4 2.57426C17.1 2.27723 16.8 1.9802 16.3 1.88119C15.9 1.68317 15.4 1.58416 15 1.58416H12.5C12.1 1.58416 11.7 1.28713 11.7 0.792079C11.7 0.29703 12 0 12.5 0H15C15.7 0 16.3 0.0990099 16.9 0.39604C17.5 0.693069 18 0.990099 18.5 1.48515C19 1.9802 19.3 2.47525 19.6 3.06931C19.9 3.66337 20 4.35644 20 4.95049C20 5.54455 19.9 6.33663 19.6 6.93069C19.3 7.52475 19 8.11881 18.5 8.51485C18 9.0099 17.5 9.30693 16.9 9.60396C16.3 9.90099 15.7 10 15 10ZM7.5 10H4.9C4.2 10 3.6 9.90099 3 9.60396C2.4 9.30693 1.9 9.0099 1.4 8.51485C0.5 7.62376 0 6.33663 0 5.0495C0 3.76238 0.5 2.47525 1.5 1.58416C2.4 0.594059 3.6 0.0990099 4.9 0.0990099H7.4C7.8 0.0990099 8.2 0.39604 8.2 0.891089C8.2 1.38614 7.9 1.58416 7.5 1.58416H4.9C4 1.58416 3.1 1.9802 2.5 2.57426C1.8 3.26733 1.5 4.05941 1.5 5.0495C1.5 6.0396 1.9 6.83168 2.5 7.52475C2.8 7.82178 3.2 8.11881 3.6 8.31683C4 8.41584 4.5 8.51485 4.9 8.51485H7.4C7.8 8.51485 8.2 8.81188 8.2 9.30693C8.2 9.60396 7.9 10 7.5 10Z" fill="#2D9CDB"/>
<path d="M13.2999 5.74296H6.5999C6.1999 5.74296 5.8999 5.44593 5.8999 5.04989C5.8999 4.65385 6.1999 4.25781 6.6999 4.25781H13.3999C13.7999 4.25781 14.1999 4.55484 14.1999 5.04989C14.0999 5.44593 13.7999 5.74296 13.2999 5.74296Z" fill="#2D9CDB"/>
</svg>
