<svg width="72" height="30" viewBox="0 0 72 30" fill="none" xmlns="http://www.w3.org/2000/svg">
<rect width="72" height="30" rx="4" fill="#7B61FF"/>
<path d="M20.095 13.108C19.369 13.108 18.784 12.901 18.34 12.487C17.896 12.067 17.662 11.578 17.638 11.02H18.943C18.991 11.302 19.12 11.521 19.33 11.677C19.54 11.827 19.795 11.902 20.095 11.902C20.365 11.902 20.584 11.845 20.752 11.731C20.92 11.611 21.004 11.452 21.004 11.254C21.004 10.9 20.719 10.642 20.149 10.48L19.474 10.282C18.952 10.132 18.544 9.898 18.25 9.58C17.956 9.262 17.806 8.866 17.8 8.392C17.8 7.81 17.995 7.351 18.385 7.015C18.775 6.673 19.294 6.502 19.942 6.502C20.596 6.502 21.127 6.7 21.535 7.096C21.943 7.486 22.159 7.936 22.183 8.446H20.887C20.821 8.194 20.701 8.008 20.527 7.888C20.353 7.768 20.158 7.708 19.942 7.708C19.702 7.708 19.504 7.762 19.348 7.87C19.198 7.972 19.12 8.116 19.114 8.302C19.108 8.494 19.171 8.65 19.303 8.77C19.435 8.89 19.639 8.989 19.915 9.067L20.662 9.274C21.766 9.58 22.318 10.225 22.318 11.209C22.318 11.761 22.111 12.217 21.697 12.577C21.289 12.931 20.755 13.108 20.095 13.108ZM25.907 13.108C25.133 13.108 24.506 12.868 24.026 12.388C23.546 11.908 23.306 11.272 23.306 10.48V6.61H24.611V10.498C24.611 10.918 24.728 11.248 24.962 11.488C25.196 11.728 25.511 11.848 25.907 11.848C26.303 11.848 26.618 11.728 26.852 11.488C27.086 11.248 27.203 10.918 27.203 10.498V6.61H28.508V10.48C28.508 11.266 28.265 11.902 27.779 12.388C27.293 12.868 26.669 13.108 25.907 13.108ZM24.854 6.052C24.662 6.052 24.5 5.986 24.368 5.854C24.236 5.722 24.17 5.563 24.17 5.377C24.17 5.185 24.236 5.023 24.368 4.891C24.5 4.759 24.662 4.693 24.854 4.693C25.04 4.693 25.199 4.759 25.331 4.891C25.463 5.023 25.529 5.185 25.529 5.377C25.529 5.563 25.463 5.722 25.331 5.854C25.199 5.986 25.04 6.052 24.854 6.052ZM26.969 6.052C26.777 6.052 26.615 5.986 26.483 5.854C26.351 5.722 26.285 5.563 26.285 5.377C26.285 5.185 26.351 5.023 26.483 4.891C26.615 4.759 26.777 4.693 26.969 4.693C27.155 4.693 27.314 4.759 27.446 4.891C27.578 5.023 27.644 5.185 27.644 5.377C27.644 5.563 27.578 5.722 27.446 5.854C27.314 5.986 27.155 6.052 26.969 6.052ZM29.8555 13V6.61H32.3035C32.8855 6.61 33.3565 6.79 33.7165 7.15C34.0825 7.51 34.2655 7.96 34.2655 8.5C34.2655 9.34 33.8275 9.895 32.9515 10.165L35.2465 13H33.6715L31.4755 10.309H31.1605V13H29.8555ZM31.1605 9.193H32.1505C32.4025 9.193 32.6005 9.133 32.7445 9.013C32.8945 8.887 32.9695 8.716 32.9695 8.5C32.9695 8.284 32.8945 8.116 32.7445 7.996C32.6005 7.87 32.4025 7.807 32.1505 7.807H31.1605V9.193ZM40.8516 12.154C40.2216 12.79 39.4356 13.108 38.4936 13.108C37.5516 13.108 36.7656 12.79 36.1356 12.154C35.5056 11.512 35.1906 10.729 35.1906 9.805V9.355H40.4466C40.3206 8.845 40.0806 8.452 39.7266 8.176C39.3786 7.9 38.9646 7.762 38.4846 7.762C38.1426 7.762 37.8306 7.828 37.5486 7.96C37.2726 8.086 37.0566 8.266 36.9006 8.5H35.3976C35.6136 7.912 36.0126 7.432 36.5946 7.06C37.1826 6.688 37.8156 6.502 38.4936 6.502C39.4116 6.502 40.1916 6.82 40.8336 7.456C41.4756 8.092 41.7966 8.875 41.7966 9.805C41.7966 10.729 41.4816 11.512 40.8516 12.154ZM38.5116 11.848C38.9556 11.848 39.3486 11.731 39.6906 11.497C40.0326 11.257 40.2666 10.924 40.3926 10.498H36.6216C36.7716 10.93 37.0086 11.263 37.3326 11.497C37.6626 11.731 38.0556 11.848 38.5116 11.848ZM43.7611 13V7.852H42.0601V6.61H46.7941V7.852H45.0751V13H43.7611ZM47.6973 13V6.61H49.0023V11.758H51.7383V13H47.6973ZM52.6544 13V6.61H53.9594V13H52.6544ZM53.3114 6.052C53.1194 6.052 52.9574 5.986 52.8254 5.854C52.6934 5.722 52.6274 5.563 52.6274 5.377C52.6274 5.185 52.6934 5.023 52.8254 4.891C52.9574 4.759 53.1194 4.693 53.3114 4.693C53.4974 4.693 53.6564 4.759 53.7884 4.891C53.9204 5.023 53.9864 5.185 53.9864 5.377C53.9864 5.563 53.9204 5.722 53.7884 5.854C53.6564 5.986 53.4974 6.052 53.3114 6.052ZM11.9737 24.108C11.0137 24.108 10.2157 23.79 9.57969 23.154C8.94369 22.518 8.62569 21.735 8.62569 20.805C8.62569 19.875 8.94369 19.092 9.57969 18.456C10.2157 17.82 11.0137 17.502 11.9737 17.502C12.6997 17.502 13.3507 17.715 13.9267 18.141C14.5087 18.561 14.8897 19.11 15.0697 19.788H13.6567C13.5307 19.476 13.3087 19.227 12.9907 19.041C12.6787 18.855 12.3397 18.762 11.9737 18.762C11.3737 18.762 10.8847 18.957 10.5067 19.347C10.1287 19.737 9.93969 20.223 9.93969 20.805C9.93969 21.387 10.1287 21.873 10.5067 22.263C10.8847 22.653 11.3737 22.848 11.9737 22.848C12.3397 22.848 12.6787 22.755 12.9907 22.569C13.3087 22.383 13.5307 22.134 13.6567 21.822H15.0697C14.8897 22.5 14.5087 23.052 13.9267 23.478C13.3507 23.898 12.6997 24.108 11.9737 24.108ZM10.8667 25.836V25.269C11.0467 25.371 11.2747 25.422 11.5507 25.422C11.9227 25.422 12.1087 25.323 12.1087 25.125C12.1087 24.957 11.9767 24.873 11.7127 24.873C11.5807 24.873 11.4577 24.903 11.3437 24.963L11.0287 24.792L11.5237 23.973H12.0817L11.8027 24.432C11.9707 24.39 12.1117 24.369 12.2257 24.369C12.4477 24.369 12.6307 24.432 12.7747 24.558C12.9187 24.684 12.9907 24.858 12.9907 25.08C12.9907 25.338 12.8677 25.551 12.6217 25.719C12.3757 25.887 12.0907 25.971 11.7667 25.971C11.3947 25.971 11.0947 25.926 10.8667 25.836ZM15.1482 24L17.9022 17.61H19.0632L21.8262 24H20.4582L19.8372 22.542H17.1102L16.4982 24H15.1482ZM18.4782 19.329L17.5962 21.399H19.3512L18.4782 19.329ZM23.0936 24V18.852H21.3926V17.61H26.1266V18.852H24.4076V24H23.0936ZM27.0298 24V17.61H29.1358C30.0538 17.61 30.8308 17.919 31.4668 18.537C32.1028 19.155 32.4208 19.911 32.4208 20.805C32.4208 21.699 32.1028 22.455 31.4668 23.073C30.8308 23.691 30.0538 24 29.1358 24H27.0298ZM28.3348 22.803H29.1358C29.7178 22.803 30.1918 22.611 30.5578 22.227C30.9238 21.843 31.1068 21.369 31.1068 20.805C31.1068 20.241 30.9238 19.767 30.5578 19.383C30.1918 18.999 29.7178 18.807 29.1358 18.807H28.3348V22.803ZM33.4722 24V17.61H34.7772V24H33.4722ZM36.1968 24V17.61H38.6448C39.2268 17.61 39.6978 17.79 40.0578 18.15C40.4238 18.51 40.6068 18.96 40.6068 19.5C40.6068 20.34 40.1688 20.895 39.2928 21.165L41.5878 24H40.0128L37.8168 21.309H37.5018V24H36.1968ZM37.5018 20.193H38.4918C38.7438 20.193 38.9418 20.133 39.0858 20.013C39.2358 19.887 39.3108 19.716 39.3108 19.5C39.3108 19.284 39.2358 19.116 39.0858 18.996C38.9418 18.87 38.7438 18.807 38.4918 18.807H37.5018V20.193ZM42.1031 24V17.61H43.4081V24H42.1031ZM44.8277 24V17.61H46.1327V22.758H48.8687V24H44.8277ZM49.7847 17.61H50.9727L53.0517 20.463L55.1307 17.61H56.3187V24H55.0137V19.842L53.0517 22.533L51.0897 19.842V24H49.7847V17.61ZM57.0368 24L59.7908 17.61H60.9518L63.7148 24H62.3468L61.7258 22.542H58.9988L58.3868 24H57.0368ZM60.3668 19.329L59.4848 21.399H61.2398L60.3668 19.329Z" fill="white"/>
</svg>
