<svg width="137" height="31" viewBox="0 0 137 31" fill="none" xmlns="http://www.w3.org/2000/svg">
<rect width="137" height="24" rx="4" fill="#1D2123"/>
<path d="M68.866 29.5C68.4811 30.1667 67.5189 30.1667 67.134 29.5L63.6699 23.5C63.285 22.8333 63.7661 22 64.5359 22H71.4641C72.2339 22 72.715 22.8333 72.3301 23.5L68.866 29.5Z" fill="#1D2123"/>
<path d="M31.4757 16V7.48H32.5917V14.944H36.7077V16H31.4757ZM38.9262 8.188C38.7902 8.324 38.6182 8.392 38.4102 8.392C38.2022 8.392 38.0262 8.324 37.8822 8.188C37.7382 8.044 37.6662 7.868 37.6662 7.66C37.6662 7.46 37.7382 7.288 37.8822 7.144C38.0262 7 38.2022 6.928 38.4102 6.928C38.6182 6.928 38.7902 7 38.9262 7.144C39.0622 7.288 39.1302 7.46 39.1302 7.66C39.1302 7.868 39.0622 8.044 38.9262 8.188ZM37.8822 16V10H38.9142V16H37.8822ZM40.8704 16V10H41.9024V10.924C42.3104 10.228 42.9464 9.88 43.8104 9.88C44.4904 9.88 45.0384 10.1 45.4544 10.54C45.8704 10.98 46.0784 11.568 46.0784 12.304V16H45.0584V12.46C45.0584 11.956 44.9304 11.56 44.6744 11.272C44.4184 10.976 44.0744 10.828 43.6424 10.828C43.1464 10.828 42.7304 11.024 42.3944 11.416C42.0664 11.808 41.9024 12.344 41.9024 13.024V16H40.8704ZM52.2208 16L48.9688 13V16H47.9368V7H48.9688V12.34L51.5848 10H52.9528L50.0008 12.652L53.6128 16H52.2208ZM58.3805 18.508H57.2285L58.5365 15.688L55.9085 10H57.0485L59.1125 14.56L61.1645 10H62.3165L58.3805 18.508ZM65.7018 16.12C64.8698 16.12 64.1698 15.816 63.6018 15.208C63.0418 14.6 62.7618 13.864 62.7618 13C62.7618 12.136 63.0418 11.4 63.6018 10.792C64.1698 10.184 64.8698 9.88 65.7018 9.88C66.1418 9.88 66.5498 9.98 66.9258 10.18C67.3098 10.372 67.6058 10.62 67.8138 10.924V10H68.8458V16H67.8138V15.076C67.6058 15.38 67.3098 15.632 66.9258 15.832C66.5498 16.024 66.1418 16.12 65.7018 16.12ZM65.8578 15.172C66.4498 15.172 66.9378 14.964 67.3218 14.548C67.7058 14.132 67.8978 13.616 67.8978 13C67.8978 12.384 67.7058 11.868 67.3218 11.452C66.9378 11.036 66.4498 10.828 65.8578 10.828C65.2578 10.828 64.7658 11.036 64.3818 11.452C63.9978 11.868 63.8058 12.384 63.8058 13C63.8058 13.616 63.9978 14.132 64.3818 14.548C64.7658 14.964 65.2578 15.172 65.8578 15.172ZM70.7884 16V10H71.8204V11.164C71.9324 10.796 72.1484 10.5 72.4684 10.276C72.7964 10.052 73.1404 9.94 73.5004 9.94C73.6764 9.94 73.8324 9.956 73.9684 9.988V11.056C73.8244 10.992 73.6364 10.96 73.4044 10.96C72.9884 10.96 72.6204 11.14 72.3004 11.5C71.9804 11.86 71.8204 12.368 71.8204 13.024V16H70.7884ZM77.4557 16.12C76.6237 16.12 75.9237 15.816 75.3557 15.208C74.7957 14.6 74.5157 13.864 74.5157 13C74.5157 12.136 74.7957 11.4 75.3557 10.792C75.9237 10.184 76.6237 9.88 77.4557 9.88C77.8957 9.88 78.3037 9.98 78.6797 10.18C79.0637 10.372 79.3597 10.62 79.5677 10.924V10H80.5997V16H79.5677V15.076C79.3597 15.38 79.0637 15.632 78.6797 15.832C78.3037 16.024 77.8957 16.12 77.4557 16.12ZM77.6117 15.172C78.2037 15.172 78.6917 14.964 79.0757 14.548C79.4597 14.132 79.6517 13.616 79.6517 13C79.6517 12.384 79.4597 11.868 79.0757 11.452C78.6917 11.036 78.2037 10.828 77.6117 10.828C77.0117 10.828 76.5197 11.036 76.1357 11.452C75.7517 11.868 75.5597 12.384 75.5597 13C75.5597 13.616 75.7517 14.132 76.1357 14.548C76.5197 14.964 77.0117 15.172 77.6117 15.172ZM85.0143 16.12C84.1823 16.12 83.4823 15.816 82.9143 15.208C82.3543 14.6 82.0743 13.864 82.0743 13C82.0743 12.136 82.3543 11.4 82.9143 10.792C83.4823 10.184 84.1823 9.88 85.0143 9.88C85.4543 9.88 85.8623 9.98 86.2383 10.18C86.6223 10.372 86.9183 10.62 87.1263 10.924V7H88.1583V16H87.1263V15.076C86.9183 15.38 86.6223 15.632 86.2383 15.832C85.8623 16.024 85.4543 16.12 85.0143 16.12ZM85.1703 15.172C85.7623 15.172 86.2503 14.964 86.6343 14.548C87.0183 14.132 87.2103 13.616 87.2103 13C87.2103 12.384 87.0183 11.868 86.6343 11.452C86.2503 11.036 85.7623 10.828 85.1703 10.828C84.5703 10.828 84.0783 11.036 83.6943 11.452C83.3103 11.868 83.1183 12.384 83.1183 13C83.1183 13.616 83.3103 14.132 83.6943 14.548C84.0783 14.964 84.5703 15.172 85.1703 15.172ZM90.1009 16V10H91.1329V16H90.1009ZM93.0892 16V7H94.1212V16H93.0892ZM98.5495 16.12C97.7175 16.12 97.0175 15.816 96.4495 15.208C95.8895 14.6 95.6095 13.864 95.6095 13C95.6095 12.136 95.8895 11.4 96.4495 10.792C97.0175 10.184 97.7175 9.88 98.5495 9.88C98.9895 9.88 99.3975 9.98 99.7735 10.18C100.157 10.372 100.453 10.62 100.661 10.924V7H101.693V16H100.661V15.076C100.453 15.38 100.157 15.632 99.7735 15.832C99.3975 16.024 98.9895 16.12 98.5495 16.12ZM98.7055 15.172C99.2975 15.172 99.7855 14.964 100.169 14.548C100.553 14.132 100.745 13.616 100.745 13C100.745 12.384 100.553 11.868 100.169 11.452C99.7855 11.036 99.2975 10.828 98.7055 10.828C98.1055 10.828 97.6135 11.036 97.2295 11.452C96.8455 11.868 96.6535 12.384 96.6535 13C96.6535 13.616 96.8455 14.132 97.2295 14.548C97.6135 14.964 98.1055 15.172 98.7055 15.172ZM103.636 16V10H104.668V16H103.636Z" fill="white"/>
</svg>
