<svg width="53" height="26" viewBox="0 0 53 26" fill="none" xmlns="http://www.w3.org/2000/svg">
<path d="M6.95594 0.275999C7.81194 0.275999 8.56394 0.455999 9.21194 0.816C9.85994 1.176 10.3599 1.688 10.7119 2.352C11.0719 3.016 11.2519 3.796 11.2519 4.692C11.2519 5.58 11.0719 6.36 10.7119 7.032C10.3599 7.696 9.85994 8.208 9.21194 8.568C8.56394 8.928 7.81194 9.108 6.95594 9.108C6.09994 9.108 5.35194 8.932 4.71194 8.58C4.07194 8.228 3.57594 7.724 3.22394 7.068C2.87194 6.412 2.69594 5.644 2.69594 4.764C2.69594 4.604 2.71194 4.38 2.74394 4.092H8.53994C8.50794 3.62 8.34394 3.264 8.04794 3.024C7.75994 2.776 7.41194 2.652 7.00394 2.652C6.68394 2.652 6.39994 2.728 6.15194 2.88C5.90394 3.024 5.73994 3.224 5.65994 3.48H2.86394C2.98394 2.872 3.22794 2.328 3.59594 1.848C3.97194 1.36 4.44794 0.976 5.02394 0.696C5.60794 0.415999 6.25194 0.275999 6.95594 0.275999ZM6.89594 6.648C7.27994 6.648 7.62394 6.552 7.92794 6.36C8.23194 6.168 8.42394 5.9 8.50394 5.556H5.40794C5.43194 5.876 5.58394 6.14 5.86394 6.348C6.15194 6.548 6.49594 6.648 6.89594 6.648ZM20.3652 9H17.7012L14.8812 4.728V9H12.2172V0.504H14.8812L17.7012 4.848V0.504H20.3652V9ZM27.5198 6.6C27.8238 6.6 28.0918 6.524 28.3238 6.372C28.5638 6.212 28.7478 5.992 28.8758 5.712H31.6838C31.5318 6.6 31.1638 7.336 30.5798 7.92C29.9958 8.504 29.2558 8.864 28.3598 9H28.4198V9.408C28.6438 9.408 28.8758 9.452 29.1158 9.54C29.3558 9.636 29.5598 9.792 29.7278 10.008C29.8958 10.232 29.9798 10.52 29.9798 10.872C29.9798 11.392 29.7998 11.764 29.4398 11.988C29.0798 12.22 28.6598 12.336 28.1798 12.336H26.1038V10.98H27.9038C27.9998 10.98 28.0758 10.96 28.1318 10.92C28.1878 10.888 28.2158 10.844 28.2158 10.788C28.2158 10.668 28.1118 10.608 27.9038 10.608H26.8838V9.012C26.1638 8.916 25.5358 8.676 24.9998 8.292C24.4718 7.908 24.0678 7.412 23.7878 6.804C23.5078 6.196 23.3678 5.508 23.3678 4.74C23.3678 3.9 23.5358 3.152 23.8718 2.496C24.2158 1.84 24.7038 1.332 25.3358 0.972C25.9678 0.604 26.7118 0.42 27.5678 0.42C28.3038 0.42 28.9598 0.56 29.5358 0.84C30.1198 1.112 30.5918 1.5 30.9518 2.004C31.3198 2.508 31.5638 3.096 31.6838 3.768H28.8758C28.7478 3.488 28.5638 3.272 28.3238 3.12C28.0918 2.96 27.8238 2.88 27.5198 2.88C27.0718 2.88 26.7158 3.048 26.4518 3.384C26.1958 3.72 26.0678 4.172 26.0678 4.74C26.0678 5.308 26.1958 5.76 26.4518 6.096C26.7158 6.432 27.0718 6.6 27.5198 6.6ZM36.783 9.084C35.983 9.084 35.247 8.896 34.575 8.52C33.911 8.144 33.383 7.624 32.991 6.96C32.599 6.296 32.403 5.548 32.403 4.716C32.403 3.884 32.599 3.136 32.991 2.472C33.383 1.808 33.911 1.292 34.575 0.924C35.247 0.548 35.983 0.36 36.783 0.36C37.583 0.36 38.315 0.548 38.979 0.924C39.643 1.292 40.167 1.808 40.551 2.472C40.943 3.136 41.139 3.884 41.139 4.716C41.139 5.548 40.943 6.296 40.551 6.96C40.167 7.624 39.639 8.144 38.967 8.52C38.303 8.896 37.575 9.084 36.783 9.084ZM36.783 6.6C37.311 6.6 37.719 6.432 38.007 6.096C38.295 5.752 38.439 5.292 38.439 4.716C38.439 4.132 38.295 3.672 38.007 3.336C37.719 2.992 37.311 2.82 36.783 2.82C36.247 2.82 35.835 2.992 35.547 3.336C35.259 3.672 35.115 4.132 35.115 4.716C35.115 5.292 35.259 5.752 35.547 6.096C35.835 6.432 36.247 6.6 36.783 6.6ZM47.512 9L45.952 6.792L44.656 9H41.62L44.416 4.62L41.5 0.504H44.656L46.156 2.628L47.404 0.504H50.44L47.692 4.8L50.668 9H47.512ZM4.05095 25.084C3.03495 25.084 2.19495 24.848 1.53095 24.376C0.874953 23.896 0.518953 23.196 0.462953 22.276H3.29495C3.33495 22.764 3.55095 23.008 3.94295 23.008C4.08695 23.008 4.20695 22.976 4.30295 22.912C4.40695 22.84 4.45895 22.732 4.45895 22.588C4.45895 22.388 4.35095 22.228 4.13495 22.108C3.91895 21.98 3.58295 21.836 3.12695 21.676C2.58295 21.484 2.13095 21.296 1.77095 21.112C1.41895 20.928 1.11495 20.66 0.858953 20.308C0.602953 19.956 0.478953 19.504 0.486953 18.952C0.486953 18.4 0.626953 17.932 0.906953 17.548C1.19495 17.156 1.58295 16.86 2.07095 16.66C2.56695 16.46 3.12295 16.36 3.73895 16.36C4.77895 16.36 5.60295 16.6 6.21095 17.08C6.82695 17.56 7.15095 18.236 7.18295 19.108H4.31495C4.30695 18.868 4.24695 18.696 4.13495 18.592C4.02295 18.488 3.88695 18.436 3.72695 18.436C3.61495 18.436 3.52295 18.476 3.45095 18.556C3.37895 18.628 3.34295 18.732 3.34295 18.868C3.34295 19.06 3.44695 19.22 3.65495 19.348C3.87095 19.468 4.21095 19.616 4.67495 19.792C5.21095 19.992 5.65095 20.184 5.99495 20.368C6.34695 20.552 6.65095 20.808 6.90695 21.136C7.16295 21.464 7.29095 21.876 7.29095 22.372C7.29095 22.892 7.16295 23.36 6.90695 23.776C6.65095 24.184 6.27895 24.504 5.79095 24.736C5.30295 24.968 4.72295 25.084 4.05095 25.084ZM13.675 23.716H10.843L10.423 25H7.62695L10.735 16.504H13.807L16.903 25H14.095L13.675 23.716ZM13.027 21.712L12.259 19.348L11.491 21.712H13.027ZM24.1802 16.504V18.616H21.9242V25H19.2602V18.616H17.0282V16.504H24.1802ZM27.5667 16.504V25H24.9027V16.504H27.5667ZM31.4339 22.984H34.0019V25H28.7699V16.504H31.4339V22.984ZM40.2882 23.716H37.4562L37.0362 25H34.2402L37.3482 16.504H40.4202L43.5162 25H40.7082L40.2882 23.716ZM39.6402 21.712L38.8722 19.348L38.1042 21.712H39.6402ZM52.2695 25H49.6055L46.7855 20.728V25H44.1215V16.504H46.7855L49.6055 20.848V16.504H52.2695V25Z" fill="white"/>
<path d="M9.21194 0.816L8.72629 1.69016L8.72629 1.69016L9.21194 0.816ZM10.7119 2.352L9.82837 2.8204L9.83283 2.82862L10.7119 2.352ZM10.7119 7.032L9.83045 6.55977L9.82841 6.56362L10.7119 7.032ZM9.21194 8.568L8.72629 7.69384L8.72629 7.69384L9.21194 8.568ZM4.71194 8.58L4.23002 9.45622L4.23002 9.45622L4.71194 8.58ZM3.22394 7.068L2.34278 7.54082L2.34278 7.54082L3.22394 7.068ZM2.74394 4.092V3.092H1.84889L1.75005 3.98157L2.74394 4.092ZM8.53994 4.092V5.092H9.61003L9.53765 4.02436L8.53994 4.092ZM8.04794 3.024L7.39541 3.78177L7.40663 3.79143L7.41814 3.80076L8.04794 3.024ZM6.15194 2.88L6.65407 3.74479L6.66436 3.73882L6.6745 3.7326L6.15194 2.88ZM5.65994 3.48V4.48H6.39513L6.61442 3.77827L5.65994 3.48ZM2.86394 3.48L1.88286 3.28637L1.64728 4.48H2.86394V3.48ZM3.59594 1.848L2.80379 1.23766L2.80233 1.23957L3.59594 1.848ZM5.02394 0.696L4.5916 -0.205729L4.58674 -0.203368L5.02394 0.696ZM8.50394 5.556L9.47795 5.78251L9.76318 4.556H8.50394V5.556ZM5.40794 5.556V4.556H4.33013L4.41074 5.63079L5.40794 5.556ZM5.86394 6.348L5.26761 7.15074L5.28043 7.16026L5.29354 7.16937L5.86394 6.348ZM6.95594 1.276C7.66854 1.276 8.24845 1.42469 8.72629 1.69016L9.69758 -0.0581577C8.87942 -0.512689 7.95533 -0.724001 6.95594 -0.724001V1.276ZM8.72629 1.69016C9.20275 1.95485 9.56567 2.32476 9.82841 2.82038L11.5955 1.88362C11.1542 1.05124 10.5171 0.397145 9.69758 -0.0581578L8.72629 1.69016ZM9.83283 2.82862C10.0999 3.32127 10.2519 3.93148 10.2519 4.692H12.2519C12.2519 3.66052 12.0439 2.71073 11.591 1.87538L9.83283 2.82862ZM10.2519 4.692C10.2519 5.44249 10.1007 6.05529 9.83046 6.55978L11.5934 7.50422C12.0432 6.66471 12.2519 5.7175 12.2519 4.692H10.2519ZM9.82841 6.56362C9.56567 7.05924 9.20275 7.42915 8.72629 7.69384L9.69758 9.44216C10.5171 8.98685 11.1542 8.33276 11.5955 7.50038L9.82841 6.56362ZM8.72629 7.69384C8.24845 7.95931 7.66854 8.108 6.95594 8.108V10.108C7.95533 10.108 8.87942 9.89669 9.69758 9.44216L8.72629 7.69384ZM6.95594 8.108C6.23935 8.108 5.66266 7.96163 5.19386 7.70378L4.23002 9.45622C5.04122 9.90237 5.96053 10.108 6.95594 10.108V8.108ZM5.19386 7.70378C4.72652 7.44675 4.36763 7.08445 4.1051 6.59518L2.34278 7.54082C2.78424 8.36355 3.41735 9.00925 4.23002 9.45622L5.19386 7.70378ZM4.1051 6.59518C3.84417 6.10891 3.69594 5.50903 3.69594 4.764H1.69594C1.69594 5.77897 1.8997 6.71509 2.34278 7.54082L4.1051 6.59518ZM3.69594 4.764C3.69594 4.65915 3.7072 4.47803 3.73782 4.20243L1.75005 3.98157C1.71668 4.28197 1.69594 4.54885 1.69594 4.764H3.69594ZM2.74394 5.092H8.53994V3.092H2.74394L2.74394 5.092ZM9.53765 4.02436C9.49171 3.34683 9.23968 2.70287 8.67774 2.24724L7.41814 3.80076C7.4482 3.82513 7.52416 3.89317 7.54223 4.15964L9.53765 4.02436ZM8.70046 2.26623C8.21705 1.84996 7.63239 1.652 7.00394 1.652V3.652C7.19149 3.652 7.30283 3.70204 7.39541 3.78177L8.70046 2.26623ZM7.00394 1.652C6.51856 1.652 6.05014 1.76951 5.62938 2.0274L6.6745 3.7326C6.74973 3.68649 6.84931 3.652 7.00394 3.652V1.652ZM5.6498 2.01521C5.20183 2.27532 4.86553 2.66949 4.70546 3.18173L6.61442 3.77827C6.61636 3.77205 6.61763 3.76985 6.6174 3.77029C6.61712 3.77081 6.61655 3.77166 6.61621 3.77208C6.61455 3.7741 6.62231 3.76323 6.65407 3.74479L5.6498 2.01521ZM5.65994 2.48H2.86394V4.48H5.65994V2.48ZM3.84501 3.67363C3.936 3.21263 4.11744 2.81134 4.38954 2.45643L2.80233 1.23957C2.33843 1.84466 2.03188 2.53137 1.88286 3.28637L3.84501 3.67363ZM4.38808 2.45834C4.66592 2.09773 5.01852 1.81052 5.46113 1.59537L4.58674 -0.203368C3.87735 0.141476 3.27795 0.622266 2.8038 1.23766L4.38808 2.45834ZM5.45627 1.59772C5.89389 1.3879 6.38836 1.276 6.95594 1.276V-0.724001C6.11552 -0.724001 5.32199 -0.555899 4.59161 -0.205716L5.45627 1.59772ZM6.89594 7.648C7.45554 7.648 7.98713 7.50536 8.46193 7.20549L7.39394 5.51451C7.26074 5.59864 7.10433 5.648 6.89594 5.648V7.648ZM8.46193 7.20549C8.9838 6.87589 9.33718 6.3878 9.47795 5.78251L7.52993 5.32949C7.51069 5.4122 7.48008 5.46011 7.39394 5.51451L8.46193 7.20549ZM8.50394 4.556H5.40794V6.556H8.50394V4.556ZM4.41074 5.63079C4.45848 6.26734 4.77758 6.78672 5.26761 7.15074L6.46026 5.54526C6.43679 5.52782 6.42301 5.51442 6.41561 5.50634C6.4119 5.50228 6.4096 5.49935 6.40832 5.49762C6.40705 5.49589 6.40656 5.49504 6.40656 5.49504C6.40654 5.49501 6.4066 5.4951 6.4067 5.49531C6.40681 5.49552 6.40693 5.49578 6.40705 5.49607C6.40733 5.4967 6.40744 5.49707 6.4074 5.49695C6.40736 5.49682 6.40703 5.4957 6.4066 5.49336C6.40617 5.491 6.40557 5.48703 6.40514 5.48121L4.41074 5.63079ZM5.29354 7.16937C5.77187 7.50154 6.32176 7.648 6.89594 7.648V5.648C6.67012 5.648 6.532 5.59446 6.43433 5.52663L5.29354 7.16937ZM20.3652 9V10H21.3652V9H20.3652ZM17.7012 9L16.8666 9.55091L17.1631 10H17.7012V9ZM14.8812 4.728L15.7158 4.17709L13.8812 1.39792V4.728H14.8812ZM14.8812 9V10H15.8812V9H14.8812ZM12.2172 9H11.2172V10H12.2172V9ZM12.2172 0.504V-0.496H11.2172V0.504H12.2172ZM14.8812 0.504L15.7199 -0.0404997L15.4243 -0.496H14.8812V0.504ZM17.7012 4.848L16.8624 5.3925L18.7012 8.22497V4.848H17.7012ZM17.7012 0.504V-0.496H16.7012V0.504H17.7012ZM20.3652 0.504H21.3652V-0.496H20.3652V0.504ZM20.3652 8H17.7012V10H20.3652V8ZM18.5358 8.44909L15.7158 4.17709L14.0466 5.27891L16.8666 9.55091L18.5358 8.44909ZM13.8812 4.728V9H15.8812V4.728H13.8812ZM14.8812 8H12.2172V10H14.8812V8ZM13.2172 9V0.504H11.2172V9H13.2172ZM12.2172 1.504H14.8812V-0.496H12.2172V1.504ZM14.0424 1.0485L16.8624 5.3925L18.5399 4.3035L15.7199 -0.0404997L14.0424 1.0485ZM18.7012 4.848V0.504H16.7012V4.848H18.7012ZM17.7012 1.504H20.3652V-0.496H17.7012V1.504ZM19.3652 0.504V9H21.3652V0.504H19.3652ZM28.3238 6.372L28.8719 7.20849L28.8785 7.20405L28.3238 6.372ZM28.8758 5.712V4.712H28.2334L27.9663 5.29624L28.8758 5.712ZM31.6838 5.712L32.6695 5.88072L32.8695 4.712H31.6838V5.712ZM30.5798 7.92L29.8727 7.21289L29.8727 7.21289L30.5798 7.92ZM28.3598 9L28.2097 8.01132L28.3598 10V9ZM28.4198 9H29.4198V8H28.4198V9ZM28.4198 9.408H27.4198V10.408H28.4198V9.408ZM29.1158 9.54L29.4872 8.61152L29.4737 8.60613L29.4601 8.60112L29.1158 9.54ZM29.7278 10.008L30.5278 9.408L30.5225 9.40098L30.5172 9.39406L29.7278 10.008ZM29.4398 11.988L28.9115 11.1389L28.9048 11.1431L28.8981 11.1474L29.4398 11.988ZM26.1038 12.336H25.1038V13.336H26.1038V12.336ZM26.1038 10.98V9.98H25.1038V10.98H26.1038ZM28.1318 10.92L27.6357 10.0518L27.5917 10.0769L27.5506 10.1063L28.1318 10.92ZM26.8838 10.608H25.8838V11.608H26.8838V10.608ZM26.8838 9.012H27.8838V8.13648L27.016 8.02077L26.8838 9.012ZM24.9998 8.292L24.4116 9.10076L24.4174 9.10491L24.9998 8.292ZM23.7878 6.804L24.6961 6.3857L24.6961 6.3857L23.7878 6.804ZM23.8718 2.496L22.9862 2.03157L22.9818 2.04012L23.8718 2.496ZM25.3358 0.972L25.8308 1.84096L25.839 1.83617L25.3358 0.972ZM29.5358 0.84L29.0986 1.73937L29.1061 1.743L29.1136 1.7465L29.5358 0.84ZM30.9518 2.004L30.138 2.58527L30.1442 2.59369L30.9518 2.004ZM31.6838 3.768V4.768H32.8782L32.6682 3.59221L31.6838 3.768ZM28.8758 3.768L27.9663 4.18376L28.2334 4.768H28.8758V3.768ZM28.3238 3.12L27.7561 3.94321L27.7722 3.95434L27.7888 3.96482L28.3238 3.12ZM26.4518 3.384L25.6655 2.76618L25.6609 2.77203L25.6564 2.77796L26.4518 3.384ZM26.4518 6.096L25.6564 6.70204L25.6609 6.70797L25.6655 6.71382L26.4518 6.096ZM27.5198 7.6C27.9991 7.6 28.4614 7.47735 28.8718 7.20846L27.7758 5.53554C27.7222 5.57065 27.6486 5.6 27.5198 5.6V7.6ZM28.8785 7.20405C29.2837 6.93395 29.5854 6.56493 29.7853 6.12776L27.9663 5.29624C27.9102 5.41907 27.844 5.49005 27.7691 5.53995L28.8785 7.20405ZM28.8758 6.712H31.6838V4.712H28.8758V6.712ZM30.6981 5.54328C30.5777 6.24679 30.297 6.78858 29.8727 7.21289L31.2869 8.62711C32.0306 7.88342 32.4859 6.95321 32.6695 5.88072L30.6981 5.54328ZM29.8727 7.21289C29.4544 7.63124 28.9164 7.90406 28.2097 8.01132L28.5099 9.98868C29.5952 9.82394 30.5373 9.37676 31.2869 8.62711L29.8727 7.21289ZM28.3598 10H28.4198V8H28.3598V10ZM27.4198 9V9.408H29.4198V9H27.4198ZM28.4198 10.408C28.511 10.408 28.6265 10.4257 28.7716 10.4789L29.4601 8.60112C29.1252 8.47833 28.7766 8.408 28.4198 8.408V10.408ZM28.7444 10.4685C28.8099 10.4947 28.8728 10.5375 28.9385 10.6219L30.5172 9.39406C30.2469 9.04652 29.9017 8.77733 29.4872 8.61152L28.7444 10.4685ZM28.9278 10.608C28.9358 10.6187 28.9798 10.68 28.9798 10.872H30.9798C30.9798 10.36 30.8558 9.84533 30.5278 9.408L28.9278 10.608ZM28.9798 10.872C28.9798 11.019 28.9542 11.0857 28.9447 11.1054C28.94 11.115 28.9367 11.1189 28.935 11.1208C28.9331 11.1229 28.927 11.1293 28.9115 11.1389L29.9681 12.8371C30.6908 12.3874 30.9798 11.6471 30.9798 10.872H28.9798ZM28.8981 11.1474C28.7186 11.2631 28.4916 11.336 28.1798 11.336V13.336C28.828 13.336 29.441 13.1769 29.9815 12.8286L28.8981 11.1474ZM28.1798 11.336H26.1038V13.336H28.1798V11.336ZM27.1038 12.336V10.98H25.1038V12.336H27.1038ZM26.1038 11.98H27.9038V9.98H26.1038V11.98ZM27.9038 11.98C28.1283 11.98 28.4323 11.9343 28.7131 11.7337L27.5506 10.1063C27.7194 9.98571 27.8714 9.98 27.9038 9.98V11.98ZM28.628 11.7882C28.9389 11.6106 29.2158 11.2637 29.2158 10.788H27.2158C27.2158 10.6405 27.2555 10.4765 27.3512 10.3261C27.4426 10.1824 27.5555 10.0976 27.6357 10.0518L28.628 11.7882ZM29.2158 10.788C29.2158 10.3704 28.9989 9.99528 28.6375 9.78681C28.3594 9.62638 28.0712 9.608 27.9038 9.608V11.608C27.9444 11.608 27.8122 11.6196 27.6381 11.5192C27.5359 11.4602 27.4181 11.3612 27.3304 11.2095C27.2428 11.0578 27.2158 10.9062 27.2158 10.788H29.2158ZM27.9038 9.608H26.8838V11.608H27.9038V9.608ZM27.8838 10.608V9.012H25.8838V10.608H27.8838ZM27.016 8.02077C26.4416 7.94418 25.9718 7.75824 25.5822 7.47909L24.4174 9.10491C25.0998 9.59376 25.8861 9.88782 26.7516 10.0032L27.016 8.02077ZM25.588 7.48326C25.2019 7.20251 24.9065 6.84242 24.6961 6.3857L22.8795 7.2223C23.2292 7.98158 23.7417 8.61349 24.4116 9.10074L25.588 7.48326ZM24.6961 6.3857C24.4848 5.92688 24.3678 5.38481 24.3678 4.74H22.3678C22.3678 5.63119 22.5308 6.46512 22.8795 7.2223L24.6961 6.3857ZM24.3678 4.74C24.3678 4.03623 24.5076 3.44819 24.7619 2.95188L22.9818 2.04012C22.564 2.85581 22.3678 3.76377 22.3678 4.74H24.3678ZM24.7574 2.96041C25.0143 2.47054 25.3682 2.1044 25.8308 1.84092L24.8409 0.103081C24.0394 0.5596 23.4173 1.20946 22.9862 2.03159L24.7574 2.96041ZM25.839 1.83617C26.2939 1.57128 26.8582 1.42 27.5678 1.42V-0.58C26.5654 -0.58 25.6417 -0.363284 24.8326 0.107824L25.839 1.83617ZM27.5678 1.42C28.175 1.42 28.6778 1.53481 29.0986 1.73937L29.973 -0.0593678C29.2418 -0.414815 28.4327 -0.58 27.5678 -0.58V1.42ZM29.1136 1.7465C29.5478 1.94871 29.8825 2.22737 30.1381 2.58524L31.7655 1.42276C31.3012 0.772631 30.6919 0.275289 29.958 -0.0665003L29.1136 1.7465ZM30.1442 2.59369C30.4144 2.96377 30.6036 3.40714 30.6994 3.94379L32.6682 3.59221C32.5241 2.78486 32.2252 2.05223 31.7594 1.41431L30.1442 2.59369ZM31.6838 2.768H28.8758V4.768H31.6838V2.768ZM29.7853 3.35224C29.5837 2.91136 29.2764 2.53959 28.8589 2.27518L27.7888 3.96482C27.8513 4.00441 27.9119 4.06464 27.9663 4.18376L29.7853 3.35224ZM28.8915 2.29679C28.4793 2.01249 28.0098 1.88 27.5198 1.88V3.88C27.6378 3.88 27.7043 3.90751 27.7561 3.94321L28.8915 2.29679ZM27.5198 1.88C26.7822 1.88 26.1295 2.17565 25.6655 2.76618L27.2381 4.00182C27.3021 3.92035 27.3614 3.88 27.5198 3.88V1.88ZM25.6564 2.77796C25.2285 3.33952 25.0678 4.0279 25.0678 4.74H27.0678C27.0678 4.3161 27.1631 4.10047 27.2472 3.99004L25.6564 2.77796ZM25.0678 4.74C25.0678 5.4521 25.2285 6.14047 25.6564 6.70204L27.2472 5.48996C27.1631 5.37953 27.0678 5.1639 27.0678 4.74H25.0678ZM25.6655 6.71382C26.1295 7.30435 26.7822 7.6 27.5198 7.6V5.6C27.3614 5.6 27.3021 5.55965 27.2381 5.47818L25.6655 6.71382ZM34.575 8.52L34.0822 9.39018L34.0867 9.39268L34.575 8.52ZM32.991 6.96L32.1298 7.46838L32.1298 7.46838L32.991 6.96ZM34.575 0.924L35.0597 1.79866L35.0633 1.79668L34.575 0.924ZM38.979 0.924L38.4862 1.79421L38.4942 1.79865L38.979 0.924ZM40.551 2.472L39.6853 2.97265L39.6898 2.98038L40.551 2.472ZM40.551 6.96L39.6898 6.4516L39.6853 6.45937L40.551 6.96ZM38.967 8.52L38.4787 7.64731L38.4742 7.64983L38.967 8.52ZM38.007 6.096L38.7663 6.74683L38.7737 6.73794L38.007 6.096ZM38.007 3.336L37.2402 3.97798L37.2477 3.98679L38.007 3.336ZM35.547 3.336L36.3063 3.98683L36.3137 3.97794L35.547 3.336ZM35.547 6.096L34.7802 6.73798L34.7877 6.74679L35.547 6.096ZM36.783 8.084C36.147 8.084 35.5801 7.93652 35.0633 7.64732L34.0867 9.39268C34.9138 9.85548 35.8189 10.084 36.783 10.084V8.084ZM35.0677 7.64983C34.5577 7.36104 34.1561 6.96652 33.8521 6.45162L32.1298 7.46838C32.6099 8.28148 33.2642 8.92696 34.0822 9.39017L35.0677 7.64983ZM33.8521 6.45162C33.5582 5.95374 33.403 5.38379 33.403 4.716H31.403C31.403 5.71221 31.6398 6.63826 32.1298 7.46838L33.8521 6.45162ZM33.403 4.716C33.403 4.04821 33.5582 3.47826 33.8521 2.98038L32.1298 1.96362C31.6398 2.79374 31.403 3.71979 31.403 4.716H33.403ZM33.8521 2.98038C34.155 2.46729 34.5541 2.07886 35.0597 1.79865L34.0902 0.0493457C33.2678 0.505137 32.6109 1.14871 32.1298 1.96362L33.8521 2.98038ZM35.0633 1.79668C35.5801 1.50748 36.147 1.36 36.783 1.36V-0.64C35.8189 -0.64 34.9138 -0.411482 34.0867 0.0513164L35.0633 1.79668ZM36.783 1.36C37.4189 1.36 37.9799 1.50745 38.4862 1.79417L39.4717 0.0538275C38.6501 -0.411452 37.747 -0.64 36.783 -0.64V1.36ZM38.4942 1.79865C38.998 2.07784 39.391 2.4638 39.6853 2.97263L41.4166 1.97137C40.9429 1.1522 40.288 0.506157 39.4637 0.0493457L38.4942 1.79865ZM39.6898 2.98038C39.9838 3.47826 40.139 4.04821 40.139 4.716H42.139C42.139 3.71979 41.9022 2.79374 41.4121 1.96362L39.6898 2.98038ZM40.139 4.716C40.139 5.38379 39.9838 5.95374 39.6898 6.45162L41.4121 7.46838C41.9022 6.63826 42.139 5.71221 42.139 4.716H40.139ZM39.6853 6.45937C39.3917 6.96703 38.9944 7.35878 38.4787 7.64732L39.4553 9.39268C40.2836 8.92922 40.9422 8.28097 41.4166 7.46063L39.6853 6.45937ZM38.4742 7.64983C37.9663 7.93743 37.4091 8.084 36.783 8.084V10.084C37.7409 10.084 38.6396 9.85457 39.4597 9.39017L38.4742 7.64983ZM36.783 7.6C37.5409 7.6 38.2513 7.34754 38.7662 6.74679L37.2477 5.44521C37.1866 5.51646 37.081 5.6 36.783 5.6V7.6ZM38.7737 6.73794C39.2509 6.16794 39.439 5.45874 39.439 4.716H37.439C37.439 5.12526 37.339 5.33606 37.2402 5.45406L38.7737 6.73794ZM39.439 4.716C39.439 3.97065 39.2534 3.25362 38.7662 2.68521L37.2477 3.98679C37.3365 4.09038 37.439 4.29335 37.439 4.716H39.439ZM38.7737 2.69406C38.2614 2.08207 37.5489 1.82 36.783 1.82V3.82C37.0731 3.82 37.1766 3.90193 37.2402 3.97794L38.7737 2.69406ZM36.783 1.82C36.0146 1.82 35.2956 2.07848 34.7802 2.69406L36.3137 3.97794C36.3744 3.90552 36.4793 3.82 36.783 3.82V1.82ZM34.7877 2.68521C34.3005 3.25362 34.115 3.97065 34.115 4.716H36.115C36.115 4.29335 36.2174 4.09038 36.3062 3.98679L34.7877 2.68521ZM34.115 4.716C34.115 5.45874 34.303 6.16794 34.7802 6.73794L36.3137 5.45406C36.2149 5.33606 36.115 5.12526 36.115 4.716H34.115ZM34.7877 6.74679C35.3056 7.35101 36.0225 7.6 36.783 7.6V5.6C36.4714 5.6 36.3643 5.51299 36.3062 5.44521L34.7877 6.74679ZM47.512 9L46.6953 9.57703L46.9941 10H47.512V9ZM45.952 6.792L46.7687 6.21497L45.8743 4.94895L45.0896 6.2858L45.952 6.792ZM44.656 9V10H45.2286L45.5184 9.5062L44.656 9ZM41.62 9L40.7771 8.46193L39.7953 10H41.62V9ZM44.416 4.62L45.2589 5.15807L45.6209 4.59094L45.232 4.04192L44.416 4.62ZM41.5 0.504V-0.496L39.566 -0.496L40.684 1.08208L41.5 0.504ZM44.656 0.504L45.4728 -0.0728645L45.174 -0.496H44.656V0.504ZM46.156 2.628L45.3392 3.20486L46.2331 4.47071L47.0182 3.13459L46.156 2.628ZM47.404 0.504V-0.496H46.8317L46.5418 -0.0025944L47.404 0.504ZM50.44 0.504L51.2824 1.04285L52.2668 -0.496H50.44V0.504ZM47.692 4.8L46.8496 4.26115L46.4866 4.82856L46.8761 5.37815L47.692 4.8ZM50.668 9V10H52.6022L51.4839 8.42185L50.668 9ZM48.3287 8.42297L46.7687 6.21497L45.1353 7.36903L46.6953 9.57703L48.3287 8.42297ZM45.0896 6.2858L43.7936 8.4938L45.5184 9.5062L46.8144 7.2982L45.0896 6.2858ZM44.656 8H41.62V10H44.656V8ZM42.4629 9.53807L45.2589 5.15807L43.5731 4.08193L40.7771 8.46193L42.4629 9.53807ZM45.232 4.04192L42.316 -0.0740834L40.684 1.08208L43.6 5.19808L45.232 4.04192ZM41.5 1.504H44.656V-0.496H41.5V1.504ZM43.8392 1.08086L45.3392 3.20486L46.9728 2.05114L45.4728 -0.0728645L43.8392 1.08086ZM47.0182 3.13459L48.2662 1.01059L46.5418 -0.0025944L45.2938 2.12141L47.0182 3.13459ZM47.404 1.504L50.44 1.504V-0.496H47.404V1.504ZM49.5976 -0.0348535L46.8496 4.26115L48.5344 5.33885L51.2824 1.04285L49.5976 -0.0348535ZM46.8761 5.37815L49.8521 9.57815L51.4839 8.42185L48.5079 4.22185L46.8761 5.37815ZM50.668 8H47.512V10H50.668V8ZM1.53095 24.376L0.940388 25.1831L0.951574 25.1911L1.53095 24.376ZM0.462953 22.276L0.462953 21.276H-0.599767L-0.535199 22.3368L0.462953 22.276ZM3.29495 22.276L4.29161 22.1943L4.21634 21.276H3.29495V22.276ZM4.30295 22.912L4.85765 23.7441L4.86495 23.7392L4.87216 23.7342L4.30295 22.912ZM4.13495 22.108L3.62515 22.9683L3.63713 22.9754L3.64931 22.9822L4.13495 22.108ZM3.12695 21.676L2.79413 22.619L2.79587 22.6196L3.12695 21.676ZM1.77095 21.112L1.30768 21.9983L1.31584 22.0024L1.77095 21.112ZM0.858953 20.308L1.66769 19.7198L1.66769 19.7198L0.858953 20.308ZM0.486953 18.952L1.48685 18.9665L1.48695 18.9592V18.952H0.486953ZM0.906953 17.548L0.101066 16.9559L0.0989455 16.9588L0.906953 17.548ZM2.07095 16.66L1.69698 15.7325L1.69173 15.7347L2.07095 16.66ZM6.21095 17.08L5.5913 17.8649L5.5963 17.8688L6.21095 17.08ZM7.18295 19.108V20.108H8.22032L8.18228 19.0713L7.18295 19.108ZM4.31495 19.108L3.31551 19.1413L3.34773 20.108H4.31495V19.108ZM3.45095 18.556L4.15806 19.2631L4.17666 19.2445L4.19425 19.225L3.45095 18.556ZM3.65495 19.348L3.13086 20.1997L3.14983 20.2113L3.16931 20.2222L3.65495 19.348ZM4.67495 19.792L4.32029 20.727L4.32536 20.7289L4.67495 19.792ZM5.99495 20.368L5.52328 21.2498L5.5317 21.2542L5.99495 20.368ZM6.90695 21.136L6.11864 21.7513L6.11864 21.7513L6.90695 21.136ZM6.90695 23.776L7.75405 24.3075L7.75861 24.3001L6.90695 23.776ZM5.79095 24.736L5.36159 23.8329L5.79095 24.736ZM4.05095 24.084C3.19079 24.084 2.56727 23.8858 2.11033 23.5609L0.951574 25.1911C1.82264 25.8102 2.87911 26.084 4.05095 26.084V24.084ZM2.12146 23.569C1.73954 23.2895 1.50175 22.8829 1.46111 22.2152L-0.535199 22.3368C-0.46384 23.5091 0.0103664 24.5025 0.940443 25.183L2.12146 23.569ZM0.462953 23.276H3.29495V21.276H0.462953L0.462953 23.276ZM2.2983 22.3577C2.32753 22.7143 2.43102 23.1408 2.73819 23.4878C3.07431 23.8675 3.524 24.008 3.94295 24.008V22.008C3.94802 22.008 3.99116 22.0088 4.0544 22.0342C4.12197 22.0613 4.18605 22.1061 4.23572 22.1622C4.32689 22.2652 4.30238 22.3257 4.29161 22.1943L2.2983 22.3577ZM3.94295 24.008C4.23529 24.008 4.56081 23.9419 4.85765 23.7441L3.74825 22.0799C3.85309 22.0101 3.93861 22.008 3.94295 22.008V24.008ZM4.87216 23.7342C5.28655 23.4473 5.45895 23.0075 5.45895 22.588H3.45895C3.45895 22.5396 3.46798 22.4491 3.51895 22.3432C3.57226 22.2325 3.65155 22.1467 3.73374 22.0898L4.87216 23.7342ZM5.45895 22.588C5.45895 21.9342 5.066 21.4813 4.6206 21.2338L3.64931 22.9822C3.65713 22.9865 3.60431 22.9593 3.5491 22.8775C3.48737 22.786 3.45895 22.6798 3.45895 22.588H5.45895ZM4.64476 21.2477C4.34169 21.0681 3.93037 20.8981 3.45804 20.7324L2.79587 22.6196C3.23553 22.7739 3.49622 22.8919 3.62515 22.9683L4.64476 21.2477ZM3.45977 20.733C2.94158 20.5501 2.53378 20.3788 2.22606 20.2216L1.31584 22.0024C1.72813 22.2132 2.22433 22.4179 2.79413 22.619L3.45977 20.733ZM2.23421 20.2258C2.0315 20.1198 1.84186 19.9593 1.66769 19.7198L0.0502169 20.8962C0.388044 21.3607 0.806405 21.7362 1.3077 21.9982L2.23421 20.2258ZM1.66769 19.7198C1.56955 19.5849 1.48113 19.3608 1.48685 18.9665L-0.512942 18.9375C-0.523227 19.6472 -0.36364 20.3271 0.0502171 20.8962L1.66769 19.7198ZM1.48695 18.952C1.48695 18.5764 1.57909 18.3235 1.71496 18.1372L0.0989455 16.9588C-0.325181 17.5405 -0.513047 18.2236 -0.513047 18.952H1.48695ZM1.71283 18.1401C1.88283 17.9087 2.11747 17.7217 2.45018 17.5853L1.69173 15.7347C1.04843 15.9983 0.507077 16.4033 0.101072 16.9559L1.71283 18.1401ZM2.44492 17.5874C2.80543 17.4421 3.23186 17.36 3.73895 17.36V15.36C3.01405 15.36 2.32847 15.4779 1.69699 15.7326L2.44492 17.5874ZM3.73895 17.36C4.63088 17.36 5.21186 17.5653 5.59131 17.8649L6.8306 16.2951C5.99405 15.6347 4.92702 15.36 3.73895 15.36V17.36ZM5.5963 17.8688C5.95014 18.1445 6.16103 18.5289 6.18363 19.1447L8.18228 19.0713C8.14088 17.9431 7.70376 16.9755 6.8256 16.2912L5.5963 17.8688ZM7.18295 18.108H4.31495V20.108H7.18295V18.108ZM5.3144 19.0747C5.30244 18.716 5.20937 18.225 4.8154 17.8592L3.4545 19.3248C3.37009 19.2464 3.3332 19.1669 3.31975 19.1284C3.30785 19.0942 3.31387 19.0921 3.31551 19.1413L5.3144 19.0747ZM4.8154 17.8592C4.50911 17.5748 4.12634 17.436 3.72695 17.436V19.436C3.69695 19.436 3.6486 19.4308 3.59182 19.4091C3.53425 19.387 3.48765 19.3556 3.4545 19.3248L4.8154 17.8592ZM3.72695 17.436C3.34453 17.436 2.97787 17.5868 2.70766 17.887L4.19425 19.225C4.14157 19.2835 4.06736 19.3419 3.97268 19.3831C3.87897 19.4238 3.79213 19.436 3.72695 19.436V17.436ZM2.74385 17.8489C2.42803 18.1647 2.34295 18.5587 2.34295 18.868H4.34295C4.34295 18.9053 4.32988 19.0913 4.15806 19.2631L2.74385 17.8489ZM2.34295 18.868C2.34295 19.5031 2.71914 19.9463 3.13086 20.1997L4.17905 18.4963C4.16715 18.489 4.21133 18.5131 4.2594 18.587C4.31352 18.6703 4.34295 18.7718 4.34295 18.868H2.34295ZM3.16931 20.2222C3.45105 20.3787 3.84663 20.5473 4.3203 20.727L5.02961 18.857C4.57527 18.6847 4.29086 18.5573 4.1406 18.4738L3.16931 20.2222ZM4.32536 20.7289C4.83688 20.9198 5.23225 21.0941 5.5233 21.2498L6.46661 19.4862C6.06965 19.2739 5.58502 19.0642 5.02454 18.8551L4.32536 20.7289ZM5.5317 21.2542C5.75125 21.369 5.94615 21.5303 6.11864 21.7513L7.69527 20.5207C7.35575 20.0857 6.94266 19.735 6.45821 19.4818L5.5317 21.2542ZM6.11864 21.7513C6.21246 21.8715 6.29095 22.0546 6.29095 22.372H8.29095C8.29095 21.6974 8.11344 21.0565 7.69527 20.5207L6.11864 21.7513ZM6.29095 22.372C6.29095 22.7194 6.20798 23.0038 6.05529 23.2519L7.75861 24.3001C8.11793 23.7162 8.29095 23.0646 8.29095 22.372H6.29095ZM6.05989 23.2445C5.91694 23.4723 5.69942 23.6723 5.36159 23.8329L6.22031 25.6391C6.85849 25.3357 7.38497 24.8957 7.75402 24.3075L6.05989 23.2445ZM5.36159 23.8329C5.03634 23.9875 4.60971 24.084 4.05095 24.084V26.084C4.83619 26.084 5.56957 25.9485 6.22031 25.6391L5.36159 23.8329ZM13.675 23.716L14.6254 23.4051L14.4 22.716H13.675V23.716ZM10.843 23.716V22.716H10.1179L9.89251 23.4051L10.843 23.716ZM10.423 25V26H11.148L11.3734 25.3109L10.423 25ZM7.62695 25L6.68782 24.6564L6.19632 26H7.62695V25ZM10.735 16.504V15.504H10.036L9.79582 16.1604L10.735 16.504ZM13.807 16.504L14.7465 16.1616L14.5069 15.504H13.807V16.504ZM16.903 25V26H18.3317L17.8425 24.6576L16.903 25ZM14.095 25L13.1445 25.3109L13.3699 26H14.095V25ZM13.027 21.712V22.712H14.4033L13.978 21.403L13.027 21.712ZM12.259 19.348L13.21 19.039L12.259 16.1115L11.3079 19.039L12.259 19.348ZM11.491 21.712L10.5399 21.403L10.1146 22.712H11.491V21.712ZM13.675 22.716H10.843V24.716H13.675V22.716ZM9.89251 23.4051L9.47251 24.6891L11.3734 25.3109L11.7934 24.0269L9.89251 23.4051ZM10.423 24H7.62695V26H10.423V24ZM8.56609 25.3436L11.6741 16.8476L9.79582 16.1604L6.68782 24.6564L8.56609 25.3436ZM10.735 17.504H13.807V15.504H10.735V17.504ZM12.8674 16.8464L15.9634 25.3424L17.8425 24.6576L14.7465 16.1616L12.8674 16.8464ZM16.903 24H14.095V26H16.903V24ZM15.0454 24.6891L14.6254 23.4051L12.7245 24.0269L13.1445 25.3109L15.0454 24.6891ZM13.978 21.403L13.21 19.039L11.3079 19.657L12.0759 22.021L13.978 21.403ZM11.3079 19.039L10.5399 21.403L12.442 22.021L13.21 19.657L11.3079 19.039ZM11.491 22.712H13.027V20.712H11.491V22.712ZM24.1802 16.504H25.1802V15.504H24.1802V16.504ZM24.1802 18.616V19.616H25.1802V18.616H24.1802ZM21.9242 18.616V17.616H20.9242V18.616H21.9242ZM21.9242 25V26H22.9242V25H21.9242ZM19.2602 25H18.2602V26H19.2602V25ZM19.2602 18.616H20.2602V17.616H19.2602V18.616ZM17.0282 18.616H16.0282V19.616H17.0282V18.616ZM17.0282 16.504V15.504H16.0282V16.504H17.0282ZM23.1802 16.504V18.616H25.1802V16.504H23.1802ZM24.1802 17.616H21.9242V19.616H24.1802V17.616ZM20.9242 18.616V25H22.9242V18.616H20.9242ZM21.9242 24H19.2602V26H21.9242V24ZM20.2602 25V18.616H18.2602V25H20.2602ZM19.2602 17.616H17.0282V19.616H19.2602V17.616ZM18.0282 18.616V16.504H16.0282V18.616H18.0282ZM17.0282 17.504H24.1802V15.504H17.0282V17.504ZM27.5667 16.504H28.5667V15.504H27.5667V16.504ZM27.5667 25V26H28.5667V25H27.5667ZM24.9027 25H23.9027V26H24.9027V25ZM24.9027 16.504V15.504H23.9027V16.504H24.9027ZM26.5667 16.504V25H28.5667V16.504H26.5667ZM27.5667 24H24.9027V26H27.5667V24ZM25.9027 25V16.504H23.9027V25H25.9027ZM24.9027 17.504H27.5667V15.504H24.9027V17.504ZM31.4339 22.984H30.4339V23.984H31.4339V22.984ZM34.0019 22.984H35.0019V21.984H34.0019V22.984ZM34.0019 25V26H35.0019V25H34.0019ZM28.7699 25H27.7699V26H28.7699V25ZM28.7699 16.504V15.504H27.7699V16.504H28.7699ZM31.4339 16.504H32.4339V15.504H31.4339V16.504ZM31.4339 23.984H34.0019V21.984H31.4339V23.984ZM33.0019 22.984V25H35.0019V22.984H33.0019ZM34.0019 24H28.7699V26H34.0019V24ZM29.7699 25V16.504H27.7699V25H29.7699ZM28.7699 17.504H31.4339V15.504H28.7699V17.504ZM30.4339 16.504V22.984H32.4339V16.504H30.4339ZM40.2882 23.716L41.2387 23.4051L41.0133 22.716H40.2882V23.716ZM37.4562 23.716V22.716H36.7312L36.5058 23.4051L37.4562 23.716ZM37.0362 25V26H37.7613L37.9867 25.3109L37.0362 25ZM34.2402 25L33.3011 24.6564L32.8096 26H34.2402V25ZM37.3482 16.504V15.504H36.6492L36.4091 16.1604L37.3482 16.504ZM40.4202 16.504L41.3598 16.1616L41.1202 15.504H40.4202V16.504ZM43.5162 25V26H44.945L44.4558 24.6576L43.5162 25ZM40.7082 25L39.7578 25.3109L39.9832 26H40.7082V25ZM39.6402 21.712V22.712H41.0166L40.5913 21.403L39.6402 21.712ZM38.8722 19.348L39.8233 19.039L38.8722 16.1115L37.9212 19.039L38.8722 19.348ZM38.1042 21.712L37.1532 21.403L36.7279 22.712H38.1042V21.712ZM40.2882 22.716H37.4562V24.716H40.2882V22.716ZM36.5058 23.4051L36.0858 24.6891L37.9867 25.3109L38.4067 24.0269L36.5058 23.4051ZM37.0362 24H34.2402V26H37.0362V24ZM35.1794 25.3436L38.2874 16.8476L36.4091 16.1604L33.3011 24.6564L35.1794 25.3436ZM37.3482 17.504H40.4202V15.504H37.3482V17.504ZM39.4807 16.8464L42.5767 25.3424L44.4558 24.6576L41.3598 16.1616L39.4807 16.8464ZM43.5162 24H40.7082V26H43.5162V24ZM41.6587 24.6891L41.2387 23.4051L39.3378 24.0269L39.7578 25.3109L41.6587 24.6891ZM40.5913 21.403L39.8233 19.039L37.9212 19.657L38.6892 22.021L40.5913 21.403ZM37.9212 19.039L37.1532 21.403L39.0553 22.021L39.8233 19.657L37.9212 19.039ZM38.1042 22.712H39.6402V20.712H38.1042V22.712ZM52.2695 25V26H53.2695V25H52.2695ZM49.6055 25L48.7709 25.5509L49.0674 26H49.6055V25ZM46.7855 20.728L47.6201 20.1771L45.7855 17.3979V20.728H46.7855ZM46.7855 25V26H47.7855V25H46.7855ZM44.1215 25H43.1215V26H44.1215V25ZM44.1215 16.504V15.504H43.1215V16.504H44.1215ZM46.7855 16.504L47.6242 15.9595L47.3285 15.504H46.7855V16.504ZM49.6055 20.848L48.7667 21.3925L50.6055 24.225V20.848H49.6055ZM49.6055 16.504V15.504H48.6055V16.504H49.6055ZM52.2695 16.504H53.2695V15.504H52.2695V16.504ZM52.2695 24H49.6055V26H52.2695V24ZM50.4401 24.4491L47.6201 20.1771L45.9509 21.2789L48.7709 25.5509L50.4401 24.4491ZM45.7855 20.728V25H47.7855V20.728H45.7855ZM46.7855 24H44.1215V26H46.7855V24ZM45.1215 25V16.504H43.1215V25H45.1215ZM44.1215 17.504H46.7855V15.504H44.1215V17.504ZM45.9467 17.0485L48.7667 21.3925L50.4442 20.3035L47.6242 15.9595L45.9467 17.0485ZM50.6055 20.848V16.504H48.6055V20.848H50.6055ZM49.6055 17.504H52.2695V15.504H49.6055V17.504ZM51.2695 16.504V25H53.2695V16.504H51.2695Z" fill="#8D4600"/>
</svg>
