<svg width="68" height="68" viewBox="0 0 68 68" fill="none" xmlns="http://www.w3.org/2000/svg">
<rect x="-0.707107" y="38.598" width="51.6345" height="51.6345" rx="20.5" transform="rotate(-45 -0.707107 38.598)" fill="url(#paint0_linear_2022_41425)" stroke="#361283"/>
<path d="M19.1996 34.4156C19.7369 34.537 20.1616 34.8056 20.4736 35.2216C20.7942 35.629 20.9546 36.097 20.9546 36.6256C20.9546 37.4056 20.6859 38.0166 20.1486 38.4586C19.6112 38.9006 18.8572 39.1216 17.8866 39.1216H13.3496V29.9566H17.7436C18.6796 29.9566 19.4119 30.1646 19.9406 30.5806C20.4779 30.9966 20.7466 31.5816 20.7466 32.3356C20.7466 32.873 20.6036 33.3236 20.3176 33.6876C20.0402 34.043 19.6676 34.2856 19.1996 34.4156ZM15.8976 33.5966H17.1846C17.8259 33.5966 18.1466 33.3323 18.1466 32.8036C18.1466 32.2576 17.8259 31.9846 17.1846 31.9846H15.8976V33.5966ZM17.3796 37.0676C18.0209 37.0676 18.3416 36.799 18.3416 36.2616C18.3416 35.9843 18.2549 35.772 18.0816 35.6246C17.9169 35.4773 17.6786 35.4036 17.3666 35.4036H15.8976V37.0676H17.3796ZM26.4653 39.2126C25.6073 39.2126 24.8186 39.0133 24.0993 38.6146C23.3799 38.2073 22.8079 37.6483 22.3833 36.9376C21.9673 36.2183 21.7593 35.408 21.7593 34.5066C21.7593 33.6053 21.9673 32.7993 22.3833 32.0886C22.8079 31.3693 23.3799 30.8103 24.0993 30.4116C24.8186 30.013 25.6073 29.8136 26.4653 29.8136C27.3319 29.8136 28.1206 30.013 28.8313 30.4116C29.5506 30.8103 30.1183 31.3693 30.5343 32.0886C30.9503 32.7993 31.1583 33.6053 31.1583 34.5066C31.1583 35.408 30.9503 36.2183 30.5343 36.9376C30.1183 37.6483 29.5506 38.2073 28.8313 38.6146C28.1119 39.0133 27.3233 39.2126 26.4653 39.2126ZM26.4653 36.8466C27.1153 36.8466 27.6266 36.6343 27.9993 36.2096C28.3806 35.785 28.5713 35.2173 28.5713 34.5066C28.5713 33.7786 28.3806 33.2066 27.9993 32.7906C27.6266 32.366 27.1153 32.1536 26.4653 32.1536C25.8066 32.1536 25.2909 32.366 24.9183 32.7906C24.5456 33.2066 24.3593 33.7786 24.3593 34.5066C24.3593 35.226 24.5456 35.798 24.9183 36.2226C25.2909 36.6386 25.8066 36.8466 26.4653 36.8466ZM25.0743 29.1506C24.7796 29.1506 24.5326 29.0553 24.3333 28.8646C24.1426 28.6653 24.0473 28.4183 24.0473 28.1236C24.0473 27.8203 24.1426 27.569 24.3333 27.3696C24.5326 27.1703 24.7796 27.0706 25.0743 27.0706C25.3776 27.0706 25.6289 27.1703 25.8283 27.3696C26.0276 27.569 26.1273 27.8203 26.1273 28.1236C26.1273 28.4183 26.0276 28.6653 25.8283 28.8646C25.6289 29.0553 25.3776 29.1506 25.0743 29.1506ZM27.8433 29.1506C27.5486 29.1506 27.3016 29.0553 27.1023 28.8646C26.9116 28.6653 26.8163 28.4183 26.8163 28.1236C26.8163 27.8203 26.9116 27.569 27.1023 27.3696C27.3016 27.1703 27.5486 27.0706 27.8433 27.0706C28.1379 27.0706 28.3849 27.1703 28.5843 27.3696C28.7836 27.569 28.8833 27.8203 28.8833 28.1236C28.8833 28.4183 28.7836 28.6653 28.5843 28.8646C28.3849 29.0553 28.1379 29.1506 27.8433 29.1506ZM40.6367 29.9566L37.4127 36.2096V39.1216H34.8517V36.2096L31.6277 29.9566H34.5397L36.1517 33.4926L37.7637 29.9566H40.6367ZM43.9149 29.9566V35.2736C43.9149 35.7676 44.0276 36.149 44.2529 36.4176C44.4869 36.6863 44.8379 36.8206 45.3059 36.8206C45.7739 36.8206 46.1249 36.6863 46.3589 36.4176C46.6016 36.1403 46.7229 35.759 46.7229 35.2736V29.9566H49.2709V35.2736C49.2709 36.1143 49.0933 36.8336 48.7379 37.4316C48.3826 38.021 47.8973 38.4673 47.2819 38.7706C46.6753 39.0653 45.9993 39.2126 45.2539 39.2126C44.5086 39.2126 43.8413 39.0653 43.2519 38.7706C42.6713 38.4673 42.2119 38.021 41.8739 37.4316C41.5446 36.8423 41.3799 36.123 41.3799 35.2736V29.9566H43.9149ZM43.9279 29.1506C43.6333 29.1506 43.3863 29.0553 43.1869 28.8646C42.9963 28.6653 42.9009 28.4183 42.9009 28.1236C42.9009 27.8203 42.9963 27.569 43.1869 27.3696C43.3863 27.1703 43.6333 27.0706 43.9279 27.0706C44.2313 27.0706 44.4826 27.1703 44.6819 27.3696C44.8813 27.569 44.9809 27.8203 44.9809 28.1236C44.9809 28.4183 44.8813 28.6653 44.6819 28.8646C44.4826 29.0553 44.2313 29.1506 43.9279 29.1506ZM46.6969 29.1506C46.4023 29.1506 46.1553 29.0553 45.9559 28.8646C45.7653 28.6653 45.6699 28.4183 45.6699 28.1236C45.6699 27.8203 45.7653 27.569 45.9559 27.3696C46.1553 27.1703 46.4023 27.0706 46.6969 27.0706C46.9916 27.0706 47.2386 27.1703 47.4379 27.3696C47.6373 27.569 47.7369 27.8203 47.7369 28.1236C47.7369 28.4183 47.6373 28.6653 47.4379 28.8646C47.2386 29.0553 46.9916 29.1506 46.6969 29.1506ZM56.0948 39.1216L53.2218 35.1046V39.1216H50.6738V29.9566H53.2218V33.9086L56.0688 29.9566H59.0068L55.6398 34.4026L59.1758 39.1216H56.0948ZM17.3736 44.9566V46.9846H13.7076V48.5966H16.4116V50.5336H13.7076V54.1216H11.1596V44.9566H17.3736ZM20.9428 44.9566V50.2736C20.9428 50.7676 21.0554 51.149 21.2808 51.4176C21.5148 51.6863 21.8658 51.8206 22.3338 51.8206C22.8018 51.8206 23.1528 51.6863 23.3868 51.4176C23.6294 51.1403 23.7508 50.759 23.7508 50.2736V44.9566H26.2988V50.2736C26.2988 51.1143 26.1211 51.8336 25.7658 52.4316C25.4104 53.021 24.9251 53.4673 24.3098 53.7706C23.7031 54.0653 23.0271 54.2126 22.2818 54.2126C21.5364 54.2126 20.8691 54.0653 20.2798 53.7706C19.6991 53.4673 19.2398 53.021 18.9018 52.4316C18.5724 51.8423 18.4078 51.123 18.4078 50.2736V44.9566H20.9428ZM20.9558 44.1506C20.6611 44.1506 20.4141 44.0553 20.2148 43.8646C20.0241 43.6653 19.9288 43.4183 19.9288 43.1236C19.9288 42.8203 20.0241 42.569 20.2148 42.3696C20.4141 42.1703 20.6611 42.0706 20.9558 42.0706C21.2591 42.0706 21.5104 42.1703 21.7098 42.3696C21.9091 42.569 22.0088 42.8203 22.0088 43.1236C22.0088 43.4183 21.9091 43.6653 21.7098 43.8646C21.5104 44.0553 21.2591 44.1506 20.9558 44.1506ZM23.7248 44.1506C23.4301 44.1506 23.1831 44.0553 22.9838 43.8646C22.7931 43.6653 22.6978 43.4183 22.6978 43.1236C22.6978 42.8203 22.7931 42.569 22.9838 42.3696C23.1831 42.1703 23.4301 42.0706 23.7248 42.0706C24.0194 42.0706 24.2664 42.1703 24.4658 42.3696C24.6651 42.569 24.7648 42.8203 24.7648 43.1236C24.7648 43.4183 24.6651 43.6653 24.4658 43.8646C24.2664 44.0553 24.0194 44.1506 23.7248 44.1506ZM32.3426 54.1216L30.5226 50.7416H30.2496V54.1216H27.7016V44.9566H31.7186C32.4553 44.9566 33.0793 45.0866 33.5906 45.3466C34.102 45.598 34.4876 45.949 34.7476 46.3996C35.0076 46.8416 35.1376 47.34 35.1376 47.8946C35.1376 48.5186 34.9643 49.069 34.6176 49.5456C34.2796 50.0136 33.7813 50.3473 33.1226 50.5466L35.1896 54.1216H32.3426ZM30.2496 48.9996H31.5106C31.8573 48.9996 32.1173 48.9173 32.2906 48.7526C32.464 48.588 32.5506 48.3496 32.5506 48.0376C32.5506 47.743 32.4596 47.5133 32.2776 47.3486C32.1043 47.1753 31.8486 47.0886 31.5106 47.0886H30.2496V48.9996ZM39.7544 54.2126C38.6884 54.2126 37.813 53.9613 37.1284 53.4586C36.4437 52.9473 36.0754 52.2193 36.0234 51.2746H38.7404C38.7664 51.5953 38.8617 51.8293 39.0264 51.9766C39.191 52.124 39.4034 52.1976 39.6634 52.1976C39.8974 52.1976 40.088 52.1413 40.2354 52.0286C40.3914 51.9073 40.4694 51.7426 40.4694 51.5346C40.4694 51.266 40.3437 51.058 40.0924 50.9106C39.841 50.7633 39.4337 50.5986 38.8704 50.4166C38.2724 50.2173 37.787 50.0266 37.4144 49.8446C37.0504 49.654 36.7297 49.381 36.4524 49.0256C36.1837 48.6616 36.0494 48.1893 36.0494 47.6086C36.0494 47.0193 36.1967 46.5166 36.4914 46.1006C36.786 45.676 37.1934 45.3553 37.7134 45.1386C38.2334 44.922 38.8227 44.8136 39.4814 44.8136C40.5474 44.8136 41.3967 45.065 42.0294 45.5676C42.6707 46.0616 43.013 46.7593 43.0564 47.6606H40.2874C40.2787 47.3833 40.192 47.1753 40.0274 47.0366C39.8714 46.898 39.6677 46.8286 39.4164 46.8286C39.2257 46.8286 39.0697 46.885 38.9484 46.9976C38.827 47.1103 38.7664 47.2706 38.7664 47.4786C38.7664 47.652 38.8314 47.8036 38.9614 47.9336C39.1 48.055 39.269 48.1633 39.4684 48.2586C39.6677 48.3453 39.9624 48.458 40.3524 48.5966C40.933 48.796 41.4097 48.9953 41.7824 49.1946C42.1637 49.3853 42.4887 49.6583 42.7574 50.0136C43.0347 50.3603 43.1734 50.8023 43.1734 51.3396C43.1734 51.8856 43.0347 52.3753 42.7574 52.8086C42.4887 53.242 42.0944 53.5843 41.5744 53.8356C41.063 54.087 40.4564 54.2126 39.7544 54.2126ZM48.6609 44.7356C49.5709 44.7356 50.3682 44.9306 51.0529 45.3206C51.7462 45.7106 52.2835 46.2653 52.6649 46.9846C53.0462 47.6953 53.2369 48.5273 53.2369 49.4806C53.2369 50.434 53.0462 51.2703 52.6649 51.9896C52.2922 52.709 51.7592 53.2636 51.0659 53.6536C50.3725 54.0436 49.5709 54.2386 48.6609 54.2386C47.7595 54.2386 46.9665 54.0523 46.2819 53.6796C45.5972 53.307 45.0642 52.774 44.6829 52.0806C44.3102 51.3786 44.1239 50.5596 44.1239 49.6236C44.1239 49.3463 44.1412 49.0906 44.1759 48.8566H50.6109C50.5762 48.276 50.3769 47.8253 50.0129 47.5046C49.6575 47.184 49.2199 47.0236 48.6999 47.0236C48.2925 47.0236 47.9329 47.119 47.6209 47.3096C47.3175 47.4916 47.1095 47.743 46.9969 48.0636H44.2799C44.4272 47.4223 44.7002 46.8503 45.0989 46.3476C45.5062 45.845 46.0132 45.4506 46.6199 45.1646C47.2352 44.8786 47.9155 44.7356 48.6609 44.7356ZM48.6089 51.8856C49.1029 51.8856 49.5362 51.7556 49.9089 51.4956C50.2815 51.2356 50.5069 50.8716 50.5849 50.4036H46.7239C46.7499 50.837 46.9405 51.1923 47.2959 51.4696C47.6512 51.747 48.0889 51.8856 48.6089 51.8856ZM61.3537 44.9566V46.9846H58.9097V54.1216H56.3617V46.9846H53.9437V44.9566H61.3537Z" fill="white"/>
<path d="M19.1996 34.4156L18.9319 33.4521L18.9793 35.3911L19.1996 34.4156ZM20.4736 35.2216L19.6736 35.8216L19.6806 35.831L19.6878 35.8402L20.4736 35.2216ZM20.1486 38.4586L20.7839 39.2309V39.2309L20.1486 38.4586ZM13.3496 39.1216H12.3496V40.1216H13.3496V39.1216ZM13.3496 29.9566V28.9566H12.3496V29.9566H13.3496ZM19.9406 30.5806L19.3222 31.3665L19.3284 31.3714L19.9406 30.5806ZM20.3176 33.6876L19.5313 33.0698L19.5293 33.0724L20.3176 33.6876ZM15.8976 33.5966H14.8976V34.5966H15.8976V33.5966ZM15.8976 31.9846V30.9846H14.8976V31.9846H15.8976ZM18.0816 35.6246L17.4148 36.3699L17.4243 36.3784L17.4339 36.3866L18.0816 35.6246ZM15.8976 35.4036V34.4036H14.8976V35.4036H15.8976ZM15.8976 37.0676H14.8976V38.0676H15.8976V37.0676ZM18.9793 35.3911C19.2999 35.4635 19.513 35.6076 19.6736 35.8216L21.2736 34.6216C20.8102 34.0037 20.174 33.6105 19.4198 33.4402L18.9793 35.3911ZM19.6878 35.8402C19.8668 36.0675 19.9546 36.3166 19.9546 36.6256H21.9546C21.9546 35.8774 21.7217 35.1905 21.2593 34.6031L19.6878 35.8402ZM19.9546 36.6256C19.9546 37.1475 19.7899 37.4588 19.5133 37.6864L20.7839 39.2309C21.5819 38.5745 21.9546 37.6638 21.9546 36.6256H19.9546ZM19.5133 37.6864C19.2142 37.9324 18.716 38.1216 17.8866 38.1216V40.1216C18.9985 40.1216 20.0083 39.8689 20.7839 39.2309L19.5133 37.6864ZM17.8866 38.1216H13.3496V40.1216H17.8866V38.1216ZM14.3496 39.1216V29.9566H12.3496V39.1216H14.3496ZM13.3496 30.9566H17.7436V28.9566H13.3496V30.9566ZM17.7436 30.9566C18.5416 30.9566 19.0274 31.1346 19.3222 31.3665L20.559 29.7948C19.7964 29.1947 18.8175 28.9566 17.7436 28.9566V30.9566ZM19.3284 31.3714C19.592 31.5754 19.7466 31.8522 19.7466 32.3356H21.7466C21.7466 31.3111 21.3638 30.4179 20.5528 29.7899L19.3284 31.3714ZM19.7466 32.3356C19.7466 32.6866 19.6572 32.9095 19.5313 33.0698L21.1039 34.3055C21.5499 33.7378 21.7466 33.0594 21.7466 32.3356H19.7466ZM19.5293 33.0724C19.3942 33.2455 19.2105 33.3747 18.9319 33.4521L19.4672 35.3792C20.1246 35.1965 20.6863 34.8405 21.1059 34.3029L19.5293 33.0724ZM15.8976 34.5966H17.1846V32.5966H15.8976V34.5966ZM17.1846 34.5966C17.6175 34.5966 18.128 34.5114 18.5422 34.17C18.9933 33.7982 19.1466 33.2785 19.1466 32.8036H17.1466C17.1466 32.8367 17.1414 32.8202 17.1594 32.7757C17.1799 32.7251 17.2178 32.6698 17.27 32.6268C17.3181 32.5871 17.3516 32.5798 17.3405 32.5828C17.3271 32.5865 17.2795 32.5966 17.1846 32.5966V34.5966ZM19.1466 32.8036C19.1466 32.3306 19.0001 31.8075 18.5543 31.428C18.1393 31.0747 17.6236 30.9846 17.1846 30.9846V32.9846C17.2772 32.9846 17.3219 32.9949 17.3325 32.9978C17.3402 33 17.3054 32.9914 17.2578 32.9508C17.2345 32.931 17.2126 32.9072 17.1939 32.8806C17.1753 32.8542 17.163 32.8296 17.1553 32.8099C17.1404 32.7718 17.1466 32.7628 17.1466 32.8036H19.1466ZM17.1846 30.9846H15.8976V32.9846H17.1846V30.9846ZM14.8976 31.9846V33.5966H16.8976V31.9846H14.8976ZM17.3796 38.0676C17.8155 38.0676 18.3287 37.98 18.7433 37.6327C19.1918 37.2569 19.3416 36.7355 19.3416 36.2616H17.3416C17.3416 36.2986 17.3359 36.2859 17.3523 36.2446C17.3711 36.1972 17.4072 36.1429 17.4589 36.0996C17.5068 36.0595 17.5409 36.0515 17.5315 36.0541C17.5195 36.0575 17.4734 36.0676 17.3796 36.0676V38.0676ZM19.3416 36.2616C19.3416 35.7612 19.1746 35.2413 18.7292 34.8627L17.4339 36.3866C17.4177 36.3728 17.4006 36.3549 17.3849 36.3332C17.3693 36.3115 17.3581 36.2904 17.3507 36.2723C17.336 36.2362 17.3416 36.2261 17.3416 36.2616H19.3416ZM18.7484 34.8794C18.337 34.5113 17.8237 34.4036 17.3666 34.4036V36.4036C17.4464 36.4036 17.481 36.4134 17.484 36.4143C17.4847 36.4145 17.4769 36.4121 17.4634 36.4048C17.4497 36.3972 17.4326 36.3858 17.4148 36.3699L18.7484 34.8794ZM17.3666 34.4036H15.8976V36.4036H17.3666V34.4036ZM14.8976 35.4036V37.0676H16.8976V35.4036H14.8976ZM15.8976 38.0676H17.3796V36.0676H15.8976V38.0676ZM24.0993 38.6146L23.6065 39.4849L23.6145 39.4893L24.0993 38.6146ZM22.3833 36.9376L21.5176 37.4383L21.5212 37.4445L21.5248 37.4506L22.3833 36.9376ZM22.3833 32.0886L21.5221 31.5803L21.5202 31.5835L22.3833 32.0886ZM28.8313 30.4116L28.342 31.2838L28.3465 31.2863L28.8313 30.4116ZM30.5343 32.0886L29.6686 32.5893L29.6712 32.5938L30.5343 32.0886ZM30.5343 36.9376L31.3973 37.4428L31.3999 37.4383L30.5343 36.9376ZM28.8313 38.6146L29.316 39.4893L29.324 39.4848L28.8313 38.6146ZM27.9993 36.2096L27.2552 35.5415L27.2476 35.5501L27.9993 36.2096ZM27.9993 32.7906L27.2476 33.4502L27.2548 33.4584L27.2621 33.4664L27.9993 32.7906ZM24.9183 32.7906L25.6631 33.4579L25.6699 33.4502L24.9183 32.7906ZM24.9183 36.2226L24.1666 36.8823L24.1734 36.8899L24.9183 36.2226ZM24.3333 28.8646L23.6106 29.5559L23.626 29.5719L23.642 29.5873L24.3333 28.8646ZM24.3333 27.3696L23.6262 26.6625L23.6183 26.6704L23.6106 26.6784L24.3333 27.3696ZM25.8283 28.8646L26.5195 29.5873L26.5275 29.5796L26.5354 29.5717L25.8283 28.8646ZM27.1023 28.8646L26.3796 29.5559L26.395 29.5719L26.411 29.5873L27.1023 28.8646ZM27.1023 27.3696L26.3952 26.6625L26.3873 26.6704L26.3796 26.6784L27.1023 27.3696ZM28.5843 28.8646L29.2755 29.5873L29.2835 29.5796L29.2914 29.5717L28.5843 28.8646ZM26.4653 38.2126C25.7692 38.2126 25.1485 38.0528 24.584 37.74L23.6145 39.4893C24.4887 39.9738 25.4453 40.2126 26.4653 40.2126V38.2126ZM24.592 37.7445C24.0237 37.4227 23.5776 36.9868 23.2417 36.4247L21.5248 37.4506C22.0383 38.3098 22.7362 38.992 23.6065 39.4848L24.592 37.7445ZM23.2489 36.437C22.9283 35.8826 22.7593 35.2475 22.7593 34.5066H20.7593C20.7593 35.5684 21.0062 36.554 21.5176 37.4383L23.2489 36.437ZM22.7593 34.5066C22.7593 33.7656 22.9283 33.137 23.2463 32.5938L21.5202 31.5835C21.0062 32.4616 20.7593 33.445 20.7593 34.5066H22.7593ZM23.2444 32.597C23.58 32.0286 24.0231 31.5972 24.584 31.2863L23.6145 29.537C22.7368 30.0234 22.0359 30.71 21.5221 31.5803L23.2444 32.597ZM24.584 31.2863C25.1485 30.9735 25.7692 30.8136 26.4653 30.8136V28.8136C25.4453 28.8136 24.4887 29.0525 23.6145 29.537L24.584 31.2863ZM26.4653 30.8136C27.1719 30.8136 27.7903 30.9743 28.342 31.2838L29.3205 29.5395C28.4509 29.0517 27.492 28.8136 26.4653 28.8136V30.8136ZM28.3465 31.2863C28.9056 31.5962 29.3423 32.0251 29.6686 32.5893L31.3999 31.588C30.8942 30.7135 30.1956 30.0245 29.316 29.537L28.3465 31.2863ZM29.6712 32.5938C29.9892 33.137 30.1583 33.7656 30.1583 34.5066H32.1583C32.1583 33.445 31.9113 32.4616 31.3973 31.5835L29.6712 32.5938ZM30.1583 34.5066C30.1583 35.2475 29.9892 35.8826 29.6686 36.437L31.3999 37.4383C31.9113 36.554 32.1583 35.5684 32.1583 34.5066H30.1583ZM29.6712 36.4325C29.3447 36.9903 28.905 37.4237 28.3385 37.7445L29.324 39.4848C30.1962 38.9909 30.8918 38.3063 31.3973 37.4428L29.6712 36.4325ZM28.3465 37.74C27.782 38.0528 27.1613 38.2126 26.4653 38.2126V40.2126C27.4852 40.2126 28.4418 39.9738 29.316 39.4893L28.3465 37.74ZM26.4653 37.8466C27.3551 37.8466 28.1588 37.5439 28.7509 36.8692L27.2476 35.5501C27.0943 35.7247 26.8754 35.8466 26.4653 35.8466V37.8466ZM28.7433 36.8778C29.3271 36.2276 29.5713 35.401 29.5713 34.5066H27.5713C27.5713 35.0336 27.4341 35.3423 27.2552 35.5415L28.7433 36.8778ZM29.5713 34.5066C29.5713 33.6033 29.3314 32.764 28.7364 32.1149L27.2621 33.4664C27.4298 33.6493 27.5713 33.954 27.5713 34.5066H29.5713ZM28.7509 32.1311C28.1588 31.4564 27.3551 31.1536 26.4653 31.1536V33.1536C26.8754 33.1536 27.0943 33.2756 27.2476 33.4502L28.7509 32.1311ZM26.4653 31.1536C25.5714 31.1536 24.7613 31.4534 24.1666 32.1311L25.6699 33.4502C25.8205 33.2786 26.0418 33.1536 26.4653 33.1536V31.1536ZM24.1734 32.1234C23.5917 32.7728 23.3593 33.609 23.3593 34.5066H25.3593C25.3593 33.9483 25.4995 33.6405 25.6631 33.4579L24.1734 32.1234ZM23.3593 34.5066C23.3593 35.4004 23.5939 36.2296 24.1666 36.8822L25.6699 35.5631C25.4972 35.3663 25.3593 35.0515 25.3593 34.5066H23.3593ZM24.1734 36.8899C24.7701 37.556 25.5782 37.8466 26.4653 37.8466V35.8466C26.035 35.8466 25.8117 35.7213 25.6631 35.5554L24.1734 36.8899ZM25.0743 28.1506C25.0546 28.1506 25.0421 28.1491 25.0355 28.1479C25.0291 28.1468 25.0271 28.1459 25.0281 28.1462C25.0291 28.1466 25.0305 28.1473 25.0312 28.1478C25.0319 28.1482 25.0296 28.1469 25.0245 28.142L23.642 29.5873C24.041 29.9689 24.5414 30.1506 25.0743 30.1506V28.1506ZM25.0559 28.1734C25.051 28.1683 25.0497 28.166 25.0501 28.1667C25.0506 28.1674 25.0513 28.1688 25.0517 28.1698C25.0521 28.1708 25.0511 28.1688 25.05 28.1624C25.0488 28.1558 25.0473 28.1433 25.0473 28.1236H23.0473C23.0473 28.6565 23.229 29.1569 23.6106 29.5559L25.0559 28.1734ZM25.0473 28.1236C25.0473 28.1002 25.0491 28.0845 25.0507 28.0753C25.0522 28.0662 25.0537 28.0624 25.0538 28.0623C25.0538 28.0621 25.0537 28.0624 25.0534 28.063C25.0531 28.0637 25.0528 28.0643 25.0525 28.0647C25.0517 28.0659 25.0523 28.0646 25.0559 28.0609L23.6106 26.6784C23.2235 27.0832 23.0473 27.5908 23.0473 28.1236H25.0473ZM25.0404 28.0767C25.0464 28.0707 25.0492 28.069 25.0483 28.0696C25.0472 28.0703 25.045 28.0716 25.0422 28.0727C25.0395 28.0738 25.0393 28.0735 25.0432 28.0728C25.0472 28.0721 25.0571 28.0706 25.0743 28.0706V26.0706C24.5278 26.0706 24.0223 26.2664 23.6262 26.6625L25.0404 28.0767ZM25.0743 28.0706C25.0953 28.0706 25.1084 28.0724 25.1152 28.0736C25.1217 28.0747 25.1233 28.0756 25.1216 28.075C25.1199 28.0743 25.1177 28.0731 25.1162 28.0721C25.1147 28.0711 25.1164 28.072 25.1212 28.0767L26.5354 26.6625C26.1333 26.2605 25.6205 26.0706 25.0743 26.0706V28.0706ZM25.1212 28.0767C25.1259 28.0815 25.1268 28.0832 25.1258 28.0817C25.1248 28.0802 25.1236 28.078 25.1229 28.0763C25.1223 28.0746 25.1232 28.0762 25.1243 28.0827C25.1255 28.0895 25.1273 28.1026 25.1273 28.1236H27.1273C27.1273 27.5774 26.9374 27.0646 26.5354 26.6625L25.1212 28.0767ZM25.1273 28.1236C25.1273 28.1408 25.1258 28.1507 25.1251 28.1547C25.1244 28.1586 25.1241 28.1584 25.1252 28.1557C25.1263 28.1529 25.1276 28.1507 25.1283 28.1496C25.1289 28.1487 25.1272 28.1515 25.1212 28.1575L26.5354 29.5717C26.9315 29.1756 27.1273 28.6701 27.1273 28.1236H25.1273ZM25.137 28.142C25.1333 28.1456 25.132 28.1462 25.1332 28.1454C25.1336 28.1451 25.1342 28.1448 25.1349 28.1445C25.1355 28.1442 25.1358 28.1441 25.1356 28.1441C25.1355 28.1442 25.1317 28.1457 25.1226 28.1472C25.1134 28.1488 25.0977 28.1506 25.0743 28.1506V30.1506C25.6071 30.1506 26.1147 29.9744 26.5195 29.5873L25.137 28.142ZM27.8433 28.1506C27.8236 28.1506 27.8111 28.1491 27.8045 28.1479C27.7981 28.1468 27.7961 28.1459 27.7971 28.1462C27.7981 28.1466 27.7995 28.1473 27.8002 28.1478C27.8009 28.1482 27.7986 28.1469 27.7935 28.142L26.411 29.5873C26.81 29.9689 27.3104 30.1506 27.8433 30.1506V28.1506ZM27.8249 28.1734C27.82 28.1683 27.8187 28.166 27.8191 28.1667C27.8196 28.1674 27.8203 28.1688 27.8207 28.1698C27.8211 28.1708 27.8201 28.1688 27.819 28.1624C27.8178 28.1558 27.8163 28.1433 27.8163 28.1236H25.8163C25.8163 28.6565 25.998 29.1569 26.3796 29.5559L27.8249 28.1734ZM27.8163 28.1236C27.8163 28.1002 27.8181 28.0845 27.8197 28.0753C27.8212 28.0662 27.8227 28.0624 27.8228 28.0623C27.8228 28.0621 27.8227 28.0624 27.8224 28.063C27.8221 28.0637 27.8218 28.0643 27.8215 28.0647C27.8207 28.0659 27.8213 28.0646 27.8249 28.0609L26.3796 26.6784C25.9925 27.0832 25.8163 27.5908 25.8163 28.1236H27.8163ZM27.8094 28.0767C27.8154 28.0707 27.8182 28.069 27.8173 28.0696C27.8162 28.0703 27.814 28.0716 27.8112 28.0727C27.8085 28.0738 27.8083 28.0735 27.8122 28.0728C27.8162 28.0721 27.8261 28.0706 27.8433 28.0706V26.0706C27.2968 26.0706 26.7913 26.2664 26.3952 26.6625L27.8094 28.0767ZM27.8433 28.0706C27.8604 28.0706 27.8703 28.0721 27.8744 28.0728C27.8782 28.0735 27.878 28.0738 27.8753 28.0727C27.8726 28.0716 27.8703 28.0703 27.8693 28.0696C27.8684 28.069 27.8711 28.0707 27.8772 28.0767L29.2914 26.6625C28.8952 26.2664 28.3898 26.0706 27.8433 26.0706V28.0706ZM27.8772 28.0767C27.8819 28.0815 27.8828 28.0832 27.8818 28.0817C27.8808 28.0802 27.8796 28.078 27.8789 28.0763C27.8783 28.0746 27.8792 28.0762 27.8803 28.0827C27.8815 28.0895 27.8833 28.1026 27.8833 28.1236H29.8833C29.8833 27.5774 29.6934 27.0646 29.2914 26.6625L27.8772 28.0767ZM27.8833 28.1236C27.8833 28.1408 27.8818 28.1507 27.8811 28.1547C27.8804 28.1586 27.8801 28.1584 27.8812 28.1557C27.8823 28.1529 27.8836 28.1507 27.8843 28.1496C27.8849 28.1487 27.8832 28.1515 27.8772 28.1575L29.2914 29.5717C29.6875 29.1756 29.8833 28.6701 29.8833 28.1236H27.8833ZM27.893 28.142C27.8879 28.1469 27.8856 28.1482 27.8863 28.1478C27.8871 28.1473 27.8884 28.1466 27.8894 28.1462C27.8904 28.1459 27.8884 28.1468 27.882 28.1479C27.8754 28.1491 27.8629 28.1506 27.8433 28.1506V30.1506C28.3761 30.1506 28.8765 29.9689 29.2755 29.5873L27.893 28.142ZM40.6367 29.9566L41.5255 30.4149L42.2774 28.9566H40.6367V29.9566ZM37.4127 36.2096L36.5239 35.7514L36.4127 35.967V36.2096H37.4127ZM37.4127 39.1216V40.1216H38.4127V39.1216H37.4127ZM34.8517 39.1216H33.8517V40.1216H34.8517V39.1216ZM34.8517 36.2096H35.8517V35.967L35.7405 35.7514L34.8517 36.2096ZM31.6277 29.9566V28.9566H29.987L30.7389 30.4149L31.6277 29.9566ZM34.5397 29.9566L35.4496 29.5418L35.1828 28.9566H34.5397V29.9566ZM36.1517 33.4926L35.2418 33.9075L36.1517 35.9034L37.0616 33.9075L36.1517 33.4926ZM37.7637 29.9566V28.9566H37.1206L36.8538 29.5418L37.7637 29.9566ZM39.7479 29.4984L36.5239 35.7514L38.3015 36.6679L41.5255 30.4149L39.7479 29.4984ZM36.4127 36.2096V39.1216H38.4127V36.2096H36.4127ZM37.4127 38.1216H34.8517V40.1216H37.4127V38.1216ZM35.8517 39.1216V36.2096H33.8517V39.1216H35.8517ZM35.7405 35.7514L32.5165 29.4984L30.7389 30.4149L33.9629 36.6679L35.7405 35.7514ZM31.6277 30.9566H34.5397V28.9566H31.6277V30.9566ZM33.6298 30.3715L35.2418 33.9075L37.0616 33.0778L35.4496 29.5418L33.6298 30.3715ZM37.0616 33.9075L38.6736 30.3715L36.8538 29.5418L35.2418 33.0778L37.0616 33.9075ZM37.7637 30.9566H40.6367V28.9566H37.7637V30.9566ZM43.9149 29.9566H44.9149V28.9566H43.9149V29.9566ZM44.2529 36.4176L43.4867 37.0603L43.4927 37.0674L43.4988 37.0744L44.2529 36.4176ZM46.3589 36.4176L45.6063 35.7591L45.6048 35.7609L46.3589 36.4176ZM46.7229 29.9566V28.9566H45.7229V29.9566H46.7229ZM49.2709 29.9566H50.2709V28.9566H49.2709V29.9566ZM48.7379 37.4316L49.5943 37.948L49.5976 37.9425L48.7379 37.4316ZM47.2819 38.7706L47.7188 39.6702L47.7241 39.6676L47.2819 38.7706ZM43.2519 38.7706L42.7889 39.657L42.7968 39.6611L42.8047 39.6651L43.2519 38.7706ZM41.8739 37.4316L41.0009 37.9195L41.0065 37.9292L41.8739 37.4316ZM41.3799 29.9566V28.9566H40.3799V29.9566H41.3799ZM43.1869 28.8646L42.4643 29.5559L42.4796 29.5719L42.4957 29.5873L43.1869 28.8646ZM43.1869 27.3696L42.4798 26.6625L42.472 26.6704L42.4643 26.6784L43.1869 27.3696ZM44.6819 28.8646L45.3731 29.5873L45.3812 29.5796L45.389 29.5717L44.6819 28.8646ZM45.9559 28.8646L45.2333 29.5559L45.2486 29.5719L45.2647 29.5873L45.9559 28.8646ZM45.9559 27.3696L45.2488 26.6625L45.241 26.6704L45.2333 26.6784L45.9559 27.3696ZM47.4379 27.3696L48.145 26.6625L48.145 26.6625L47.4379 27.3696ZM47.4379 28.8646L48.1291 29.5873L48.1372 29.5796L48.145 29.5717L47.4379 28.8646ZM42.9149 29.9566V35.2736H44.9149V29.9566H42.9149ZM42.9149 35.2736C42.9149 35.9078 43.0589 36.5502 43.4867 37.0603L45.0191 35.775C44.9962 35.7478 44.9149 35.6275 44.9149 35.2736H42.9149ZM43.4988 37.0744C43.978 37.6246 44.6451 37.8206 45.3059 37.8206V35.8206C45.1652 35.8206 45.0863 35.8002 45.0491 35.786C45.0179 35.774 45.0105 35.7649 45.007 35.7609L43.4988 37.0744ZM45.3059 37.8206C45.9668 37.8206 46.6339 37.6246 47.113 37.0744L45.6048 35.7609C45.6013 35.7649 45.594 35.774 45.5627 35.786C45.5255 35.8002 45.4466 35.8206 45.3059 35.8206V37.8206ZM47.1115 37.0761C47.5585 36.5653 47.7229 35.9231 47.7229 35.2736H45.7229C45.7229 35.5949 45.6446 35.7154 45.6063 35.7591L47.1115 37.0761ZM47.7229 35.2736V29.9566H45.7229V35.2736H47.7229ZM46.7229 30.9566H49.2709V28.9566H46.7229V30.9566ZM48.2709 29.9566V35.2736H50.2709V29.9566H48.2709ZM48.2709 35.2736C48.2709 35.9721 48.1243 36.5067 47.8782 36.9208L49.5976 37.9425C50.0622 37.1605 50.2709 36.2566 50.2709 35.2736H48.2709ZM47.8815 36.9153C47.6247 37.3413 47.2829 37.6553 46.8398 37.8737L47.7241 39.6676C48.5116 39.2794 49.1405 38.7007 49.5943 37.948L47.8815 36.9153ZM46.845 37.8711C46.3883 38.093 45.864 38.2126 45.2539 38.2126V40.2126C46.1345 40.2126 46.9622 40.0376 47.7188 39.6702L46.845 37.8711ZM45.2539 38.2126C44.6433 38.2126 44.1324 38.0928 43.6991 37.8762L42.8047 39.6651C43.5501 40.0378 44.3739 40.2126 45.2539 40.2126V38.2126ZM43.7149 37.8843C43.3099 37.6727 42.9881 37.3644 42.7414 36.9341L41.0065 37.9292C41.4357 38.6776 42.0326 39.2619 42.7889 39.657L43.7149 37.8843ZM42.7469 36.9438C42.5197 36.5373 42.3799 35.9955 42.3799 35.2736H40.3799C40.3799 36.2504 40.5695 37.1473 41.001 37.9195L42.7469 36.9438ZM42.3799 35.2736V29.9566H40.3799V35.2736H42.3799ZM41.3799 30.9566H43.9149V28.9566H41.3799V30.9566ZM43.9279 28.1506C43.9083 28.1506 43.8958 28.1491 43.8892 28.1479C43.8828 28.1468 43.8808 28.1459 43.8817 28.1462C43.8828 28.1466 43.8841 28.1473 43.8849 28.1478C43.8855 28.1482 43.8833 28.1469 43.8781 28.142L42.4957 29.5873C42.8946 29.9689 43.3951 30.1506 43.9279 30.1506V28.1506ZM43.9096 28.1734C43.9047 28.1683 43.9033 28.166 43.9038 28.1667C43.9042 28.1674 43.9049 28.1688 43.9053 28.1698C43.9057 28.1708 43.9048 28.1688 43.9037 28.1624C43.9025 28.1558 43.9009 28.1433 43.9009 28.1236H41.9009C41.9009 28.6565 42.0827 29.1569 42.4643 29.5559L43.9096 28.1734ZM43.9009 28.1236C43.9009 28.1002 43.9028 28.0845 43.9043 28.0753C43.9059 28.0662 43.9074 28.0624 43.9074 28.0623C43.9075 28.0621 43.9074 28.0624 43.9071 28.063C43.9068 28.0637 43.9064 28.0643 43.9061 28.0647C43.9054 28.0659 43.906 28.0646 43.9096 28.0609L42.4643 26.6784C42.0771 27.0832 41.9009 27.5908 41.9009 28.1236H43.9009ZM43.894 28.0767C43.9001 28.0707 43.9028 28.069 43.9019 28.0696C43.9009 28.0703 43.8986 28.0716 43.8959 28.0727C43.8932 28.0738 43.893 28.0735 43.8968 28.0728C43.9008 28.0721 43.9107 28.0706 43.9279 28.0706V26.0706C43.3814 26.0706 42.8759 26.2664 42.4798 26.6625L43.894 28.0767ZM43.9279 28.0706C43.9489 28.0706 43.9621 28.0724 43.9688 28.0736C43.9753 28.0747 43.977 28.0756 43.9753 28.075C43.9735 28.0743 43.9714 28.0731 43.9698 28.0721C43.9684 28.0711 43.9701 28.072 43.9748 28.0767L45.389 26.6625C44.987 26.2605 44.4742 26.0706 43.9279 26.0706V28.0706ZM43.9748 28.0767C43.9795 28.0815 43.9804 28.0832 43.9795 28.0817C43.9784 28.0802 43.9773 28.078 43.9766 28.0763C43.9759 28.0746 43.9768 28.0762 43.978 28.0827C43.9792 28.0895 43.9809 28.1026 43.9809 28.1236H45.9809C45.9809 27.5774 45.7911 27.0646 45.389 26.6625L43.9748 28.0767ZM43.9809 28.1236C43.9809 28.1408 43.9795 28.1507 43.9787 28.1547C43.978 28.1586 43.9777 28.1584 43.9788 28.1557C43.9799 28.1529 43.9812 28.1507 43.9819 28.1496C43.9825 28.1487 43.9809 28.1515 43.9748 28.1575L45.389 29.5717C45.7851 29.1756 45.9809 28.6701 45.9809 28.1236H43.9809ZM43.9907 28.142C43.9869 28.1456 43.9857 28.1462 43.9868 28.1454C43.9873 28.1451 43.9879 28.1448 43.9885 28.1445C43.9891 28.1442 43.9894 28.1441 43.9893 28.1441C43.9892 28.1442 43.9853 28.1457 43.9763 28.1472C43.967 28.1488 43.9513 28.1506 43.9279 28.1506V30.1506C44.4608 30.1506 44.9684 29.9744 45.3731 29.5873L43.9907 28.142ZM46.6969 28.1506C46.6773 28.1506 46.6648 28.1491 46.6582 28.1479C46.6518 28.1468 46.6498 28.1459 46.6507 28.1462C46.6518 28.1466 46.6531 28.1473 46.6539 28.1478C46.6545 28.1482 46.6523 28.1469 46.6471 28.142L45.2647 29.5873C45.6636 29.9689 46.1641 30.1506 46.6969 30.1506V28.1506ZM46.6786 28.1734C46.6737 28.1683 46.6723 28.166 46.6728 28.1667C46.6732 28.1674 46.6739 28.1688 46.6743 28.1698C46.6747 28.1708 46.6738 28.1688 46.6727 28.1624C46.6715 28.1558 46.6699 28.1433 46.6699 28.1236H44.6699C44.6699 28.6565 44.8517 29.1569 45.2333 29.5559L46.6786 28.1734ZM46.6699 28.1236C46.6699 28.1002 46.6718 28.0845 46.6733 28.0753C46.6749 28.0662 46.6764 28.0624 46.6764 28.0623C46.6765 28.0621 46.6764 28.0624 46.6761 28.063C46.6758 28.0637 46.6754 28.0643 46.6751 28.0647C46.6744 28.0659 46.675 28.0646 46.6786 28.0609L45.2333 26.6784C44.8461 27.0832 44.6699 27.5908 44.6699 28.1236H46.6699ZM46.663 28.0767C46.6691 28.0707 46.6718 28.069 46.6709 28.0696C46.6699 28.0703 46.6676 28.0716 46.6649 28.0727C46.6622 28.0738 46.662 28.0735 46.6658 28.0728C46.6698 28.0721 46.6797 28.0706 46.6969 28.0706V26.0706C46.1504 26.0706 45.6449 26.2664 45.2488 26.6625L46.663 28.0767ZM46.6969 28.0706C46.7141 28.0706 46.724 28.0721 46.728 28.0728C46.7318 28.0735 46.7317 28.0738 46.729 28.0727C46.7262 28.0716 46.7239 28.0703 46.7229 28.0696C46.722 28.069 46.7248 28.0707 46.7308 28.0767L48.145 26.6625C47.7489 26.2664 47.2434 26.0706 46.6969 26.0706V28.0706ZM46.7308 28.0767C46.7355 28.0815 46.7364 28.0832 46.7355 28.0817C46.7344 28.0802 46.7333 28.078 46.7326 28.0763C46.7319 28.0746 46.7328 28.0762 46.734 28.0827C46.7352 28.0895 46.7369 28.1026 46.7369 28.1236H48.7369C48.7369 27.5774 48.5471 27.0646 48.145 26.6625L46.7308 28.0767ZM46.7369 28.1236C46.7369 28.1408 46.7355 28.1507 46.7347 28.1547C46.734 28.1586 46.7337 28.1584 46.7348 28.1557C46.7359 28.1529 46.7372 28.1507 46.7379 28.1496C46.7385 28.1487 46.7369 28.1515 46.7308 28.1575L48.145 29.5717C48.5411 29.1756 48.7369 28.6701 48.7369 28.1236H46.7369ZM46.7467 28.142C46.7416 28.1469 46.7393 28.1482 46.74 28.1478C46.7407 28.1473 46.7421 28.1466 46.7431 28.1462C46.744 28.1459 46.742 28.1468 46.7356 28.1479C46.7291 28.1491 46.7166 28.1506 46.6969 28.1506V30.1506C47.2298 30.1506 47.7302 29.9689 48.1291 29.5873L46.7467 28.142ZM56.0948 39.1216L55.2814 39.7034L55.5806 40.1216H56.0948V39.1216ZM53.2218 35.1046L54.0352 34.5229L52.2218 31.9875V35.1046H53.2218ZM53.2218 39.1216V40.1216H54.2218V39.1216H53.2218ZM50.6738 39.1216H49.6738V40.1216H50.6738V39.1216ZM50.6738 29.9566V28.9566H49.6738V29.9566H50.6738ZM53.2218 29.9566H54.2218V28.9566H53.2218V29.9566ZM53.2218 33.9086H52.2218V37.0076L54.0332 34.4932L53.2218 33.9086ZM56.0688 29.9566V28.9566H55.5567L55.2574 29.3721L56.0688 29.9566ZM59.0068 29.9566L59.804 30.5604L61.0185 28.9566H59.0068V29.9566ZM55.6398 34.4026L54.8426 33.7989L54.3878 34.3994L54.8395 35.0023L55.6398 34.4026ZM59.1758 39.1216V40.1216H61.1747L59.9761 38.522L59.1758 39.1216ZM56.9082 38.5399L54.0352 34.5229L52.4084 35.6864L55.2814 39.7034L56.9082 38.5399ZM52.2218 35.1046V39.1216H54.2218V35.1046H52.2218ZM53.2218 38.1216H50.6738V40.1216H53.2218V38.1216ZM51.6738 39.1216V29.9566H49.6738V39.1216H51.6738ZM50.6738 30.9566H53.2218V28.9566H50.6738V30.9566ZM52.2218 29.9566V33.9086H54.2218V29.9566H52.2218ZM54.0332 34.4932L56.8802 30.5412L55.2574 29.3721L52.4104 33.3241L54.0332 34.4932ZM56.0688 30.9566H59.0068V28.9566H56.0688V30.9566ZM58.2096 29.3529L54.8426 33.7989L56.437 35.0064L59.804 30.5604L58.2096 29.3529ZM54.8395 35.0023L58.3755 39.7213L59.9761 38.522L56.4401 33.803L54.8395 35.0023ZM59.1758 38.1216H56.0948V40.1216H59.1758V38.1216ZM17.3736 44.9566H18.3736V43.9566H17.3736V44.9566ZM17.3736 46.9846V47.9846H18.3736V46.9846H17.3736ZM13.7076 46.9846V45.9846H12.7076V46.9846H13.7076ZM13.7076 48.5966H12.7076V49.5966H13.7076V48.5966ZM16.4116 48.5966H17.4116V47.5966H16.4116V48.5966ZM16.4116 50.5336V51.5336H17.4116V50.5336H16.4116ZM13.7076 50.5336V49.5336H12.7076V50.5336H13.7076ZM13.7076 54.1216V55.1216H14.7076V54.1216H13.7076ZM11.1596 54.1216H10.1596V55.1216H11.1596V54.1216ZM11.1596 44.9566V43.9566H10.1596V44.9566H11.1596ZM16.3736 44.9566V46.9846H18.3736V44.9566H16.3736ZM17.3736 45.9846H13.7076V47.9846H17.3736V45.9846ZM12.7076 46.9846V48.5966H14.7076V46.9846H12.7076ZM13.7076 49.5966H16.4116V47.5966H13.7076V49.5966ZM15.4116 48.5966V50.5336H17.4116V48.5966H15.4116ZM16.4116 49.5336H13.7076V51.5336H16.4116V49.5336ZM12.7076 50.5336V54.1216H14.7076V50.5336H12.7076ZM13.7076 53.1216H11.1596V55.1216H13.7076V53.1216ZM12.1596 54.1216V44.9566H10.1596V54.1216H12.1596ZM11.1596 45.9566H17.3736V43.9566H11.1596V45.9566ZM20.9427 44.9566H21.9427V43.9566H20.9427V44.9566ZM21.2808 51.4176L20.5146 52.0603L20.5205 52.0674L20.5267 52.0744L21.2808 51.4176ZM23.3868 51.4176L22.6342 50.7591L22.6327 50.7609L23.3868 51.4176ZM23.7508 44.9566V43.9566H22.7508V44.9566H23.7508ZM26.2987 44.9566H27.2987V43.9566H26.2987V44.9566ZM25.7657 52.4316L26.6221 52.948L26.6254 52.9425L25.7657 52.4316ZM24.3098 53.7706L24.7467 54.6702L24.7519 54.6676L24.3098 53.7706ZM20.2797 53.7706L19.8167 54.657L19.8246 54.6611L19.8325 54.6651L20.2797 53.7706ZM18.9017 52.4316L18.0288 52.9195L18.0343 52.9292L18.9017 52.4316ZM18.4078 44.9566V43.9566H17.4078V44.9566H18.4078ZM20.2148 43.8646L19.4921 44.5559L19.5075 44.5719L19.5235 44.5873L20.2148 43.8646ZM20.2148 42.3696L19.5076 41.6625L19.4998 41.6704L19.4921 41.6784L20.2148 42.3696ZM21.7098 43.8646L22.401 44.5873L22.409 44.5796L22.4169 44.5717L21.7098 43.8646ZM22.9838 43.8646L22.2611 44.5559L22.2765 44.5719L22.2925 44.5873L22.9838 43.8646ZM22.9838 42.3696L22.2766 41.6625L22.2688 41.6704L22.2611 41.6784L22.9838 42.3696ZM24.4658 42.3696L25.1729 41.6625L24.4658 42.3696ZM24.4658 43.8646L25.157 44.5873L25.165 44.5796L25.1729 44.5717L24.4658 43.8646ZM19.9427 44.9566V50.2736H21.9427V44.9566H19.9427ZM19.9427 50.2736C19.9427 50.9078 20.0868 51.5502 20.5146 52.0603L22.0469 50.775C22.0241 50.7478 21.9427 50.6275 21.9427 50.2736H19.9427ZM20.5267 52.0744C21.0058 52.6246 21.6729 52.8206 22.3337 52.8206V50.8206C22.1931 50.8206 22.1142 50.8002 22.0769 50.786C22.0457 50.774 22.0384 50.7649 22.0348 50.7609L20.5267 52.0744ZM22.3337 52.8206C22.9946 52.8206 23.6617 52.6246 24.1408 52.0744L22.6327 50.7609C22.6291 50.7649 22.6218 50.774 22.5906 50.786C22.5533 50.8002 22.4744 50.8206 22.3337 50.8206V52.8206ZM24.1393 52.0761C24.5864 51.5653 24.7508 50.9231 24.7508 50.2736H22.7508C22.7508 50.5949 22.6725 50.7154 22.6342 50.7591L24.1393 52.0761ZM24.7508 50.2736V44.9566H22.7508V50.2736H24.7508ZM23.7508 45.9566H26.2987V43.9566H23.7508V45.9566ZM25.2987 44.9566V50.2736H27.2987V44.9566H25.2987ZM25.2987 50.2736C25.2987 50.9721 25.1521 51.5067 24.9061 51.9208L26.6254 52.9425C27.0901 52.1605 27.2987 51.2566 27.2987 50.2736H25.2987ZM24.9094 51.9153C24.6525 52.3413 24.3107 52.6553 23.8676 52.8737L24.7519 54.6676C25.5395 54.2794 26.1683 53.7007 26.6221 52.948L24.9094 51.9153ZM23.8728 52.8711C23.4161 53.093 22.8918 53.2126 22.2817 53.2126V55.2126C23.1623 55.2126 23.9901 55.0376 24.7467 54.6702L23.8728 52.8711ZM22.2817 53.2126C21.6711 53.2126 21.1602 53.0928 20.727 52.8762L19.8325 54.6651C20.578 55.0378 21.4017 55.2126 22.2817 55.2126V53.2126ZM20.7428 52.8843C20.3377 52.6727 20.016 52.3644 19.7692 51.9341L18.0343 52.9292C18.4635 53.6776 19.0604 54.2619 19.8167 54.657L20.7428 52.8843ZM19.7747 51.9438C19.5475 51.5373 19.4078 50.9955 19.4078 50.2736H17.4078C17.4078 51.2504 17.5973 52.1473 18.0288 52.9195L19.7747 51.9438ZM19.4078 50.2736V44.9566H17.4078V50.2736H19.4078ZM18.4078 45.9566H20.9427V43.9566H18.4078V45.9566ZM20.9558 43.1506C20.9361 43.1506 20.9236 43.1491 20.917 43.1479C20.9106 43.1468 20.9086 43.1459 20.9096 43.1462C20.9106 43.1466 20.912 43.1473 20.9127 43.1478C20.9134 43.1482 20.9111 43.1469 20.906 43.142L19.5235 44.5873C19.9225 44.9689 20.4229 45.1506 20.9558 45.1506V43.1506ZM20.9374 43.1734C20.9325 43.1683 20.9312 43.166 20.9316 43.1667C20.9321 43.1674 20.9328 43.1688 20.9332 43.1698C20.9335 43.1708 20.9326 43.1688 20.9315 43.1624C20.9303 43.1558 20.9288 43.1433 20.9288 43.1236H18.9288C18.9288 43.6565 19.1105 44.1569 19.4921 44.5559L20.9374 43.1734ZM20.9288 43.1236C20.9288 43.1002 20.9306 43.0845 20.9322 43.0753C20.9337 43.0662 20.9352 43.0624 20.9352 43.0623C20.9353 43.0621 20.9352 43.0624 20.9349 43.063C20.9346 43.0637 20.9342 43.0643 20.934 43.0647C20.9332 43.0659 20.9338 43.0646 20.9374 43.0609L19.4921 41.6784C19.105 42.0832 18.9288 42.5908 18.9288 43.1236H20.9288ZM20.9219 43.0767C20.9279 43.0707 20.9306 43.069 20.9297 43.0696C20.9287 43.0703 20.9264 43.0716 20.9237 43.0727C20.921 43.0738 20.9208 43.0735 20.9247 43.0728C20.9287 43.0721 20.9386 43.0706 20.9558 43.0706V41.0706C20.4092 41.0706 19.9038 41.2664 19.5076 41.6625L20.9219 43.0767ZM20.9558 43.0706C20.9768 43.0706 20.9899 43.0724 20.9966 43.0736C21.0031 43.0747 21.0048 43.0756 21.0031 43.075C21.0014 43.0743 20.9992 43.0731 20.9977 43.0721C20.9962 43.0711 20.9979 43.072 21.0026 43.0767L22.4169 41.6625C22.0148 41.2605 21.502 41.0706 20.9558 41.0706V43.0706ZM21.0026 43.0767C21.0074 43.0815 21.0083 43.0832 21.0073 43.0817C21.0063 43.0802 21.0051 43.078 21.0044 43.0763C21.0038 43.0746 21.0047 43.0762 21.0058 43.0827C21.007 43.0895 21.0087 43.1026 21.0087 43.1236H23.0087C23.0087 42.5774 22.8189 42.0646 22.4169 41.6625L21.0026 43.0767ZM21.0087 43.1236C21.0087 43.1408 21.0073 43.1507 21.0066 43.1547C21.0059 43.1586 21.0056 43.1584 21.0066 43.1557C21.0078 43.1529 21.0091 43.1507 21.0098 43.1496C21.0104 43.1488 21.0087 43.1515 21.0026 43.1575L22.4169 44.5717C22.813 44.1756 23.0087 43.6701 23.0087 43.1236H21.0087ZM21.0185 43.142C21.0148 43.1456 21.0135 43.1462 21.0147 43.1454C21.0151 43.1451 21.0157 43.1448 21.0163 43.1445C21.017 43.1442 21.0173 43.1441 21.0171 43.1441C21.017 43.1442 21.0132 43.1457 21.0041 43.1472C20.9949 43.1488 20.9792 43.1506 20.9558 43.1506V45.1506C21.4886 45.1506 21.9962 44.9744 22.401 44.5873L21.0185 43.142ZM23.7248 43.1506C23.7051 43.1506 23.6926 43.1491 23.686 43.1479C23.6796 43.1468 23.6776 43.1459 23.6786 43.1462C23.6796 43.1466 23.681 43.1473 23.6817 43.1478C23.6824 43.1482 23.6801 43.1469 23.675 43.142L22.2925 44.5873C22.6915 44.9689 23.1919 45.1506 23.7248 45.1506V43.1506ZM23.7064 43.1734C23.7015 43.1683 23.7002 43.166 23.7006 43.1667C23.7011 43.1674 23.7018 43.1688 23.7022 43.1698C23.7025 43.1708 23.7016 43.1688 23.7005 43.1624C23.6993 43.1558 23.6978 43.1433 23.6978 43.1236H21.6978C21.6978 43.6565 21.8795 44.1569 22.2611 44.5559L23.7064 43.1734ZM23.6978 43.1236C23.6978 43.1002 23.6996 43.0845 23.7012 43.0753C23.7027 43.0662 23.7042 43.0624 23.7042 43.0623C23.7043 43.0621 23.7042 43.0624 23.7039 43.063C23.7036 43.0637 23.7032 43.0643 23.703 43.0647C23.7022 43.0659 23.7028 43.0646 23.7064 43.0609L22.2611 41.6784C21.874 42.0832 21.6978 42.5908 21.6978 43.1236H23.6978ZM23.6909 43.0767C23.6969 43.0707 23.6996 43.069 23.6987 43.0696C23.6977 43.0703 23.6954 43.0716 23.6927 43.0727C23.69 43.0738 23.6898 43.0735 23.6937 43.0728C23.6977 43.0721 23.7076 43.0706 23.7248 43.0706V41.0706C23.1782 41.0706 22.6728 41.2664 22.2766 41.6625L23.6909 43.0767ZM23.7248 43.0706C23.7419 43.0706 23.7518 43.0721 23.7559 43.0728C23.7597 43.0735 23.7595 43.0738 23.7568 43.0727C23.7541 43.0716 23.7518 43.0703 23.7508 43.0696C23.7499 43.069 23.7526 43.0707 23.7586 43.0767L25.1729 41.6625C24.7767 41.2664 24.2713 41.0706 23.7248 41.0706V43.0706ZM23.7586 43.0767C23.7634 43.0815 23.7643 43.0832 23.7633 43.0817C23.7623 43.0802 23.7611 43.078 23.7604 43.0763C23.7598 43.0746 23.7607 43.0762 23.7618 43.0827C23.763 43.0895 23.7648 43.1026 23.7648 43.1236H25.7648C25.7648 42.5774 25.5749 42.0646 25.1729 41.6625L23.7586 43.0767ZM23.7648 43.1236C23.7648 43.1408 23.7633 43.1507 23.7626 43.1547C23.7619 43.1586 23.7616 43.1584 23.7627 43.1557C23.7638 43.1529 23.7651 43.1507 23.7658 43.1496C23.7664 43.1488 23.7647 43.1515 23.7586 43.1575L25.1729 44.5717C25.569 44.1756 25.7648 43.6701 25.7648 43.1236H23.7648ZM23.7745 43.142C23.7694 43.1469 23.7671 43.1482 23.7678 43.1478C23.7685 43.1473 23.7699 43.1466 23.7709 43.1462C23.7719 43.1459 23.7699 43.1468 23.7635 43.1479C23.7569 43.1491 23.7444 43.1506 23.7248 43.1506V45.1506C24.2576 45.1506 24.758 44.9689 25.157 44.5873L23.7745 43.142ZM32.3426 54.1216L31.4622 54.5957L31.7453 55.1216H32.3426V54.1216ZM30.5226 50.7416L31.4031 50.2675L31.1199 49.7416H30.5226V50.7416ZM30.2496 50.7416V49.7416H29.2496V50.7416H30.2496ZM30.2496 54.1216V55.1216H31.2496V54.1216H30.2496ZM27.7016 54.1216H26.7016V55.1216H27.7016V54.1216ZM27.7016 44.9566V43.9566H26.7016V44.9566H27.7016ZM33.5906 45.3466L33.1373 46.2381L33.1495 46.2441L33.5906 45.3466ZM34.7476 46.3996L33.8814 46.8994L33.8857 46.9067L34.7476 46.3996ZM34.6176 49.5456L33.8089 48.9575L33.807 48.9602L34.6176 49.5456ZM33.1226 50.5466L32.833 49.5895L31.6254 49.955L32.2569 51.0472L33.1226 50.5466ZM35.1896 54.1216V55.1216H36.9229L36.0553 53.6211L35.1896 54.1216ZM30.2496 48.9996H29.2496V49.9996H30.2496V48.9996ZM32.2906 48.7526L31.6019 48.0276L32.2906 48.7526ZM32.2776 47.3486L31.5705 48.0557L31.5882 48.0734L31.6067 48.0902L32.2776 47.3486ZM30.2496 47.0886V46.0886H29.2496V47.0886H30.2496ZM33.2231 53.6475L31.4031 50.2675L29.6422 51.2157L31.4622 54.5957L33.2231 53.6475ZM30.5226 49.7416H30.2496V51.7416H30.5226V49.7416ZM29.2496 50.7416V54.1216H31.2496V50.7416H29.2496ZM30.2496 53.1216H27.7016V55.1216H30.2496V53.1216ZM28.7016 54.1216V44.9566H26.7016V54.1216H28.7016ZM27.7016 45.9566H31.7186V43.9566H27.7016V45.9566ZM31.7186 45.9566C32.3412 45.9566 32.8006 46.0668 33.1374 46.238L34.0439 44.4553C33.358 44.1065 32.5694 43.9566 31.7186 43.9566V45.9566ZM33.1495 46.2441C33.5005 46.4166 33.73 46.6368 33.8814 46.8994L35.6138 45.8999C35.2453 45.2612 34.7034 44.7793 34.0318 44.4492L33.1495 46.2441ZM33.8857 46.9067C34.048 47.1825 34.1376 47.5032 34.1376 47.8946H36.1376C36.1376 47.1767 35.9673 46.5008 35.6096 45.8926L33.8857 46.9067ZM34.1376 47.8946C34.1376 48.3205 34.0237 48.6621 33.8089 48.9575L35.4264 50.1338C35.9049 49.4759 36.1376 48.7168 36.1376 47.8946H34.1376ZM33.807 48.9602C33.6205 49.2183 33.3235 49.4411 32.833 49.5895L33.4123 51.5038C34.2391 51.2536 34.9387 50.809 35.4283 50.1311L33.807 48.9602ZM32.2569 51.0472L34.3239 54.6222L36.0553 53.6211L33.9883 50.0461L32.2569 51.0472ZM35.1896 53.1216H32.3426V55.1216H35.1896V53.1216ZM30.2496 49.9996H31.5106V47.9996H30.2496V49.9996ZM31.5106 49.9996C31.999 49.9996 32.5511 49.8846 32.9794 49.4776L31.6019 48.0276C31.6195 48.0109 31.6363 47.9993 31.6492 47.9919C31.6617 47.9848 31.6677 47.9833 31.6637 47.9846C31.6537 47.9877 31.6079 47.9996 31.5106 47.9996V49.9996ZM32.9794 49.4776C33.4072 49.0712 33.5506 48.536 33.5506 48.0376H31.5506C31.5506 48.103 31.5414 48.121 31.5458 48.1087C31.5483 48.102 31.5538 48.0892 31.5641 48.0732C31.5745 48.057 31.5874 48.0414 31.6019 48.0276L32.9794 49.4776ZM33.5506 48.0376C33.5506 47.522 33.3818 46.9991 32.9485 46.6071L31.6067 48.0902C31.5967 48.0811 31.5854 48.0688 31.5749 48.0535C31.5643 48.0383 31.5572 48.024 31.5527 48.0128C31.5437 47.9901 31.5506 47.9927 31.5506 48.0376H33.5506ZM32.9847 46.6415C32.562 46.2188 32.0113 46.0886 31.5106 46.0886V48.0886C31.5968 48.0886 31.6327 48.1 31.6348 48.1007C31.6351 48.1008 31.627 48.098 31.6139 48.0901C31.6005 48.082 31.5853 48.0705 31.5705 48.0557L32.9847 46.6415ZM31.5106 46.0886H30.2496V48.0886H31.5106V46.0886ZM29.2496 47.0886V48.9996H31.2496V47.0886H29.2496ZM37.1284 53.4586L36.53 54.2599L36.5366 54.2647L37.1284 53.4586ZM36.0234 51.2746V50.2746H34.9668L35.0249 51.3296L36.0234 51.2746ZM38.7404 51.2746L39.7371 51.1938L39.6626 50.2746H38.7404V51.2746ZM39.0264 51.9766L38.3596 52.7219H38.3596L39.0264 51.9766ZM40.2354 52.0286L40.8428 52.823L40.8493 52.818L40.2354 52.0286ZM40.0924 50.9106L40.5981 50.0479H40.5981L40.0924 50.9106ZM38.8704 50.4166L38.5541 51.3654L38.5629 51.3682L38.8704 50.4166ZM37.4144 49.8446L36.9504 50.7305L36.9628 50.737L36.9755 50.7432L37.4144 49.8446ZM36.4524 49.0256L35.6478 49.6195L35.6558 49.6303L35.664 49.6409L36.4524 49.0256ZM36.4914 46.1006L37.3074 46.6787L37.3129 46.6707L36.4914 46.1006ZM37.7134 45.1386L37.3287 44.2156L37.3287 44.2156L37.7134 45.1386ZM42.0294 45.5676L41.4073 46.3506L41.4132 46.3553L41.4191 46.3599L42.0294 45.5676ZM43.0564 47.6606V48.6606H44.1056L44.0552 47.6126L43.0564 47.6606ZM40.2874 47.6606L39.2878 47.6919L39.3181 48.6606H40.2874V47.6606ZM40.0274 47.0366L39.363 47.7841L39.373 47.7929L39.3832 47.8016L40.0274 47.0366ZM38.9484 46.9976L39.6288 47.7304L38.9484 46.9976ZM38.9614 47.9336L38.2543 48.6407L38.2778 48.6643L38.3029 48.6862L38.9614 47.9336ZM39.4684 48.2586L39.0369 49.1608L39.0531 49.1685L39.0696 49.1757L39.4684 48.2586ZM40.3524 48.5966L40.0173 49.5389L40.0277 49.5425L40.3524 48.5966ZM41.7824 49.1946L41.3107 50.0764L41.3228 50.0829L41.3351 50.0891L41.7824 49.1946ZM42.7574 50.0136L41.9597 50.6168L41.9679 50.6277L41.9765 50.6383L42.7574 50.0136ZM42.7574 52.8086L41.9151 52.2696L41.9112 52.2756L41.9075 52.2817L42.7574 52.8086ZM41.5744 53.8356L41.1392 52.9353L41.1332 52.9382L41.5744 53.8356ZM39.7544 53.2126C38.8463 53.2126 38.1937 53.0002 37.7202 52.6526L36.5366 54.2647C37.4323 54.9224 38.5304 55.2126 39.7544 55.2126V53.2126ZM37.7267 52.6574C37.3067 52.3437 37.0595 51.9044 37.0218 51.2197L35.0249 51.3296C35.0912 52.5342 35.5807 53.5509 36.53 54.2599L37.7267 52.6574ZM36.0234 52.2746H38.7404V50.2746H36.0234V52.2746ZM37.7436 51.3555C37.781 51.8161 37.932 52.3393 38.3596 52.7219L39.6932 51.2314C39.7149 51.2509 39.731 51.2703 39.7421 51.2866C39.7529 51.3024 39.7571 51.3126 39.7575 51.3133C39.7577 51.3138 39.7542 51.3054 39.7498 51.2852C39.7453 51.265 39.7404 51.2351 39.7371 51.1938L37.7436 51.3555ZM38.3596 52.7219C38.7392 53.0616 39.2034 53.1976 39.6634 53.1976V51.1976C39.6278 51.1976 39.6226 51.1927 39.6369 51.1976C39.6439 51.2001 39.6536 51.2042 39.6645 51.2106C39.6755 51.2171 39.6852 51.2243 39.6932 51.2314L38.3596 52.7219ZM39.6634 53.1976C40.0587 53.1976 40.4798 53.1006 40.8428 52.823L39.6279 51.2343C39.6421 51.2234 39.6564 51.2147 39.6695 51.2082C39.6825 51.2016 39.6927 51.1981 39.6985 51.1964C39.7097 51.1931 39.7009 51.1976 39.6634 51.1976V53.1976ZM40.8493 52.818C41.2633 52.496 41.4694 52.0324 41.4694 51.5346H39.4694C39.4694 51.5116 39.4743 51.4553 39.5071 51.3861C39.5407 51.3152 39.5865 51.2664 39.6214 51.2393L40.8493 52.818ZM41.4694 51.5346C41.4694 50.8762 41.1242 50.3564 40.5981 50.0479L39.5866 51.7733C39.5971 51.7795 39.5581 51.7586 39.5192 51.6943C39.478 51.6261 39.4694 51.5628 39.4694 51.5346H41.4694ZM40.5981 50.0479C40.2484 49.8429 39.7547 49.6515 39.1778 49.4651L38.5629 51.3682C39.1127 51.5458 39.4337 51.6837 39.5866 51.7733L40.5981 50.0479ZM39.1866 49.468C38.6114 49.2762 38.1714 49.1015 37.8532 48.9461L36.9755 50.7432C37.4027 50.9518 37.9333 51.1584 38.5541 51.3653L39.1866 49.468ZM37.8784 48.9588C37.6523 48.8404 37.439 48.6644 37.2407 48.4104L35.664 49.6409C36.0204 50.0975 36.4484 50.4676 36.9504 50.7305L37.8784 48.9588ZM37.2569 48.4318C37.1471 48.283 37.0494 48.0364 37.0494 47.6086H35.0494C35.0494 48.3422 35.2203 49.0403 35.6478 49.6195L37.2569 48.4318ZM37.0494 47.6086C37.0494 47.193 37.1504 46.9003 37.3074 46.6787L35.6753 45.5226C35.243 46.1329 35.0494 46.8456 35.0494 47.6086H37.0494ZM37.3129 46.6707C37.4889 46.4171 37.7379 46.2118 38.098 46.0617L37.3287 44.2156C36.6488 44.4989 36.0831 44.9348 35.6698 45.5306L37.3129 46.6707ZM38.098 46.0617C38.4773 45.9037 38.9327 45.8136 39.4814 45.8136V43.8136C38.7127 43.8136 37.9894 43.9403 37.3287 44.2156L38.098 46.0617ZM39.4814 45.8136C40.3938 45.8136 41.0009 46.0277 41.4073 46.3506L42.6514 44.7847C41.7925 44.1022 40.7009 43.8136 39.4814 43.8136V45.8136ZM41.4191 46.3599C41.7996 46.653 42.0265 47.0626 42.0575 47.7087L44.0552 47.6126C43.9996 46.456 43.5418 45.4703 42.6396 44.7754L41.4191 46.3599ZM43.0564 46.6606H40.2874V48.6606H43.0564V46.6606ZM41.2869 47.6294C41.2721 47.1554 41.1123 46.6429 40.6715 46.2717L39.3832 47.8016C39.3626 47.7841 39.3432 47.7635 39.3266 47.7406C39.3102 47.7179 39.2994 47.6971 39.2928 47.6813C39.28 47.6505 39.2865 47.6475 39.2878 47.6919L41.2869 47.6294ZM40.6917 46.2892C40.3169 45.956 39.8601 45.8286 39.4164 45.8286V47.8286C39.4504 47.8286 39.4531 47.8333 39.4353 47.8273C39.4265 47.8243 39.4145 47.8192 39.4008 47.8113C39.387 47.8034 39.3742 47.794 39.363 47.7841L40.6917 46.2892ZM39.4164 45.8286C39.0143 45.8286 38.6022 45.9544 38.2679 46.2648L39.6288 47.7304C39.5908 47.7657 39.5442 47.794 39.496 47.8114C39.4501 47.828 39.4198 47.8286 39.4164 47.8286V45.8286ZM38.2679 46.2648C37.8931 46.6129 37.7664 47.0686 37.7664 47.4786H39.7664C39.7664 47.4705 39.7676 47.5021 39.7471 47.5563C39.7249 47.6151 39.6852 47.6781 39.6288 47.7304L38.2679 46.2648ZM37.7664 47.4786C37.7664 47.9345 37.9493 48.3358 38.2543 48.6407L39.6685 47.2265C39.6832 47.2412 39.7112 47.2747 39.7343 47.3285C39.7578 47.3834 39.7664 47.4368 39.7664 47.4786H37.7664ZM38.3029 48.6862C38.5221 48.878 38.7712 49.0337 39.0369 49.1608L39.8998 47.3565C39.7668 47.2929 39.678 47.2319 39.6199 47.1811L38.3029 48.6862ZM39.0696 49.1757C39.3009 49.2763 39.6213 49.3981 40.0173 49.5389L40.6874 47.6544C40.3034 47.5179 40.0345 47.4143 39.8671 47.3416L39.0696 49.1757ZM40.0277 49.5425C40.5782 49.7315 41.0011 49.9108 41.3107 50.0764L42.254 48.3129C41.8183 48.0798 41.2878 47.8605 40.677 47.6508L40.0277 49.5425ZM41.3351 50.0891C41.5726 50.2078 41.7796 50.3785 41.9597 50.6168L43.555 49.4105C43.1978 48.9381 42.7548 48.5628 42.2296 48.3002L41.3351 50.0891ZM41.9765 50.6383C42.0839 50.7726 42.1734 50.98 42.1734 51.3396H44.1734C44.1734 50.6246 43.9855 49.948 43.5382 49.3889L41.9765 50.6383ZM42.1734 51.3396C42.1734 51.7068 42.083 52.0072 41.9151 52.2696L43.5996 53.3477C43.9864 52.7434 44.1734 52.0644 44.1734 51.3396H42.1734ZM41.9075 52.2817C41.7516 52.5331 41.5116 52.7553 41.1392 52.9353L42.0095 54.736C42.6771 54.4133 43.2258 53.9509 43.6073 53.3356L41.9075 52.2817ZM41.1332 52.9382C40.7873 53.1082 40.3382 53.2126 39.7544 53.2126V55.2126C40.5745 55.2126 41.3387 55.0657 42.0155 54.7331L41.1332 52.9382ZM51.0529 45.3206L50.5579 46.1896L50.5626 46.1922L51.0529 45.3206ZM52.6649 46.9846L51.7813 47.453L51.7837 47.4575L52.6649 46.9846ZM52.6649 51.9896L51.7813 51.5212L51.777 51.5296L52.6649 51.9896ZM51.0659 53.6536L51.5561 54.5252L51.0659 53.6536ZM46.2819 53.6796L45.8038 54.558L46.2819 53.6796ZM44.6829 52.0806L43.7996 52.5495L43.8031 52.5561L43.8067 52.5626L44.6829 52.0806ZM44.1759 48.8566V47.8566H43.3131L43.1867 48.7101L44.1759 48.8566ZM50.6109 48.8566V49.8566H51.6724L51.6091 48.797L50.6109 48.8566ZM50.0129 47.5046L49.3429 48.2471L49.3519 48.255L50.0129 47.5046ZM47.6209 47.3096L48.1354 48.1672L48.1423 48.1629L47.6209 47.3096ZM46.9969 48.0636V49.0636H47.7055L47.9403 48.3951L46.9969 48.0636ZM44.2799 48.0636L43.3053 47.8397L43.0241 49.0636H44.2799V48.0636ZM45.0989 46.3476L44.3219 45.718L44.3154 45.7262L45.0989 46.3476ZM46.6199 45.1646L46.1984 44.2578L46.1935 44.2601L46.6199 45.1646ZM49.9089 51.4956L49.3367 50.6755L49.9089 51.4956ZM50.5849 50.4036L51.5713 50.568L51.7653 49.4036H50.5849V50.4036ZM46.7239 50.4036V49.4036H45.6621L45.7257 50.4635L46.7239 50.4036ZM47.2959 51.4696L46.6806 52.258L47.2959 51.4696ZM48.6609 45.7356C49.4245 45.7356 50.0461 45.898 50.5579 46.1896L51.5478 44.4517C50.6904 43.9633 49.7173 43.7356 48.6609 43.7356V45.7356ZM50.5626 46.1922C51.0848 46.486 51.4875 46.8988 51.7814 47.453L53.5484 46.5163C53.0796 45.6318 52.4076 44.9353 51.5431 44.4491L50.5626 46.1922ZM51.7837 47.4575C52.074 47.9984 52.2369 48.6623 52.2369 49.4806H54.2369C54.2369 48.3923 54.0184 47.3922 53.546 46.5118L51.7837 47.4575ZM52.2369 49.4806C52.2369 50.2986 52.0741 50.969 51.7814 51.5213L53.5484 52.458C54.0183 51.5716 54.2369 50.5693 54.2369 49.4806H52.2369ZM51.777 51.5296C51.4922 52.0794 51.0959 52.4894 50.5756 52.7821L51.5561 54.5252C52.4226 54.0378 53.0923 53.3386 53.5528 52.4496L51.777 51.5296ZM50.5756 52.7821C50.0524 53.0764 49.4242 53.2386 48.6609 53.2386V55.2386C49.7176 55.2386 50.6927 55.0109 51.5561 54.5252L50.5756 52.7821ZM48.6609 53.2386C47.9003 53.2386 47.2764 53.0825 46.76 52.8013L45.8038 54.558C46.6567 55.0222 47.6188 55.2386 48.6609 55.2386V53.2386ZM46.76 52.8013C46.2458 52.5215 45.8498 52.1273 45.5591 51.5987L43.8067 52.5626C44.2786 53.4207 44.9486 54.0925 45.8038 54.558L46.76 52.8013ZM45.5661 51.6118C45.2827 51.0778 45.1239 50.4252 45.1239 49.6236H43.1239C43.1239 50.6941 43.3377 51.6795 43.7996 52.5495L45.5661 51.6118ZM45.1239 49.6236C45.1239 49.3872 45.1387 49.1812 45.1651 49.0032L43.1867 48.7101C43.1437 49 43.1239 49.3054 43.1239 49.6236H45.1239ZM44.1759 49.8566H50.6109V47.8566H44.1759V49.8566ZM51.6091 48.797C51.562 48.0072 51.2768 47.2854 50.6739 46.7543L49.3519 48.255C49.4769 48.3652 49.5905 48.5448 49.6127 48.9162L51.6091 48.797ZM50.6828 46.7622C50.1272 46.2608 49.4442 46.0236 48.6999 46.0236V48.0236C48.9956 48.0236 49.1879 48.1071 49.3429 48.247L50.6828 46.7622ZM48.6999 46.0236C48.1301 46.0236 47.5859 46.1591 47.0994 46.4564L48.1423 48.1629C48.2799 48.0789 48.455 48.0236 48.6999 48.0236V46.0236ZM47.1064 46.4522C46.612 46.7488 46.2467 47.182 46.0534 47.7322L47.9403 48.3951C47.9724 48.304 48.0231 48.2345 48.1354 48.1671L47.1064 46.4522ZM46.9969 47.0636H44.2799V49.0636H46.9969V47.0636ZM45.2545 48.2875C45.3694 47.7874 45.5786 47.352 45.8824 46.969L44.3154 45.7262C43.8218 46.3486 43.485 47.0572 43.3053 47.8397L45.2545 48.2875ZM45.8758 46.9772C46.185 46.5957 46.5705 46.2935 47.0463 46.0692L46.1935 44.2601C45.4559 44.6078 44.8275 45.0942 44.3219 45.7181L45.8758 46.9772ZM47.0414 46.0715C47.5121 45.8527 48.0467 45.7356 48.6609 45.7356V43.7356C47.7844 43.7356 46.9583 43.9046 46.1984 44.2578L47.0414 46.0715ZM48.6089 52.8856C49.2888 52.8856 49.9258 52.7031 50.4811 52.3158L49.3367 50.6755C49.1466 50.8081 48.917 50.8856 48.6089 50.8856V52.8856ZM50.4811 52.3158C51.0851 51.8944 51.4512 51.2883 51.5713 50.568L49.5985 50.2392C49.5625 50.4549 49.478 50.5769 49.3367 50.6755L50.4811 52.3158ZM50.5849 49.4036H46.7239V51.4036H50.5849V49.4036ZM45.7257 50.4635C45.7696 51.1957 46.1089 51.8117 46.6806 52.258L47.9112 50.6813C47.7722 50.5729 47.7302 50.4783 47.7221 50.3438L45.7257 50.4635ZM46.6806 52.258C47.238 52.693 47.9018 52.8856 48.6089 52.8856V50.8856C48.276 50.8856 48.0644 50.801 47.9112 50.6813L46.6806 52.258ZM61.3537 44.9566H62.3537V43.9566H61.3537V44.9566ZM61.3537 46.9846V47.9846H62.3537V46.9846H61.3537ZM58.9097 46.9846V45.9846H57.9097V46.9846H58.9097ZM58.9097 54.1216V55.1216H59.9097V54.1216H58.9097ZM56.3617 54.1216H55.3617V55.1216H56.3617V54.1216ZM56.3617 46.9846H57.3617V45.9846H56.3617V46.9846ZM53.9437 46.9846H52.9437V47.9846H53.9437V46.9846ZM53.9437 44.9566V43.9566H52.9437V44.9566H53.9437ZM60.3537 44.9566V46.9846H62.3537V44.9566H60.3537ZM61.3537 45.9846H58.9097V47.9846H61.3537V45.9846ZM57.9097 46.9846V54.1216H59.9097V46.9846H57.9097ZM58.9097 53.1216H56.3617V55.1216H58.9097V53.1216ZM57.3617 54.1216V46.9846H55.3617V54.1216H57.3617ZM56.3617 45.9846H53.9437V47.9846H56.3617V45.9846ZM54.9437 46.9846V44.9566H52.9437V46.9846H54.9437ZM53.9437 45.9566H61.3537V43.9566H53.9437V45.9566Z" fill="#361283"/>
<path d="M34.7627 1.68983C35.3585 0.820475 36.6415 0.820475 37.2373 1.68983L39.4176 4.87109C39.7426 5.34542 40.2213 5.69318 40.7729 5.85577L44.4721 6.94625C45.4831 7.24425 45.8795 8.46445 45.2368 9.29975L42.885 12.3564C42.5344 12.8121 42.3515 13.3748 42.3673 13.9496L42.4734 17.8048C42.5024 18.8583 41.4644 19.6125 40.4714 19.2594L36.8376 17.9672C36.2958 17.7745 35.7042 17.7745 35.1624 17.9672L31.5286 19.2594C30.5356 19.6125 29.4976 18.8583 29.5266 17.8048L29.6327 13.9496C29.6485 13.3748 29.4656 12.8121 29.115 12.3564L26.7632 9.29975C26.1205 8.46445 26.5169 7.24425 27.5279 6.94625L31.2271 5.85577C31.7787 5.69318 32.2574 5.34541 32.5824 4.87109L34.7627 1.68983Z" fill="url(#paint1_radial_2022_41425)" stroke="#EF8528"/>
<defs>
<linearGradient id="paint0_linear_2022_41425" x1="25.3173" y1="38.598" x2="25.3173" y2="89.2325" gradientUnits="userSpaceOnUse">
<stop stop-color="#AE28E6"/>
<stop offset="1" stop-color="#7221CC"/>
</linearGradient>
<radialGradient id="paint1_radial_2022_41425" cx="0" cy="0" r="1" gradientUnits="userSpaceOnUse" gradientTransform="translate(36 11) rotate(90) scale(9.5)">
<stop stop-color="#FFAC0C"/>
<stop offset="1" stop-color="#FFD450"/>
</radialGradient>
</defs>
</svg>
