<svg width="68" height="68" viewBox="0 0 68 68" fill="none" xmlns="http://www.w3.org/2000/svg">
<g clip-path="url(#clip0_2024_41426)">
<rect x="-2.70711" y="38.598" width="51.6345" height="51.6345" rx="20.5" transform="rotate(-45 -2.70711 38.598)" fill="url(#paint0_linear_2024_41426)" stroke="#A20762"/>
<path d="M4.40149 31.9976V33.4926H7.32649V35.4296H4.40149V37.0806H7.71649V39.1216H1.85349L1.85349 29.9566H7.71649V31.9976H4.40149ZM17.4646 39.1216H14.9166L11.5236 33.9996V39.1216H8.97556V29.9566H11.5236L14.9166 35.1436V29.9566H17.4646V39.1216ZM22.543 29.9566C23.505 29.9566 24.3457 30.1516 25.065 30.5416C25.793 30.923 26.352 31.4603 26.742 32.1536C27.132 32.847 27.327 33.64 27.327 34.5326C27.327 35.4166 27.1277 36.2053 26.729 36.8986C26.339 37.592 25.78 38.138 25.052 38.5366C24.3327 38.9266 23.4963 39.1216 22.543 39.1216H18.916V29.9566H22.543ZM22.348 36.8726C23.0933 36.8726 23.6783 36.669 24.103 36.2616C24.5277 35.8543 24.74 35.278 24.74 34.5326C24.74 33.7786 24.5277 33.198 24.103 32.7906C23.6783 32.3746 23.0933 32.1666 22.348 32.1666H21.464V36.8726H22.348ZM31.0236 29.9566V39.1216H28.4756V29.9566H31.0236ZM29.7366 29.1506C29.4419 29.1506 29.1949 29.0553 28.9956 28.8646C28.8049 28.6653 28.7096 28.4183 28.7096 28.1236C28.7096 27.8203 28.8049 27.569 28.9956 27.3696C29.1949 27.1703 29.4419 27.0706 29.7366 27.0706C30.0399 27.0706 30.2912 27.1703 30.4906 27.3696C30.6899 27.569 30.7896 27.8203 30.7896 28.1236C30.7896 28.4183 30.6899 28.6653 30.4906 28.8646C30.2912 29.0553 30.0399 29.1506 29.7366 29.1506ZM37.1156 39.1216L35.2956 35.7416H35.0226V39.1216H32.4746V29.9566H36.4916C37.2282 29.9566 37.8522 30.0866 38.3636 30.3466C38.8749 30.598 39.2606 30.949 39.5206 31.3996C39.7806 31.8416 39.9106 32.34 39.9106 32.8946C39.9106 33.5186 39.7372 34.069 39.3906 34.5456C39.0526 35.0136 38.5542 35.3473 37.8956 35.5466L39.9626 39.1216H37.1156ZM35.0226 33.9996H36.2836C36.6302 33.9996 36.8902 33.9173 37.0636 33.7526C37.2369 33.588 37.3236 33.3496 37.3236 33.0376C37.3236 32.743 37.2326 32.5133 37.0506 32.3486C36.8772 32.1753 36.6216 32.0886 36.2836 32.0886H35.0226V33.9996ZM43.6173 29.9566V39.1216H41.0693V29.9566H43.6173ZM42.3303 29.1506C42.0356 29.1506 41.7886 29.0553 41.5893 28.8646C41.3986 28.6653 41.3033 28.4183 41.3033 28.1236C41.3033 27.8203 41.3986 27.569 41.5893 27.3696C41.7886 27.1703 42.0356 27.0706 42.3303 27.0706C42.6336 27.0706 42.885 27.1703 43.0843 27.3696C43.2836 27.569 43.3833 27.8203 43.3833 28.1236C43.3833 28.4183 43.2836 28.6653 43.0843 28.8646C42.885 29.0553 42.6336 29.1506 42.3303 29.1506ZM55.7673 29.9566V39.1216H53.2193V34.0646L51.4903 39.1216H49.3583L47.6163 34.0256V39.1216H45.0683V29.9566H48.1493L50.4503 35.9106L52.6993 29.9566H55.7673ZM59.7657 37.1716H62.6127V39.1216H57.2177V29.9566H59.7657V37.1716ZM66.1515 29.9566V39.1216H63.6035V29.9566H66.1515ZM64.8645 29.1506C64.5698 29.1506 64.3228 29.0553 64.1235 28.8646C63.9328 28.6653 63.8375 28.4183 63.8375 28.1236C63.8375 27.8203 63.9328 27.569 64.1235 27.3696C64.3228 27.1703 64.5698 27.0706 64.8645 27.0706C65.1678 27.0706 65.4192 27.1703 65.6185 27.3696C65.8178 27.569 65.9175 27.8203 65.9175 28.1236C65.9175 28.4183 65.8178 28.6653 65.6185 28.8646C65.4192 29.0553 65.1678 29.1506 64.8645 29.1506ZM17.6243 44.9566V54.1216H15.0763V49.0646L13.3473 54.1216H11.2153L9.47327 49.0256V54.1216H6.92527V44.9566H10.0063L12.3073 50.9106L14.5563 44.9566H17.6243ZM23.3777 44.7356C24.2877 44.7356 25.085 44.9306 25.7697 45.3206C26.463 45.7106 27.0003 46.2653 27.3817 46.9846C27.763 47.6953 27.9537 48.5273 27.9537 49.4806C27.9537 50.434 27.763 51.2703 27.3817 51.9896C27.009 52.709 26.476 53.2636 25.7827 53.6536C25.0893 54.0436 24.2877 54.2386 23.3777 54.2386C22.4763 54.2386 21.6833 54.0523 20.9987 53.6796C20.314 53.307 19.781 52.774 19.3997 52.0806C19.027 51.3786 18.8407 50.5596 18.8407 49.6236C18.8407 49.3463 18.858 49.0906 18.8927 48.8566H25.3277C25.293 48.276 25.0937 47.8253 24.7297 47.5046C24.3743 47.184 23.9367 47.0236 23.4167 47.0236C23.0093 47.0236 22.6497 47.119 22.3377 47.3096C22.0343 47.4916 21.8263 47.743 21.7137 48.0636H18.9967C19.144 47.4223 19.417 46.8503 19.8157 46.3476C20.223 45.845 20.73 45.4506 21.3367 45.1646C21.952 44.8786 22.6323 44.7356 23.3777 44.7356ZM23.3257 51.8856C23.8197 51.8856 24.253 51.7556 24.6257 51.4956C24.9983 51.2356 25.2237 50.8716 25.3017 50.4036H21.4407C21.4667 50.837 21.6573 51.1923 22.0127 51.4696C22.368 51.747 22.8057 51.8856 23.3257 51.8856ZM37.3705 44.9566V54.1216H34.8225V50.4426H31.7155V54.1216H29.1675V44.9566H31.7155V48.4016H34.8225V44.9566H37.3705ZM42.2866 54.2126C41.2206 54.2126 40.3453 53.9613 39.6606 53.4586C38.9759 52.9473 38.6076 52.2193 38.5556 51.2746H41.2726C41.2986 51.5953 41.3939 51.8293 41.5586 51.9766C41.7233 52.124 41.9356 52.1976 42.1956 52.1976C42.4296 52.1976 42.6203 52.1413 42.7676 52.0286C42.9236 51.9073 43.0016 51.7426 43.0016 51.5346C43.0016 51.266 42.8759 51.058 42.6246 50.9106C42.3733 50.7633 41.9659 50.5986 41.4026 50.4166C40.8046 50.2173 40.3193 50.0266 39.9466 49.8446C39.5826 49.654 39.2619 49.381 38.9846 49.0256C38.7159 48.6616 38.5816 48.1893 38.5816 47.6086C38.5816 47.0193 38.7289 46.5166 39.0236 46.1006C39.3183 45.676 39.7256 45.3553 40.2456 45.1386C40.7656 44.922 41.3549 44.8136 42.0136 44.8136C43.0796 44.8136 43.9289 45.065 44.5616 45.5676C45.2029 46.0616 45.5453 46.7593 45.5886 47.6606H42.8196C42.8109 47.3833 42.7243 47.1753 42.5596 47.0366C42.4036 46.898 42.1999 46.8286 41.9486 46.8286C41.7579 46.8286 41.6019 46.885 41.4806 46.9976C41.3593 47.1103 41.2986 47.2706 41.2986 47.4786C41.2986 47.652 41.3636 47.8036 41.4936 47.9336C41.6323 48.055 41.8013 48.1633 42.0006 48.2586C42.1999 48.3453 42.4946 48.458 42.8846 48.5966C43.4653 48.796 43.9419 48.9953 44.3146 49.1946C44.6959 49.3853 45.0209 49.6583 45.2896 50.0136C45.5669 50.3603 45.7056 50.8023 45.7056 51.3396C45.7056 51.8856 45.5669 52.3753 45.2896 52.8086C45.0209 53.242 44.6266 53.5843 44.1066 53.8356C43.5953 54.087 42.9886 54.2126 42.2866 54.2126ZM49.3861 44.9566V50.2736C49.3861 50.7676 49.4988 51.149 49.7241 51.4176C49.9581 51.6863 50.3091 51.8206 50.7771 51.8206C51.2451 51.8206 51.5961 51.6863 51.8301 51.4176C52.0728 51.1403 52.1941 50.759 52.1941 50.2736V44.9566H54.7421V50.2736C54.7421 51.1143 54.5644 51.8336 54.2091 52.4316C53.8538 53.021 53.3684 53.4673 52.7531 53.7706C52.1464 54.0653 51.4704 54.2126 50.7251 54.2126C49.9798 54.2126 49.3124 54.0653 48.7231 53.7706C48.1424 53.4673 47.6831 53.021 47.3451 52.4316C47.0158 51.8423 46.8511 51.123 46.8511 50.2736V44.9566H49.3861ZM58.693 52.1716H61.54V54.1216H56.145V44.9566H58.693V52.1716Z" fill="white"/>
<path d="M4.40149 31.9976V30.9976H3.40149V31.9976H4.40149ZM4.40149 33.4926H3.40149V34.4926H4.40149V33.4926ZM7.32649 33.4926H8.32649V32.4926H7.32649V33.4926ZM7.32649 35.4296V36.4296H8.32649V35.4296H7.32649ZM4.40149 35.4296V34.4296H3.40149L3.40149 35.4296H4.40149ZM4.40149 37.0806H3.40149V38.0806H4.40149V37.0806ZM7.71649 37.0806H8.71649V36.0806H7.71649V37.0806ZM7.71649 39.1216V40.1216H8.71649V39.1216H7.71649ZM1.85349 39.1216H0.853488V40.1216H1.85349V39.1216ZM1.85349 29.9566V28.9566H0.853488L0.853488 29.9566H1.85349ZM7.71649 29.9566H8.71649V28.9566H7.71649V29.9566ZM7.71649 31.9976V32.9976H8.71649V31.9976H7.71649ZM3.40149 31.9976V33.4926H5.40149V31.9976H3.40149ZM4.40149 34.4926H7.32649V32.4926H4.40149V34.4926ZM6.32649 33.4926V35.4296H8.32649V33.4926H6.32649ZM7.32649 34.4296H4.40149V36.4296H7.32649V34.4296ZM3.40149 35.4296V37.0806H5.40149V35.4296H3.40149ZM4.40149 38.0806H7.71649V36.0806H4.40149V38.0806ZM6.71649 37.0806V39.1216H8.71649V37.0806H6.71649ZM7.71649 38.1216H1.85349V40.1216H7.71649V38.1216ZM2.85349 39.1216L2.85349 29.9566H0.853488L0.853488 39.1216H2.85349ZM1.85349 30.9566H7.71649V28.9566H1.85349V30.9566ZM6.71649 29.9566V31.9976H8.71649V29.9566H6.71649ZM7.71649 30.9976H4.40149V32.9976H7.71649V30.9976ZM17.4646 39.1216V40.1216H18.4646V39.1216H17.4646ZM14.9166 39.1216L14.0829 39.6739L14.3795 40.1216H14.9166V39.1216ZM11.5236 33.9996L12.3572 33.4474L10.5236 30.6793V33.9996H11.5236ZM11.5236 39.1216V40.1216H12.5236V39.1216H11.5236ZM8.97556 39.1216H7.97556V40.1216H8.97556V39.1216ZM8.97556 29.9566V28.9566H7.97556V29.9566H8.97556ZM11.5236 29.9566L12.3604 29.4092L12.0644 28.9566H11.5236V29.9566ZM14.9166 35.1436L14.0797 35.6911L15.9166 38.4991V35.1436H14.9166ZM14.9166 29.9566V28.9566H13.9166V29.9566H14.9166ZM17.4646 29.9566H18.4646V28.9566H17.4646V29.9566ZM17.4646 38.1216H14.9166V40.1216H17.4646V38.1216ZM15.7502 38.5694L12.3572 33.4474L10.6899 34.5519L14.0829 39.6739L15.7502 38.5694ZM10.5236 33.9996V39.1216H12.5236V33.9996H10.5236ZM11.5236 38.1216H8.97556V40.1216H11.5236V38.1216ZM9.97556 39.1216V29.9566H7.97556V39.1216H9.97556ZM8.97556 30.9566H11.5236V28.9566H8.97556V30.9566ZM10.6867 30.5041L14.0797 35.6911L15.7534 34.5962L12.3604 29.4092L10.6867 30.5041ZM15.9166 35.1436V29.9566H13.9166V35.1436H15.9166ZM14.9166 30.9566H17.4646V28.9566H14.9166V30.9566ZM16.4646 29.9566V39.1216H18.4646V29.9566H16.4646ZM25.065 30.5416L24.5884 31.4207L24.5946 31.4242L24.601 31.4275L25.065 30.5416ZM26.742 32.1536L27.6136 31.6634V31.6634L26.742 32.1536ZM26.729 36.8986L25.862 36.4001L25.8574 36.4084L26.729 36.8986ZM25.052 38.5366L25.5286 39.4158L25.5323 39.4137L25.052 38.5366ZM18.916 39.1216H17.916V40.1216H18.916V39.1216ZM18.916 29.9566V28.9566H17.916V29.9566H18.916ZM24.103 32.7906L23.4032 33.505L23.4108 33.5123L24.103 32.7906ZM21.464 32.1666V31.1666H20.464V32.1666H21.464ZM21.464 36.8726H20.464V37.8726H21.464V36.8726ZM22.543 30.9566C23.3678 30.9566 24.0391 31.123 24.5884 31.4207L25.5416 29.6625C24.6522 29.1803 23.6421 28.9566 22.543 28.9566V30.9566ZM24.601 31.4275C25.1637 31.7223 25.5784 32.1248 25.8704 32.6439L27.6136 31.6634C27.1255 30.7958 26.4222 30.1237 25.529 29.6558L24.601 31.4275ZM25.8704 32.6439C26.1663 33.17 26.327 33.7903 26.327 34.5326H28.327C28.327 33.4896 28.0977 32.524 27.6136 31.6634L25.8704 32.6439ZM26.327 34.5326C26.327 35.2606 26.1646 35.8741 25.8621 36.4002L27.5959 37.3971C28.0907 36.5365 28.327 35.5727 28.327 34.5326H26.327ZM25.8574 36.4084C25.5632 36.9315 25.1431 37.3466 24.5717 37.6595L25.5323 39.4137C26.4169 38.9293 27.1148 38.2525 27.6006 37.3889L25.8574 36.4084ZM24.5754 37.6575C24.0249 37.956 23.3575 38.1216 22.543 38.1216V40.1216C23.6352 40.1216 24.6405 39.8973 25.5286 39.4158L24.5754 37.6575ZM22.543 38.1216H18.916V40.1216H22.543V38.1216ZM19.916 39.1216V29.9566H17.916V39.1216H19.916ZM18.916 30.9566H22.543V28.9566H18.916V30.9566ZM22.348 37.8726C23.2794 37.8726 24.1382 37.6135 24.7952 36.9833L23.4108 35.54C23.2184 35.7245 22.9072 35.8726 22.348 35.8726V37.8726ZM24.7952 36.9833C25.4658 36.3401 25.74 35.4735 25.74 34.5326H23.74C23.74 35.0824 23.5895 35.3685 23.4108 35.54L24.7952 36.9833ZM25.74 34.5326C25.74 33.587 25.4681 32.7143 24.7952 32.069L23.4108 33.5123C23.5873 33.6816 23.74 33.9703 23.74 34.5326H25.74ZM24.8028 32.0763C24.1466 31.4335 23.2851 31.1666 22.348 31.1666V33.1666C22.9015 33.1666 23.21 33.3158 23.4032 33.505L24.8028 32.0763ZM22.348 31.1666H21.464V33.1666H22.348V31.1666ZM20.464 32.1666V36.8726H22.464V32.1666H20.464ZM21.464 37.8726H22.348V35.8726H21.464V37.8726ZM31.0236 29.9566H32.0236V28.9566H31.0236V29.9566ZM31.0236 39.1216V40.1216H32.0236V39.1216H31.0236ZM28.4756 39.1216H27.4756V40.1216H28.4756V39.1216ZM28.4756 29.9566V28.9566H27.4756V29.9566H28.4756ZM28.9956 28.8646L28.2729 29.5559L28.2883 29.5719L28.3043 29.5873L28.9956 28.8646ZM28.9956 27.3696L28.2885 26.6625L28.2806 26.6704L28.2729 26.6784L28.9956 27.3696ZM30.4906 28.8646L31.1818 29.5873L31.1898 29.5796L31.1977 29.5717L30.4906 28.8646ZM30.0236 29.9566V39.1216H32.0236V29.9566H30.0236ZM31.0236 38.1216H28.4756V40.1216H31.0236V38.1216ZM29.4756 39.1216V29.9566H27.4756V39.1216H29.4756ZM28.4756 30.9566H31.0236V28.9566H28.4756V30.9566ZM29.7366 28.1506C29.7169 28.1506 29.7044 28.1491 29.6978 28.1479C29.6914 28.1468 29.6894 28.1459 29.6904 28.1462C29.6914 28.1466 29.6928 28.1473 29.6935 28.1478C29.6942 28.1482 29.6919 28.1469 29.6868 28.142L28.3043 29.5873C28.7033 29.9689 29.2037 30.1506 29.7366 30.1506V28.1506ZM29.7182 28.1734C29.7133 28.1683 29.712 28.166 29.7124 28.1667C29.7129 28.1674 29.7136 28.1688 29.714 28.1698C29.7143 28.1708 29.7134 28.1688 29.7123 28.1624C29.7111 28.1558 29.7096 28.1433 29.7096 28.1236H27.7096C27.7096 28.6565 27.8913 29.1569 28.2729 29.5559L29.7182 28.1734ZM29.7096 28.1236C29.7096 28.1002 29.7114 28.0845 29.713 28.0753C29.7145 28.0662 29.716 28.0624 29.7161 28.0623C29.7161 28.0621 29.716 28.0624 29.7157 28.063C29.7154 28.0637 29.7151 28.0643 29.7148 28.0647C29.714 28.0659 29.7146 28.0646 29.7182 28.0609L28.2729 26.6784C27.8858 27.0832 27.7096 27.5908 27.7096 28.1236H29.7096ZM29.7027 28.0767C29.7087 28.0707 29.7115 28.069 29.7106 28.0696C29.7095 28.0703 29.7073 28.0716 29.7045 28.0727C29.7018 28.0738 29.7016 28.0735 29.7055 28.0728C29.7095 28.0721 29.7194 28.0706 29.7366 28.0706V26.0706C29.1901 26.0706 28.6846 26.2664 28.2885 26.6625L29.7027 28.0767ZM29.7366 28.0706C29.7576 28.0706 29.7707 28.0724 29.7775 28.0736C29.784 28.0747 29.7856 28.0756 29.7839 28.075C29.7822 28.0743 29.78 28.0731 29.7785 28.0721C29.777 28.0711 29.7787 28.072 29.7835 28.0767L31.1977 26.6625C30.7956 26.2605 30.2828 26.0706 29.7366 26.0706V28.0706ZM29.7835 28.0767C29.7882 28.0815 29.7891 28.0832 29.7881 28.0817C29.7871 28.0802 29.7859 28.078 29.7852 28.0763C29.7846 28.0746 29.7855 28.0762 29.7866 28.0827C29.7878 28.0895 29.7896 28.1026 29.7896 28.1236H31.7896C31.7896 27.5774 31.5997 27.0646 31.1977 26.6625L29.7835 28.0767ZM29.7896 28.1236C29.7896 28.1408 29.7881 28.1507 29.7874 28.1547C29.7867 28.1586 29.7864 28.1584 29.7875 28.1557C29.7886 28.1529 29.7899 28.1507 29.7906 28.1496C29.7912 28.1487 29.7895 28.1515 29.7835 28.1575L31.1977 29.5717C31.5938 29.1756 31.7896 28.6701 31.7896 28.1236H29.7896ZM29.7993 28.142C29.7956 28.1456 29.7943 28.1462 29.7955 28.1454C29.7959 28.1451 29.7965 28.1448 29.7972 28.1445C29.7978 28.1442 29.7981 28.1441 29.7979 28.1441C29.7978 28.1442 29.794 28.1457 29.7849 28.1472C29.7757 28.1488 29.76 28.1506 29.7366 28.1506V30.1506C30.2694 30.1506 30.777 29.9744 31.1818 29.5873L29.7993 28.142ZM37.1156 39.1216L36.2351 39.5957L36.5183 40.1216H37.1156V39.1216ZM35.2956 35.7416L36.1761 35.2675L35.8929 34.7416H35.2956V35.7416ZM35.0226 35.7416V34.7416H34.0226V35.7416H35.0226ZM35.0226 39.1216V40.1216H36.0226V39.1216H35.0226ZM32.4746 39.1216H31.4746V40.1216H32.4746V39.1216ZM32.4746 29.9566V28.9566H31.4746V29.9566H32.4746ZM38.3636 30.3466L37.9103 31.2381L37.9225 31.2441L38.3636 30.3466ZM39.5206 31.3996L38.6544 31.8994L38.6586 31.9067L39.5206 31.3996ZM39.3906 34.5456L38.5818 33.9575L38.5799 33.9602L39.3906 34.5456ZM37.8956 35.5466L37.6059 34.5895L36.3984 34.955L37.0299 36.0472L37.8956 35.5466ZM39.9626 39.1216V40.1216H41.6959L40.8283 38.6211L39.9626 39.1216ZM35.0226 33.9996H34.0226V34.9996H35.0226V33.9996ZM37.0636 33.7526L36.3748 33.0276V33.0276L37.0636 33.7526ZM37.0506 32.3486L36.3435 33.0557L36.3611 33.0734L36.3797 33.0902L37.0506 32.3486ZM35.0226 32.0886V31.0886H34.0226V32.0886H35.0226ZM37.9961 38.6475L36.1761 35.2675L34.4151 36.2157L36.2351 39.5957L37.9961 38.6475ZM35.2956 34.7416H35.0226V36.7416H35.2956V34.7416ZM34.0226 35.7416V39.1216H36.0226V35.7416H34.0226ZM35.0226 38.1216H32.4746V40.1216H35.0226V38.1216ZM33.4746 39.1216V29.9566H31.4746V39.1216H33.4746ZM32.4746 30.9566H36.4916V28.9566H32.4746V30.9566ZM36.4916 30.9566C37.1141 30.9566 37.5736 31.0668 37.9103 31.238L38.8168 29.4553C38.1309 29.1065 37.3424 28.9566 36.4916 28.9566V30.9566ZM37.9225 31.2441C38.2735 31.4166 38.5029 31.6368 38.6544 31.8994L40.3868 30.8999C40.0183 30.2612 39.4764 29.7793 38.8047 29.4492L37.9225 31.2441ZM38.6586 31.9067C38.8209 32.1825 38.9106 32.5032 38.9106 32.8946H40.9106C40.9106 32.1767 40.7402 31.5008 40.3825 30.8926L38.6586 31.9067ZM38.9106 32.8946C38.9106 33.3205 38.7967 33.6621 38.5818 33.9575L40.1993 35.1338C40.6778 34.4759 40.9106 33.7168 40.9106 32.8946H38.9106ZM38.5799 33.9602C38.3935 34.2183 38.0965 34.4411 37.6059 34.5895L38.1852 36.5038C39.012 36.2536 39.7117 35.809 40.2013 35.1311L38.5799 33.9602ZM37.0299 36.0472L39.0969 39.6222L40.8283 38.6211L38.7613 35.0461L37.0299 36.0472ZM39.9626 38.1216H37.1156V40.1216H39.9626V38.1216ZM35.0226 34.9996H36.2836V32.9996H35.0226V34.9996ZM36.2836 34.9996C36.772 34.9996 37.324 34.8846 37.7523 34.4776L36.3748 33.0276C36.3924 33.0109 36.4092 32.9993 36.4221 32.9919C36.4346 32.9848 36.4406 32.9833 36.4367 32.9846C36.4266 32.9877 36.3809 32.9996 36.2836 32.9996V34.9996ZM37.7523 34.4776C38.1801 34.0712 38.3236 33.536 38.3236 33.0376H36.3236C36.3236 33.103 36.3143 33.121 36.3188 33.1086C36.3212 33.102 36.3267 33.0892 36.337 33.0732C36.3475 33.057 36.3604 33.0414 36.3748 33.0276L37.7523 34.4776ZM38.3236 33.0376C38.3236 32.522 38.1548 31.9991 37.7215 31.6071L36.3797 33.0902C36.3696 33.0811 36.3584 33.0688 36.3478 33.0535C36.3373 33.0383 36.3301 33.024 36.3256 33.0128C36.3167 32.9901 36.3236 32.9927 36.3236 33.0376H38.3236ZM37.7577 31.6415C37.335 31.2188 36.7842 31.0886 36.2836 31.0886V33.0886C36.3697 33.0886 36.4057 33.1 36.4078 33.1007C36.408 33.1008 36.4 33.098 36.3868 33.0901C36.3734 33.082 36.3582 33.0705 36.3435 33.0557L37.7577 31.6415ZM36.2836 31.0886H35.0226V33.0886H36.2836V31.0886ZM34.0226 32.0886V33.9996H36.0226V32.0886H34.0226ZM43.6173 29.9566H44.6173V28.9566H43.6173V29.9566ZM43.6173 39.1216V40.1216H44.6173V39.1216H43.6173ZM41.0693 39.1216H40.0693V40.1216H41.0693V39.1216ZM41.0693 29.9566V28.9566H40.0693V29.9566H41.0693ZM41.5893 28.8646L40.8667 29.5559L40.882 29.5719L40.8981 29.5873L41.5893 28.8646ZM41.5893 27.3696L40.8822 26.6625L40.8743 26.6704L40.8667 26.6784L41.5893 27.3696ZM43.0843 28.8646L43.7755 29.5873L43.7836 29.5796L43.7914 29.5717L43.0843 28.8646ZM42.6173 29.9566V39.1216H44.6173V29.9566H42.6173ZM43.6173 38.1216H41.0693V40.1216H43.6173V38.1216ZM42.0693 39.1216V29.9566H40.0693V39.1216H42.0693ZM41.0693 30.9566H43.6173V28.9566H41.0693V30.9566ZM42.3303 28.1506C42.3106 28.1506 42.2982 28.1491 42.2916 28.1479C42.2852 28.1468 42.2832 28.1459 42.2841 28.1462C42.2852 28.1466 42.2865 28.1473 42.2873 28.1478C42.2879 28.1482 42.2857 28.1469 42.2805 28.142L40.8981 29.5873C41.297 29.9689 41.7975 30.1506 42.3303 30.1506V28.1506ZM42.312 28.1734C42.3071 28.1683 42.3057 28.166 42.3062 28.1667C42.3066 28.1674 42.3073 28.1688 42.3077 28.1698C42.3081 28.1708 42.3072 28.1688 42.306 28.1624C42.3049 28.1558 42.3033 28.1433 42.3033 28.1236H40.3033C40.3033 28.6565 40.4851 29.1569 40.8667 29.5559L42.312 28.1734ZM42.3033 28.1236C42.3033 28.1002 42.3051 28.0845 42.3067 28.0753C42.3083 28.0662 42.3098 28.0624 42.3098 28.0623C42.3099 28.0621 42.3098 28.0624 42.3095 28.063C42.3091 28.0637 42.3088 28.0643 42.3085 28.0647C42.3078 28.0659 42.3083 28.0646 42.312 28.0609L40.8667 26.6784C40.4795 27.0832 40.3033 27.5908 40.3033 28.1236H42.3033ZM42.2964 28.0767C42.3025 28.0707 42.3052 28.069 42.3043 28.0696C42.3033 28.0703 42.301 28.0716 42.2983 28.0727C42.2956 28.0738 42.2954 28.0735 42.2992 28.0728C42.3032 28.0721 42.3131 28.0706 42.3303 28.0706V26.0706C41.7838 26.0706 41.2783 26.2664 40.8822 26.6625L42.2964 28.0767ZM42.3303 28.0706C42.3513 28.0706 42.3645 28.0724 42.3712 28.0736C42.3777 28.0747 42.3793 28.0756 42.3777 28.075C42.3759 28.0743 42.3738 28.0731 42.3722 28.0721C42.3708 28.0711 42.3725 28.072 42.3772 28.0767L43.7914 26.6625C43.3894 26.2605 42.8766 26.0706 42.3303 26.0706V28.0706ZM42.3772 28.0767C42.3819 28.0815 42.3828 28.0832 42.3818 28.0817C42.3808 28.0802 42.3797 28.078 42.379 28.0763C42.3783 28.0746 42.3792 28.0762 42.3804 28.0827C42.3816 28.0895 42.3833 28.1026 42.3833 28.1236H44.3833C44.3833 27.5774 44.1935 27.0646 43.7914 26.6625L42.3772 28.0767ZM42.3833 28.1236C42.3833 28.1408 42.3819 28.1507 42.3811 28.1547C42.3804 28.1586 42.3801 28.1584 42.3812 28.1557C42.3823 28.1529 42.3836 28.1507 42.3843 28.1496C42.3849 28.1487 42.3833 28.1515 42.3772 28.1575L43.7914 29.5717C44.1875 29.1756 44.3833 28.6701 44.3833 28.1236H42.3833ZM42.3931 28.142C42.3893 28.1456 42.388 28.1462 42.3892 28.1454C42.3897 28.1451 42.3903 28.1448 42.3909 28.1445C42.3915 28.1442 42.3918 28.1441 42.3917 28.1441C42.3915 28.1442 42.3877 28.1457 42.3787 28.1472C42.3694 28.1488 42.3537 28.1506 42.3303 28.1506V30.1506C42.8632 30.1506 43.3708 29.9744 43.7755 29.5873L42.3931 28.142ZM55.7673 29.9566H56.7673V28.9566H55.7673V29.9566ZM55.7673 39.1216V40.1216H56.7673V39.1216H55.7673ZM53.2193 39.1216H52.2193V40.1216H53.2193V39.1216ZM53.2193 34.0646H54.2193L52.2731 33.7411L53.2193 34.0646ZM51.4903 39.1216V40.1216H52.2053L52.4366 39.4452L51.4903 39.1216ZM49.3583 39.1216L48.4121 39.4451L48.6434 40.1216H49.3583V39.1216ZM47.6163 34.0256L48.5626 33.7022L46.6163 34.0256H47.6163ZM47.6163 39.1216V40.1216H48.6163V39.1216H47.6163ZM45.0683 39.1216H44.0683V40.1216H45.0683V39.1216ZM45.0683 29.9566V28.9566H44.0683V29.9566H45.0683ZM48.1493 29.9566L49.0821 29.5962L48.8349 28.9566H48.1493V29.9566ZM50.4503 35.9106L49.5176 36.2711L50.461 38.7123L51.3858 36.264L50.4503 35.9106ZM52.6993 29.9566V28.9566H52.0081L51.7638 29.6033L52.6993 29.9566ZM54.7673 29.9566V39.1216H56.7673V29.9566H54.7673ZM55.7673 38.1216H53.2193V40.1216H55.7673V38.1216ZM54.2193 39.1216V34.0646H52.2193V39.1216H54.2193ZM52.2731 33.7411L50.5441 38.7981L52.4366 39.4452L54.1656 34.3882L52.2731 33.7411ZM51.4903 38.1216H49.3583V40.1216H51.4903V38.1216ZM50.3046 38.7982L48.5626 33.7022L46.6701 34.3491L48.4121 39.4451L50.3046 38.7982ZM46.6163 34.0256V39.1216H48.6163V34.0256H46.6163ZM47.6163 38.1216H45.0683V40.1216H47.6163V38.1216ZM46.0683 39.1216V29.9566H44.0683V39.1216H46.0683ZM45.0683 30.9566H48.1493V28.9566H45.0683V30.9566ZM47.2166 30.3171L49.5176 36.2711L51.3831 35.5502L49.0821 29.5962L47.2166 30.3171ZM51.3858 36.264L53.6348 30.31L51.7638 29.6033L49.5148 35.5573L51.3858 36.264ZM52.6993 30.9566H55.7673V28.9566H52.6993V30.9566ZM59.7657 37.1716H58.7657V38.1716H59.7657V37.1716ZM62.6127 37.1716H63.6127V36.1716H62.6127V37.1716ZM62.6127 39.1216V40.1216H63.6127V39.1216H62.6127ZM57.2177 39.1216H56.2177V40.1216H57.2177V39.1216ZM57.2177 29.9566V28.9566H56.2177V29.9566H57.2177ZM59.7657 29.9566H60.7657V28.9566H59.7657V29.9566ZM59.7657 38.1716H62.6127V36.1716H59.7657V38.1716ZM61.6127 37.1716V39.1216H63.6127V37.1716H61.6127ZM62.6127 38.1216H57.2177V40.1216H62.6127V38.1216ZM58.2177 39.1216V29.9566H56.2177V39.1216H58.2177ZM57.2177 30.9566H59.7657V28.9566H57.2177V30.9566ZM58.7657 29.9566V37.1716H60.7657V29.9566H58.7657ZM66.1515 29.9566H67.1515V28.9566H66.1515V29.9566ZM66.1515 39.1216V40.1216H67.1515V39.1216H66.1515ZM63.6035 39.1216H62.6035V40.1216H63.6035V39.1216ZM63.6035 29.9566V28.9566H62.6035V29.9566H63.6035ZM64.1235 28.8646L63.4008 29.5559L63.4162 29.5719L63.4323 29.5873L64.1235 28.8646ZM64.1235 27.3696L63.4164 26.6625L63.4085 26.6704L63.4008 26.6784L64.1235 27.3696ZM65.6185 28.8646L66.3097 29.5873L66.3177 29.5796L66.3256 29.5717L65.6185 28.8646ZM65.1515 29.9566V39.1216H67.1515V29.9566H65.1515ZM66.1515 38.1216H63.6035V40.1216H66.1515V38.1216ZM64.6035 39.1216V29.9566H62.6035V39.1216H64.6035ZM63.6035 30.9566H66.1515V28.9566H63.6035V30.9566ZM64.8645 28.1506C64.8448 28.1506 64.8323 28.1491 64.8258 28.1479C64.8194 28.1468 64.8174 28.1459 64.8183 28.1462C64.8194 28.1466 64.8207 28.1473 64.8214 28.1478C64.8221 28.1482 64.8198 28.1469 64.8147 28.142L63.4323 29.5873C63.8312 29.9689 64.3316 30.1506 64.8645 30.1506V28.1506ZM64.8461 28.1734C64.8412 28.1683 64.8399 28.166 64.8403 28.1667C64.8408 28.1674 64.8415 28.1688 64.8419 28.1698C64.8423 28.1708 64.8414 28.1688 64.8402 28.1624C64.8391 28.1558 64.8375 28.1433 64.8375 28.1236H62.8375C62.8375 28.6565 63.0192 29.1569 63.4008 29.5559L64.8461 28.1734ZM64.8375 28.1236C64.8375 28.1002 64.8393 28.0845 64.8409 28.0753C64.8425 28.0662 64.8439 28.0624 64.844 28.0623C64.8441 28.0621 64.8439 28.0624 64.8436 28.063C64.8433 28.0637 64.843 28.0643 64.8427 28.0647C64.8419 28.0659 64.8425 28.0646 64.8461 28.0609L63.4008 26.6784C63.0137 27.0832 62.8375 27.5908 62.8375 28.1236H64.8375ZM64.8306 28.0767C64.8367 28.0707 64.8394 28.069 64.8385 28.0696C64.8375 28.0703 64.8352 28.0716 64.8324 28.0727C64.8297 28.0738 64.8296 28.0735 64.8334 28.0728C64.8374 28.0721 64.8473 28.0706 64.8645 28.0706V26.0706C64.318 26.0706 63.8125 26.2664 63.4164 26.6625L64.8306 28.0767ZM64.8645 28.0706C64.8855 28.0706 64.8987 28.0724 64.9054 28.0736C64.9119 28.0747 64.9135 28.0756 64.9119 28.075C64.9101 28.0743 64.9079 28.0731 64.9064 28.0721C64.9049 28.0711 64.9066 28.072 64.9114 28.0767L66.3256 26.6625C65.9235 26.2605 65.4107 26.0706 64.8645 26.0706V28.0706ZM64.9114 28.0767C64.9161 28.0815 64.917 28.0832 64.916 28.0817C64.915 28.0802 64.9139 28.078 64.9132 28.0763C64.9125 28.0746 64.9134 28.0762 64.9146 28.0827C64.9158 28.0895 64.9175 28.1026 64.9175 28.1236H66.9175C66.9175 27.5774 66.7277 27.0646 66.3256 26.6625L64.9114 28.0767ZM64.9175 28.1236C64.9175 28.1408 64.916 28.1507 64.9153 28.1547C64.9146 28.1586 64.9143 28.1584 64.9154 28.1557C64.9165 28.1529 64.9178 28.1507 64.9185 28.1496C64.9191 28.1487 64.9174 28.1515 64.9114 28.1575L66.3256 29.5717C66.7217 29.1756 66.9175 28.6701 66.9175 28.1236H64.9175ZM64.9273 28.142C64.9235 28.1456 64.9222 28.1462 64.9234 28.1454C64.9239 28.1451 64.9245 28.1448 64.9251 28.1445C64.9257 28.1442 64.926 28.1441 64.9258 28.1441C64.9257 28.1442 64.9219 28.1457 64.9128 28.1472C64.9036 28.1488 64.8879 28.1506 64.8645 28.1506V30.1506C65.3973 30.1506 65.905 29.9744 66.3097 29.5873L64.9273 28.142ZM17.6243 44.9566H18.6243V43.9566H17.6243V44.9566ZM17.6243 54.1216V55.1216H18.6243V54.1216H17.6243ZM15.0763 54.1216H14.0763V55.1216H15.0763V54.1216ZM15.0763 49.0646H16.0763L14.13 48.7411L15.0763 49.0646ZM13.3473 54.1216V55.1216H14.0622L14.2935 54.4452L13.3473 54.1216ZM11.2153 54.1216L10.269 54.4451L10.5003 55.1216H11.2153V54.1216ZM9.47327 49.0256L10.4195 48.7022L8.47327 49.0256H9.47327ZM9.47327 54.1216V55.1216H10.4733V54.1216H9.47327ZM6.92527 54.1216H5.92527V55.1216H6.92527V54.1216ZM6.92527 44.9566V43.9566H5.92527V44.9566H6.92527ZM10.0063 44.9566L10.939 44.5962L10.6919 43.9566H10.0063V44.9566ZM12.3073 50.9106L11.3745 51.2711L12.3179 53.7123L13.2428 51.264L12.3073 50.9106ZM14.5563 44.9566V43.9566H13.865L13.6208 44.6033L14.5563 44.9566ZM16.6243 44.9566V54.1216H18.6243V44.9566H16.6243ZM17.6243 53.1216H15.0763V55.1216H17.6243V53.1216ZM16.0763 54.1216V49.0646H14.0763V54.1216H16.0763ZM14.13 48.7411L12.401 53.7981L14.2935 54.4452L16.0225 49.3882L14.13 48.7411ZM13.3473 53.1216H11.2153V55.1216H13.3473V53.1216ZM12.1615 53.7982L10.4195 48.7022L8.52702 49.3491L10.269 54.4451L12.1615 53.7982ZM8.47327 49.0256V54.1216H10.4733V49.0256H8.47327ZM9.47327 53.1216H6.92527V55.1216H9.47327V53.1216ZM7.92527 54.1216V44.9566H5.92527V54.1216H7.92527ZM6.92527 45.9566H10.0063V43.9566H6.92527V45.9566ZM9.0735 45.3171L11.3745 51.2711L13.24 50.5502L10.939 44.5962L9.0735 45.3171ZM13.2428 51.264L15.4918 45.31L13.6208 44.6033L11.3718 50.5573L13.2428 51.264ZM14.5563 45.9566H17.6243V43.9566H14.5563V45.9566ZM25.7697 45.3206L25.2747 46.1896L25.2794 46.1922L25.7697 45.3206ZM27.3817 46.9846L26.4981 47.453L26.5005 47.4575L27.3817 46.9846ZM27.3817 51.9896L26.4981 51.5212L26.4938 51.5296L27.3817 51.9896ZM25.7827 53.6536L26.2729 54.5252L25.7827 53.6536ZM20.9987 53.6796L20.5206 54.558L20.9987 53.6796ZM19.3997 52.0806L18.5164 52.5495L18.5199 52.5561L18.5235 52.5626L19.3997 52.0806ZM18.8927 48.8566V47.8566H18.0299L17.9035 48.7101L18.8927 48.8566ZM25.3277 48.8566V49.8566H26.3892L26.3259 48.797L25.3277 48.8566ZM24.7297 47.5046L24.0597 48.2471L24.0686 48.255L24.7297 47.5046ZM22.3377 47.3096L22.8522 48.1672L22.8591 48.1629L22.3377 47.3096ZM21.7137 48.0636V49.0636H22.4223L22.6571 48.3951L21.7137 48.0636ZM18.9967 48.0636L18.0221 47.8397L17.7409 49.0636H18.9967V48.0636ZM19.8157 46.3476L19.0387 45.718L19.0322 45.7262L19.8157 46.3476ZM21.3367 45.1646L20.9152 44.2578L20.9103 44.2601L21.3367 45.1646ZM24.6257 51.4956L24.0535 50.6755H24.0535L24.6257 51.4956ZM25.3017 50.4036L26.2881 50.568L26.4821 49.4036H25.3017V50.4036ZM21.4407 50.4036V49.4036H20.3789L20.4425 50.4635L21.4407 50.4036ZM22.0127 51.4696L21.3974 52.258L22.0127 51.4696ZM23.3777 45.7356C24.1413 45.7356 24.7629 45.898 25.2747 46.1896L26.2646 44.4517C25.4072 43.9633 24.434 43.7356 23.3777 43.7356V45.7356ZM25.2794 46.1922C25.8016 46.486 26.2043 46.8988 26.4982 47.453L28.2652 46.5163C27.7964 45.6318 27.1244 44.9353 26.2599 44.4491L25.2794 46.1922ZM26.5005 47.4575C26.7908 47.9984 26.9537 48.6623 26.9537 49.4806H28.9537C28.9537 48.3923 28.7352 47.3922 28.2628 46.5118L26.5005 47.4575ZM26.9537 49.4806C26.9537 50.2986 26.7909 50.969 26.4982 51.5213L28.2652 52.458C28.7351 51.5716 28.9537 50.5693 28.9537 49.4806H26.9537ZM26.4938 51.5296C26.209 52.0794 25.8126 52.4894 25.2924 52.7821L26.2729 54.5252C27.1394 54.0378 27.8091 53.3386 28.2696 52.4496L26.4938 51.5296ZM25.2924 52.7821C24.7692 53.0764 24.141 53.2386 23.3777 53.2386V55.2386C24.4344 55.2386 25.4095 55.0109 26.2729 54.5252L25.2924 52.7821ZM23.3777 53.2386C22.6171 53.2386 21.9932 53.0825 21.4768 52.8013L20.5206 54.558C21.3734 55.0222 22.3356 55.2386 23.3777 55.2386V53.2386ZM21.4768 52.8013C20.9626 52.5215 20.5666 52.1273 20.2759 51.5987L18.5235 52.5626C18.9954 53.4207 19.6654 54.0925 20.5206 54.558L21.4768 52.8013ZM20.2829 51.6118C19.9995 51.0778 19.8407 50.4252 19.8407 49.6236H17.8407C17.8407 50.6941 18.0545 51.6795 18.5164 52.5495L20.2829 51.6118ZM19.8407 49.6236C19.8407 49.3872 19.8555 49.1812 19.8819 49.0032L17.9035 48.7101C17.8605 49 17.8407 49.3054 17.8407 49.6236H19.8407ZM18.8927 49.8566H25.3277V47.8566H18.8927V49.8566ZM26.3259 48.797C26.2787 48.0072 25.9936 47.2854 25.3907 46.7543L24.0686 48.255C24.1937 48.3652 24.3073 48.5448 24.3295 48.9162L26.3259 48.797ZM25.3996 46.7622C24.844 46.2608 24.161 46.0236 23.4167 46.0236V48.0236C23.7124 48.0236 23.9047 48.1071 24.0597 48.247L25.3996 46.7622ZM23.4167 46.0236C22.8469 46.0236 22.3027 46.1591 21.8162 46.4564L22.8591 48.1629C22.9967 48.0789 23.1718 48.0236 23.4167 48.0236V46.0236ZM21.8232 46.4522C21.3288 46.7488 20.9635 47.182 20.7702 47.7322L22.6571 48.3951C22.6892 48.304 22.7399 48.2345 22.8522 48.1671L21.8232 46.4522ZM21.7137 47.0636H18.9967V49.0636H21.7137V47.0636ZM19.9713 48.2875C20.0862 47.7874 20.2954 47.352 20.5992 46.969L19.0322 45.7262C18.5386 46.3486 18.2018 47.0572 18.0221 47.8397L19.9713 48.2875ZM20.5926 46.9772C20.9018 46.5957 21.2873 46.2935 21.7631 46.0692L20.9103 44.2601C20.1727 44.6078 19.5443 45.0942 19.0387 45.7181L20.5926 46.9772ZM21.7582 46.0715C22.2289 45.8527 22.7635 45.7356 23.3777 45.7356V43.7356C22.5012 43.7356 21.6751 43.9046 20.9152 44.2578L21.7582 46.0715ZM23.3257 52.8856C24.0056 52.8856 24.6426 52.7031 25.1979 52.3158L24.0535 50.6755C23.8634 50.8081 23.6338 50.8856 23.3257 50.8856V52.8856ZM25.1979 52.3158C25.8019 51.8944 26.168 51.2883 26.2881 50.568L24.3153 50.2392C24.2793 50.4549 24.1948 50.5769 24.0535 50.6755L25.1979 52.3158ZM25.3017 49.4036H21.4407V51.4036H25.3017V49.4036ZM20.4425 50.4635C20.4864 51.1957 20.8257 51.8117 21.3974 52.258L22.628 50.6813C22.489 50.5729 22.447 50.4783 22.4389 50.3438L20.4425 50.4635ZM21.3974 52.258C21.9548 52.693 22.6186 52.8856 23.3257 52.8856V50.8856C22.9928 50.8856 22.7812 50.801 22.628 50.6813L21.3974 52.258ZM37.3705 44.9566H38.3705V43.9566H37.3705V44.9566ZM37.3705 54.1216V55.1216H38.3705V54.1216H37.3705ZM34.8225 54.1216H33.8225V55.1216H34.8225V54.1216ZM34.8225 50.4426H35.8225V49.4426H34.8225V50.4426ZM31.7155 50.4426V49.4426H30.7155V50.4426H31.7155ZM31.7155 54.1216V55.1216H32.7155V54.1216H31.7155ZM29.1675 54.1216H28.1675V55.1216H29.1675V54.1216ZM29.1675 44.9566V43.9566H28.1675V44.9566H29.1675ZM31.7155 44.9566H32.7155V43.9566H31.7155V44.9566ZM31.7155 48.4016H30.7155V49.4016H31.7155V48.4016ZM34.8225 48.4016V49.4016H35.8225V48.4016H34.8225ZM34.8225 44.9566V43.9566H33.8225V44.9566H34.8225ZM36.3705 44.9566V54.1216H38.3705V44.9566H36.3705ZM37.3705 53.1216H34.8225V55.1216H37.3705V53.1216ZM35.8225 54.1216V50.4426H33.8225V54.1216H35.8225ZM34.8225 49.4426H31.7155V51.4426H34.8225V49.4426ZM30.7155 50.4426V54.1216H32.7155V50.4426H30.7155ZM31.7155 53.1216H29.1675V55.1216H31.7155V53.1216ZM30.1675 54.1216V44.9566H28.1675V54.1216H30.1675ZM29.1675 45.9566H31.7155V43.9566H29.1675V45.9566ZM30.7155 44.9566V48.4016H32.7155V44.9566H30.7155ZM31.7155 49.4016H34.8225V47.4016H31.7155V49.4016ZM35.8225 48.4016V44.9566H33.8225V48.4016H35.8225ZM34.8225 45.9566H37.3705V43.9566H34.8225V45.9566ZM39.6606 53.4586L39.0622 54.2599L39.0688 54.2647L39.6606 53.4586ZM38.5556 51.2746V50.2746H37.499L37.5571 51.3296L38.5556 51.2746ZM41.2726 51.2746L42.2693 51.1938L42.1948 50.2746H41.2726V51.2746ZM41.5586 51.9766L40.8918 52.7219L41.5586 51.9766ZM42.7676 52.0286L43.3751 52.823L43.3815 52.818L42.7676 52.0286ZM42.6246 50.9106L43.1303 50.0479L42.6246 50.9106ZM41.4026 50.4166L41.0863 51.3654L41.0952 51.3682L41.4026 50.4166ZM39.9466 49.8446L39.4826 50.7305L39.4951 50.737L39.5078 50.7432L39.9466 49.8446ZM38.9846 49.0256L38.18 49.6195L38.188 49.6303L38.1963 49.6409L38.9846 49.0256ZM39.0236 46.1006L39.8396 46.6787L39.8452 46.6707L39.0236 46.1006ZM40.2456 45.1386L39.861 44.2156V44.2156L40.2456 45.1386ZM44.5616 45.5676L43.9395 46.3506L43.9454 46.3553L43.9514 46.3599L44.5616 45.5676ZM45.5886 47.6606V48.6606H46.6378L46.5874 47.6126L45.5886 47.6606ZM42.8196 47.6606L41.8201 47.6919L41.8503 48.6606H42.8196V47.6606ZM42.5596 47.0366L41.8952 47.7841L41.9052 47.7929L41.9155 47.8016L42.5596 47.0366ZM41.4806 46.9976L42.161 47.7304L41.4806 46.9976ZM41.4936 47.9336L40.7865 48.6407L40.81 48.6643L40.8351 48.6862L41.4936 47.9336ZM42.0006 48.2586L41.5691 49.1608L41.5854 49.1685L41.6019 49.1757L42.0006 48.2586ZM42.8846 48.5966L42.5496 49.5389L42.5599 49.5425L42.8846 48.5966ZM44.3146 49.1946L43.8429 50.0764L43.8551 50.0829L43.8674 50.0891L44.3146 49.1946ZM45.2896 50.0136L44.4919 50.6168L44.5002 50.6277L44.5087 50.6383L45.2896 50.0136ZM45.2896 52.8086L44.4473 52.2696L44.4435 52.2756L44.4397 52.2817L45.2896 52.8086ZM44.1066 53.8356L43.6714 52.9353L43.6655 52.9382L44.1066 53.8356ZM42.2866 53.2126C41.3786 53.2126 40.7259 53.0002 40.2524 52.6526L39.0688 54.2647C39.9646 54.9224 41.0626 55.2126 42.2866 55.2126V53.2126ZM40.259 52.6574C39.8389 52.3437 39.5918 51.9044 39.5541 51.2197L37.5571 51.3296C37.6234 52.5342 38.1129 53.5509 39.0622 54.2599L40.259 52.6574ZM38.5556 52.2746H41.2726V50.2746H38.5556V52.2746ZM40.2759 51.3555C40.3132 51.8161 40.4642 52.3393 40.8918 52.7219L42.2254 51.2314C42.2471 51.2509 42.2632 51.2703 42.2743 51.2866C42.2851 51.3024 42.2894 51.3126 42.2897 51.3133C42.2899 51.3138 42.2864 51.3054 42.282 51.2852C42.2776 51.265 42.2727 51.2351 42.2693 51.1938L40.2759 51.3555ZM40.8918 52.7219C41.2715 53.0616 41.7356 53.1976 42.1956 53.1976V51.1976C42.16 51.1976 42.1548 51.1927 42.1691 51.1976C42.1761 51.2001 42.1858 51.2042 42.1967 51.2106C42.2077 51.2171 42.2175 51.2243 42.2254 51.2314L40.8918 52.7219ZM42.1956 53.1976C42.5909 53.1976 43.0121 53.1006 43.375 52.823L42.1601 51.2343C42.1744 51.2234 42.1886 51.2147 42.2017 51.2082C42.2148 51.2016 42.2249 51.1981 42.2307 51.1964C42.242 51.1931 42.2331 51.1976 42.1956 51.1976V53.1976ZM43.3815 52.818C43.7956 52.496 44.0016 52.0324 44.0016 51.5346H42.0016C42.0016 51.5116 42.0066 51.4553 42.0393 51.3861C42.0729 51.3152 42.1188 51.2664 42.1536 51.2393L43.3815 52.818ZM44.0016 51.5346C44.0016 50.8762 43.6565 50.3564 43.1303 50.0479L42.1189 51.7733C42.1293 51.7795 42.0903 51.7586 42.0514 51.6943C42.0102 51.6261 42.0016 51.5628 42.0016 51.5346H44.0016ZM43.1303 50.0479C42.7806 49.8429 42.287 49.6515 41.71 49.4651L41.0952 51.3682C41.6449 51.5458 41.9659 51.6837 42.1189 51.7733L43.1303 50.0479ZM41.7188 49.468C41.1436 49.2762 40.7036 49.1015 40.3854 48.9461L39.5078 50.7432C39.9349 50.9518 40.4656 51.1584 41.0864 51.3653L41.7188 49.468ZM40.4106 48.9588C40.1845 48.8404 39.9712 48.6644 39.7729 48.4104L38.1963 49.6409C38.5526 50.0975 38.9807 50.4676 39.4826 50.7305L40.4106 48.9588ZM39.7892 48.4318C39.6793 48.283 39.5816 48.0364 39.5816 47.6086H37.5816C37.5816 48.3422 37.7525 49.0403 38.18 49.6195L39.7892 48.4318ZM39.5816 47.6086C39.5816 47.193 39.6826 46.9003 39.8396 46.6787L38.2076 45.5226C37.7753 46.1329 37.5816 46.8456 37.5816 47.6086H39.5816ZM39.8452 46.6707C40.0212 46.4171 40.2701 46.2118 40.6302 46.0617L39.861 44.2156C39.1811 44.4989 38.6154 44.9348 38.202 45.5306L39.8452 46.6707ZM40.6302 46.0617C41.0095 45.9037 41.4649 45.8136 42.0136 45.8136V43.8136C41.2449 43.8136 40.5217 43.9403 39.861 44.2156L40.6302 46.0617ZM42.0136 45.8136C42.9261 45.8136 43.5331 46.0277 43.9395 46.3506L45.1837 44.7847C44.3247 44.1022 43.2331 43.8136 42.0136 43.8136V45.8136ZM43.9514 46.3599C44.3319 46.653 44.5587 47.0626 44.5897 47.7087L46.5874 47.6126C46.5318 46.456 46.074 45.4703 45.1718 44.7754L43.9514 46.3599ZM45.5886 46.6606H42.8196V48.6606H45.5886V46.6606ZM43.8191 47.6294C43.8043 47.1554 43.6445 46.6429 43.2037 46.2717L41.9155 47.8016C41.8948 47.7841 41.8754 47.7635 41.8589 47.7406C41.8424 47.7179 41.8316 47.6971 41.825 47.6813C41.8122 47.6505 41.8187 47.6475 41.8201 47.6919L43.8191 47.6294ZM43.2239 46.2892C42.8491 45.956 42.3923 45.8286 41.9486 45.8286V47.8286C41.9827 47.8286 41.9853 47.8333 41.9676 47.8273C41.9587 47.8243 41.9467 47.8192 41.933 47.8113C41.9193 47.8034 41.9064 47.794 41.8952 47.7841L43.2239 46.2892ZM41.9486 45.8286C41.5465 45.8286 41.1344 45.9544 40.8001 46.2648L42.161 47.7304C42.123 47.7657 42.0764 47.794 42.0282 47.8114C41.9823 47.828 41.952 47.8286 41.9486 47.8286V45.8286ZM40.8001 46.2648C40.4253 46.6129 40.2986 47.0686 40.2986 47.4786H42.2986C42.2986 47.4705 42.2999 47.5021 42.2794 47.5563C42.2571 47.6151 42.2174 47.6781 42.161 47.7304L40.8001 46.2648ZM40.2986 47.4786C40.2986 47.9345 40.4816 48.3358 40.7865 48.6407L42.2007 47.2265C42.2154 47.2412 42.2435 47.2747 42.2665 47.3285C42.29 47.3834 42.2986 47.4368 42.2986 47.4786H40.2986ZM40.8351 48.6862C41.0543 48.878 41.3034 49.0337 41.5691 49.1608L42.432 47.3565C42.2991 47.2929 42.2102 47.2319 42.1521 47.1811L40.8351 48.6862ZM41.6019 49.1757C41.8332 49.2763 42.1536 49.3981 42.5496 49.5389L43.2196 47.6544C42.8356 47.5179 42.5667 47.4143 42.3993 47.3416L41.6019 49.1757ZM42.5599 49.5425C43.1105 49.7315 43.5334 49.9108 43.8429 50.0764L44.7862 48.3129C44.3505 48.0798 43.8201 47.8605 43.2093 47.6508L42.5599 49.5425ZM43.8674 50.0891C44.1048 50.2078 44.3118 50.3785 44.4919 50.6168L46.0872 49.4105C45.73 48.9381 45.287 48.5628 44.7618 48.3002L43.8674 50.0891ZM44.5087 50.6383C44.6162 50.7726 44.7056 50.98 44.7056 51.3396H46.7056C46.7056 50.6246 46.5177 49.948 46.0705 49.3889L44.5087 50.6383ZM44.7056 51.3396C44.7056 51.7068 44.6152 52.0072 44.4473 52.2696L46.1319 53.3477C46.5186 52.7434 46.7056 52.0644 46.7056 51.3396H44.7056ZM44.4397 52.2817C44.2838 52.5331 44.0438 52.7553 43.6714 52.9353L44.5418 54.736C45.2093 54.4133 45.758 53.9509 46.1395 53.3356L44.4397 52.2817ZM43.6655 52.9382C43.3195 53.1082 42.8704 53.2126 42.2866 53.2126V55.2126C43.1067 55.2126 43.871 55.0657 44.5477 54.7331L43.6655 52.9382ZM49.3861 44.9566H50.3861V43.9566H49.3861V44.9566ZM49.7241 51.4176L48.9579 52.0603L48.9639 52.0674L48.97 52.0744L49.7241 51.4176ZM51.8301 51.4176L51.0775 50.7591L51.076 50.7609L51.8301 51.4176ZM52.1941 44.9566V43.9566H51.1941V44.9566H52.1941ZM54.7421 44.9566H55.7421V43.9566H54.7421V44.9566ZM54.2091 52.4316L55.0655 52.948L55.0688 52.9425L54.2091 52.4316ZM52.7531 53.7706L53.19 54.6702L53.1953 54.6676L52.7531 53.7706ZM48.7231 53.7706L48.2601 54.657L48.268 54.6611L48.2759 54.6651L48.7231 53.7706ZM47.3451 52.4316L46.4721 52.9195L46.4777 52.9292L47.3451 52.4316ZM46.8511 44.9566V43.9566H45.8511V44.9566H46.8511ZM48.3861 44.9566V50.2736H50.3861V44.9566H48.3861ZM48.3861 50.2736C48.3861 50.9078 48.5301 51.5502 48.9579 52.0603L50.4903 50.775C50.4674 50.7478 50.3861 50.6275 50.3861 50.2736H48.3861ZM48.97 52.0744C49.4492 52.6246 50.1163 52.8206 50.7771 52.8206V50.8206C50.6364 50.8206 50.5575 50.8002 50.5203 50.786C50.489 50.774 50.4817 50.7649 50.4782 50.7609L48.97 52.0744ZM50.7771 52.8206C51.438 52.8206 52.105 52.6246 52.5842 52.0744L51.076 50.7609C51.0725 50.7649 51.0652 50.774 51.0339 50.786C50.9967 50.8002 50.9178 50.8206 50.7771 50.8206V52.8206ZM52.5827 52.0761C53.0297 51.5653 53.1941 50.9231 53.1941 50.2736H51.1941C51.1941 50.5949 51.1158 50.7154 51.0775 50.7591L52.5827 52.0761ZM53.1941 50.2736V44.9566H51.1941V50.2736H53.1941ZM52.1941 45.9566H54.7421V43.9566H52.1941V45.9566ZM53.7421 44.9566V50.2736H55.7421V44.9566H53.7421ZM53.7421 50.2736C53.7421 50.9721 53.5955 51.5067 53.3494 51.9208L55.0688 52.9425C55.5334 52.1605 55.7421 51.2566 55.7421 50.2736H53.7421ZM53.3527 51.9153C53.0959 52.3413 52.7541 52.6553 52.311 52.8737L53.1953 54.6676C53.9828 54.2794 54.6117 53.7007 55.0655 52.948L53.3527 51.9153ZM52.3162 52.8711C51.8595 53.093 51.3352 53.2126 50.7251 53.2126V55.2126C51.6057 55.2126 52.4334 55.0376 53.19 54.6702L52.3162 52.8711ZM50.7251 53.2126C50.1145 53.2126 49.6035 53.0928 49.1703 52.8762L48.2759 54.6651C49.0213 55.0378 49.8451 55.2126 50.7251 55.2126V53.2126ZM49.1861 52.8843C48.7811 52.6727 48.4593 52.3644 48.2126 51.9341L46.4777 52.9292C46.9069 53.6776 47.5038 54.2619 48.2601 54.657L49.1861 52.8843ZM48.2181 51.9438C47.9909 51.5373 47.8511 50.9955 47.8511 50.2736H45.8511C45.8511 51.2504 46.0407 52.1473 46.4722 52.9195L48.2181 51.9438ZM47.8511 50.2736V44.9566H45.8511V50.2736H47.8511ZM46.8511 45.9566H49.3861V43.9566H46.8511V45.9566ZM58.693 52.1716H57.693V53.1716H58.693V52.1716ZM61.54 52.1716H62.54V51.1716H61.54V52.1716ZM61.54 54.1216V55.1216H62.54V54.1216H61.54ZM56.145 54.1216H55.145V55.1216H56.145V54.1216ZM56.145 44.9566V43.9566H55.145V44.9566H56.145ZM58.693 44.9566H59.693V43.9566H58.693V44.9566ZM58.693 53.1716H61.54V51.1716H58.693V53.1716ZM60.54 52.1716V54.1216H62.54V52.1716H60.54ZM61.54 53.1216H56.145V55.1216H61.54V53.1216ZM57.145 54.1216V44.9566H55.145V54.1216H57.145ZM56.145 45.9566H58.693V43.9566H56.145V45.9566ZM57.693 44.9566V52.1716H59.693V44.9566H57.693Z" fill="#A20762"/>
<path d="M32.7627 1.68983C33.3585 0.820475 34.6415 0.820475 35.2373 1.68983L37.4176 4.87109C37.7426 5.34542 38.2213 5.69318 38.7729 5.85577L42.4721 6.94625C43.4831 7.24425 43.8795 8.46445 43.2368 9.29975L40.885 12.3564C40.5344 12.8121 40.3515 13.3748 40.3673 13.9496L40.4734 17.8048C40.5024 18.8583 39.4644 19.6125 38.4714 19.2594L34.8376 17.9672C34.2958 17.7745 33.7042 17.7745 33.1624 17.9672L29.5286 19.2594C28.5356 19.6125 27.4976 18.8583 27.5266 17.8048L27.6327 13.9496C27.6485 13.3748 27.4656 12.8121 27.115 12.3564L24.7632 9.29975C24.1205 8.46445 24.5169 7.24425 25.5279 6.94625L29.2271 5.85577C29.7787 5.69318 30.2574 5.34541 30.5824 4.87109L32.7627 1.68983Z" fill="url(#paint1_radial_2024_41426)" stroke="#EF8528"/>
</g>
<defs>
<linearGradient id="paint0_linear_2024_41426" x1="23.3173" y1="38.598" x2="23.3173" y2="89.2325" gradientUnits="userSpaceOnUse">
<stop stop-color="#FF52B8"/>
<stop offset="1" stop-color="#ED008C"/>
</linearGradient>
<radialGradient id="paint1_radial_2024_41426" cx="0" cy="0" r="1" gradientUnits="userSpaceOnUse" gradientTransform="translate(34 11) rotate(90) scale(9.5)">
<stop stop-color="#FFAC0C"/>
<stop offset="1" stop-color="#FFD450"/>
</radialGradient>
<clipPath id="clip0_2024_41426">
<rect width="68" height="68" fill="white"/>
</clipPath>
</defs>
</svg>
