<svg width="20" height="19" viewBox="0 0 20 19" fill="none" xmlns="http://www.w3.org/2000/svg">
<path d="M17.397 2.99399C16.972 2.54985 16.4675 2.19753 15.9121 1.95715C15.3568 1.71677 14.7616 1.59305 14.1605 1.59305C13.5594 1.59305 12.9642 1.71677 12.4089 1.95715C11.8535 2.19753 11.349 2.54985 10.924 2.99399L10.0421 3.9153L9.16021 2.99399C8.30185 2.09728 7.13766 1.59351 5.92375 1.59351C4.70984 1.59351 3.54565 2.09728 2.68728 2.99399C1.82892 3.8907 1.34669 5.10689 1.34669 6.37503C1.34669 7.64317 1.82892 8.85937 2.68728 9.75607L3.5692 10.6774L10.0421 17.4395L16.5151 10.6774L17.397 9.75607C17.8221 9.31214 18.1594 8.78506 18.3895 8.20493C18.6196 7.6248 18.738 7.00299 18.738 6.37503C18.738 5.74707 18.6196 5.12526 18.3895 4.54513C18.1594 3.965 17.8221 3.43792 17.397 2.99399V2.99399Z" stroke="white" stroke-width="1.5" stroke-linecap="round" stroke-linejoin="round"/>
</svg>
