<svg width="20" height="17" viewBox="0 0 20 17" fill="none" xmlns="http://www.w3.org/2000/svg">
<path d="M17.397 2.20108C16.972 1.77226 16.4675 1.43208 15.9121 1.2C15.3568 0.967906 14.7616 0.84845 14.1605 0.84845C13.5594 0.84845 12.9642 0.967906 12.4088 1.2C11.8535 1.43208 11.349 1.77226 10.924 2.20108L10.0421 3.09062L9.16019 2.20108C8.30183 1.33529 7.13764 0.848898 5.92373 0.848898C4.70982 0.848898 3.54563 1.33529 2.68727 2.20108C1.8289 3.06687 1.34668 4.24113 1.34668 5.46554C1.34668 6.68995 1.8289 7.86421 2.68727 8.72999L3.56918 9.61954L10.0421 16.1485L16.515 9.61954L17.397 8.72999C17.8221 8.30137 18.1594 7.79246 18.3895 7.23233C18.6196 6.67221 18.738 6.07184 18.738 5.46554C18.738 4.85923 18.6196 4.25887 18.3895 3.69874C18.1594 3.13861 17.8221 2.6297 17.397 2.20108V2.20108Z" stroke="#1D2123" stroke-width="1.5" stroke-linecap="round" stroke-linejoin="round"/>
</svg>
