<svg width="20" height="20" viewBox="0 0 20 20" fill="none" xmlns="http://www.w3.org/2000/svg">
<g opacity="0.8">
<path d="M14.5455 0.90918H5.45454C2.94416 0.90918 0.909088 2.94425 0.909088 5.45463V14.5455C0.909088 17.0559 2.94416 19.091 5.45454 19.091H14.5455C17.0558 19.091 19.0909 17.0559 19.0909 14.5455V5.45463C19.0909 2.94425 17.0558 0.90918 14.5455 0.90918Z" stroke="white" stroke-width="1.5" stroke-linecap="round" stroke-linejoin="round"/>
<path d="M13.6364 9.42719C13.7486 10.1838 13.6193 10.9565 13.2671 11.6354C12.9148 12.3143 12.3574 12.8648 11.6742 13.2087C10.991 13.5526 10.2168 13.6723 9.46164 13.5508C8.7065 13.4293 8.00889 13.0727 7.46805 12.5319C6.92722 11.991 6.57069 11.2934 6.44917 10.5383C6.32766 9.78315 6.44735 9.00891 6.79123 8.32571C7.1351 7.64251 7.68564 7.08514 8.36455 6.73287C9.04346 6.38059 9.81616 6.25136 10.5727 6.36356C11.3445 6.478 12.059 6.83761 12.6106 7.38929C13.1623 7.94096 13.5219 8.65544 13.6364 9.42719Z" stroke="white" stroke-width="1.5" stroke-linecap="round" stroke-linejoin="round"/>
<path d="M15 5H15.01" stroke="white" stroke-width="1.5" stroke-linecap="round" stroke-linejoin="round"/>
</g>
</svg>
