<svg width="41" height="30" viewBox="0 0 41 30" fill="none" xmlns="http://www.w3.org/2000/svg">
<path d="M15.9241 22.6083C16.7968 22.6083 17.5043 21.8843 17.5043 20.9912C17.5043 20.0982 16.7968 19.3742 15.9241 19.3742C15.0514 19.3742 14.344 20.0982 14.344 20.9912C14.344 21.8843 15.0514 22.6083 15.9241 22.6083Z" fill="white"/>
<path d="M33.3088 12.6496C36.3086 12.1194 38.8988 10.321 38.8988 6.6866C38.8988 2.24057 34.9989 0.510947 31.6537 0.510947L26.3387 0.5C25.3057 0.5 25.4891 0.510947 25.4784 0.515639C25.4677 0.52033 25.5823 0.625108 25.6312 0.687662H30.827C32.8259 0.687662 35.0494 2.27341 35.5842 6.6866C36.0931 10.8809 32.861 12.0819 30.9156 12.5354L29.7252 12.5933H9.25212C7.07019 12.5811 4.97235 13.4538 3.41753 15.0204C2.62196 15.818 1.99642 16.7756 1.58034 17.8328C1.16426 18.89 0.966643 20.024 0.999944 21.1632C1.02811 23.4029 1.92455 25.5394 3.49205 27.1027C4.2682 27.8768 5.18574 28.4869 6.19228 28.8981C7.19881 29.3093 8.27464 29.5136 9.35833 29.4993C10.442 29.485 11.5124 29.2525 12.5082 28.8149C13.5041 28.3773 14.406 27.7433 15.1624 26.949C15.9188 26.1548 16.515 25.2158 16.9168 24.1858C17.3186 23.1557 17.5183 22.0548 17.5043 20.9458H17.4019C17.4047 23.0931 16.5981 25.1588 15.15 26.7128C13.7018 28.2667 11.7238 29.1892 9.62768 29.2881C7.53158 29.3871 5.47895 28.6549 3.89716 27.2439C2.31538 25.833 1.32633 23.8521 1.13595 21.7137C0.694308 16.8219 4.51476 12.6981 9.25212 12.6981H30.6986C31.4826 12.7465 32.2406 12.8263 32.2406 12.8263C33.8528 13.0265 37.2392 14.5199 37.2392 18.9644C37.2392 23.1461 35.0112 24.8257 32.9068 25.0118C32.806 25.029 30.8514 25.0243 30.8514 25.0243C30.7827 25.065 30.8759 25.1698 30.9737 25.2042H32.7525C36.7258 25.2042 40.5844 23.4042 40.5844 18.9582C40.5844 14.5121 36.6539 12.6496 33.3088 12.6496Z" fill="white"/>
<path d="M9.74576 19.6135C9.63707 19.6431 9.52688 19.6666 9.41568 19.6839C8.08005 23.1244 6.4724 24.6444 4.29321 25.0276V25.209H11.6377V25.0323C9.65866 25.0276 9.17422 22.2846 9.74576 19.6135Z" fill="white"/>
<path d="M20.9122 25.0275V25.2089H28.4981L28.3453 25.029C26.2058 25.029 25.3913 22.5628 24.4958 20.3046C23.5682 18.0417 17.0459 0.5 17.0459 0.5H16.7403C16.7403 0.5 16.1764 1.9794 15.3099 4.25325L15.3955 4.45967C15.4643 4.63639 21.5327 20.8316 21.878 21.784C22.8087 24.3581 22.5672 25.0275 20.9122 25.0275Z" fill="white"/>
<path d="M25.6038 25.0275V25.2089H33.1897L33.0368 25.029C30.8974 25.029 30.0829 22.5628 29.1858 20.3046C28.2567 18.0417 21.7405 0.5 21.7405 0.5H21.4349L20.0045 4.23761C20.0351 4.30798 26.2227 20.8285 26.5757 21.7809C27.4987 24.3581 27.2573 25.0275 25.6038 25.0275Z" fill="white"/>
</svg>
