<svg width="40" height="40" viewBox="0 0 40 40" fill="none" xmlns="http://www.w3.org/2000/svg">
<circle cx="20" cy="20" r="19.5" fill="white" stroke="#F2F2F2"/>
<path d="M27.397 14.2011C26.972 13.7723 26.4675 13.4321 25.9121 13.2C25.3568 12.9679 24.7616 12.8484 24.1605 12.8484C23.5594 12.8484 22.9642 12.9679 22.4088 13.2C21.8535 13.4321 21.349 13.7723 20.924 14.2011L20.0421 15.0906L19.1602 14.2011C18.3018 13.3353 17.1376 12.8489 15.9237 12.8489C14.7098 12.8489 13.5456 13.3353 12.6873 14.2011C11.8289 15.0669 11.3467 16.2411 11.3467 17.4655C11.3467 18.6899 11.8289 19.8642 12.6873 20.73L13.5692 21.6195L20.0421 28.1485L26.515 21.6195L27.397 20.73C27.8221 20.3014 28.1594 19.7925 28.3895 19.2323C28.6196 18.6722 28.738 18.0718 28.738 17.4655C28.738 16.8592 28.6196 16.2589 28.3895 15.6987C28.1594 15.1386 27.8221 14.6297 27.397 14.2011V14.2011Z" stroke="#828282" stroke-width="1.5" stroke-linecap="round" stroke-linejoin="round"/>
<path d="M27.397 14.2011C26.972 13.7723 26.4675 13.4321 25.9121 13.2C25.3568 12.9679 24.7616 12.8484 24.1605 12.8484C23.5594 12.8484 22.9642 12.9679 22.4088 13.2C21.8535 13.4321 21.349 13.7723 20.924 14.2011L20.0421 15.0906L19.1602 14.2011C18.3018 13.3353 17.1376 12.8489 15.9237 12.8489C14.7098 12.8489 13.5456 13.3353 12.6873 14.2011C11.8289 15.0669 11.3467 16.2411 11.3467 17.4655C11.3467 18.6899 11.8289 19.8642 12.6873 20.73L13.5692 21.6195L20.0421 28.1485L26.515 21.6195L27.397 20.73C27.8221 20.3014 28.1594 19.7925 28.3895 19.2323C28.6196 18.6722 28.738 18.0718 28.738 17.4655C28.738 16.8592 28.6196 16.2589 28.3895 15.6987C28.1594 15.1386 27.8221 14.6297 27.397 14.2011V14.2011Z" stroke="#828282" stroke-width="1.5" stroke-linecap="round" stroke-linejoin="round"/>
</svg>
